<svg width="131" height="155" viewBox="0 0 131 155" fill="none" xmlns="http://www.w3.org/2000/svg">
<path d="M127.686 120.273C125.35 125.666 122.588 130.628 119.387 135.193C115.024 141.412 111.451 145.718 108.698 148.109C104.43 152.035 99.8582 154.045 94.9622 154.16C91.4462 154.16 87.2081 153.16 82.2721 151.131C77.3211 149.111 72.7711 148.111 68.6101 148.111C64.2471 148.111 59.5691 149.111 54.5631 151.131C49.5491 153.16 45.5121 154.217 42.4241 154.322C37.7281 154.521 33.0471 152.455 28.3751 148.111C25.3951 145.509 21.6641 141.052 17.1951 134.734C12.4031 127.99 8.46317 120.17 5.37317 111.252C2.06617 101.621 0.410156 92.2951 0.410156 83.2661C0.410156 72.9221 2.64409 64.0019 7.12109 56.5259C10.6391 50.5219 15.3201 45.7861 21.1781 42.3091C27.0351 38.8301 33.3661 37.0588 40.1821 36.9458C43.9121 36.9458 48.8011 38.1002 54.8811 40.3662C60.9401 42.6412 64.8321 43.7959 66.5391 43.7959C67.8121 43.7959 72.1371 42.4478 79.4651 39.7568C86.3961 37.2628 92.2461 36.2322 97.0371 36.6382C110.021 37.6882 119.777 42.8039 126.266 52.0269C114.653 59.0619 108.909 68.9181 109.021 81.5601C109.127 91.4081 112.699 99.6039 119.721 106.109C122.903 109.129 126.455 111.463 130.41 113.121C129.553 115.605 128.646 117.986 127.686 120.273ZM97.9042 3.08691C97.9042 10.8059 95.0861 18.0131 89.4651 24.6831C82.6821 32.6131 74.4771 37.1952 65.5801 36.4722C65.4671 35.5462 65.4001 34.5719 65.4001 33.5459C65.4001 26.1359 68.6271 18.2061 74.3551 11.7241C77.2151 8.44112 80.8521 5.71016 85.2621 3.53516C89.6641 1.38916 93.8281 0.203 97.7421 0C97.8581 1.031 97.9042 2.06391 97.9042 3.08691Z" fill="black"/>
</svg>
