<svg width="169" height="138" viewBox="0 0 169 138" fill="none" xmlns="http://www.w3.org/2000/svg">
<path d="M136.882 107.879H102.486C99.9591 107.879 97.9081 105.836 97.9081 103.312C97.9081 100.788 99.9591 98.7538 102.486 98.7538H136.345C139.68 97.9088 159.712 92.039 159.284 73.529C159.075 65.134 156.382 58.661 151.253 54.311C140.276 44.998 121.726 47.4659 121.54 47.4919C120.319 47.6599 119.089 47.3379 118.108 46.5829C117.141 45.8349 116.506 44.725 116.37 43.519C116.2 42.216 112.18 11.6048 86.4271 9.25677C61.1651 6.98077 54.5131 35.8078 54.2411 37.0378C53.7041 39.4978 51.2781 41.067 48.8111 40.519C46.3501 39.98 44.7761 37.5598 45.3131 35.0998C48.1591 21.9528 60.6021 -2.25914 87.2541 0.169856C111.166 2.34886 121.692 23.9298 124.707 38.0988C132.015 37.8098 146.74 38.508 157.16 47.362C164.365 53.466 168.152 62.2058 168.41 73.3178C168.918 95.1728 148.644 105.41 137.855 107.766C137.534 107.833 137.204 107.879 136.882 107.879Z" fill="#D1D4D3"/>
<path fill-rule="evenodd" clip-rule="evenodd" d="M62.0986 64.0664C62.0986 68.9404 59.9834 73.3203 56.6211 76.3379V76.5732C52.207 80.6396 49.4385 86.4678 49.4385 92.9414C49.4385 98.751 51.666 104.039 55.3115 108.002C59.4248 110.999 62.0986 115.854 62.0986 121.334C62.0986 130.438 54.7188 137.817 45.6152 137.817C36.5107 137.817 29.1309 130.438 29.1309 121.334C29.1309 115.867 31.792 111.021 35.8896 108.022C39.5459 104.057 41.7803 98.7607 41.7803 92.9414C41.7803 86.4678 39.0137 80.6396 34.5996 76.5732V76.3291C31.2422 73.3115 29.1309 68.9355 29.1309 64.0664C29.1309 54.9619 36.5107 47.582 45.6152 47.582C54.7188 47.582 62.0986 54.9619 62.0986 64.0664ZM35.6113 59.709L40.6016 62.8789L35.6113 66.0488L40.623 69.2324L45.6064 66.0488L40.6445 62.8789L45.6064 59.709L40.623 56.5244L35.6113 59.709ZM50.5967 62.8789L45.6338 59.709L50.6182 56.5244L55.6289 59.709L50.6396 62.8789L55.6289 66.0488L50.6182 69.2324L45.6338 66.0488L50.5967 62.8789ZM40.6504 70.2852L45.6621 73.4688L50.6729 70.2852L45.6621 67.1006L40.6504 70.2852ZM54.7715 123.092C54.7832 123.092 54.7959 123.096 54.8145 123.096C55.1826 123.096 55.5273 123.001 55.8252 122.835C56.4482 122.487 56.8691 121.827 56.8701 121.066C56.8701 119.938 55.9521 119.03 54.8154 119.03C54.748 119.03 54.6904 119.032 54.6289 119.038C54.1631 118.011 53.3789 117.165 52.3975 116.602C52.3877 116.011 52.1191 115.481 51.7002 115.118C51.3379 114.804 50.8623 114.612 50.3438 114.612C50.0264 114.612 49.7295 114.683 49.4629 114.813V115.896V116.833V118.479C49.583 118.538 49.709 118.584 49.8398 118.617C50.001 118.658 50.1689 118.68 50.3438 118.68C51.168 118.68 51.873 118.201 52.2051 117.507C52.8926 117.938 53.4551 118.555 53.8164 119.282C53.1797 119.628 52.7529 120.295 52.7529 121.066C52.7529 121.884 53.2432 122.594 53.9502 122.91C53.626 123.696 53.0742 124.372 52.3867 124.855C52.0361 124.223 51.3525 123.797 50.5752 123.797C50.3232 123.797 50.0811 123.843 49.8574 123.926C49.7178 123.978 49.585 124.044 49.4619 124.122V125.641V126.588V127.538C49.7803 127.748 50.165 127.867 50.5752 127.867C51.7139 127.867 52.6367 126.959 52.6367 125.834L52.6328 125.781L52.6299 125.733C53.6035 125.108 54.3613 124.188 54.7715 123.092ZM36.8682 129.145V113.331L48.8662 111.242L48.749 131.242L36.8682 129.145ZM42.541 124.625C43.3242 124.625 43.9473 124.401 44.4023 123.952C44.8643 123.505 45.0908 122.923 45.0957 122.217C45.0957 121.717 44.9941 121.312 44.7949 120.995C44.5947 120.684 44.2852 120.434 43.8672 120.252C43.6543 120.162 43.4512 120.095 43.2695 120.041C43.082 119.988 42.8906 119.937 42.6895 119.885C42.3828 119.797 42.1758 119.702 42.0625 119.603C41.9873 119.532 41.9385 119.44 41.916 119.326C41.9053 119.275 41.9004 119.22 41.9004 119.159C41.9004 119.032 41.9346 118.921 42.002 118.823C42.0703 118.726 42.1504 118.653 42.2461 118.598C42.3574 118.544 42.4648 118.503 42.5801 118.479C42.7021 118.464 42.8154 118.452 42.9326 118.452C43.2695 118.452 43.5938 118.527 43.9121 118.689C44.2363 118.845 44.5049 119.04 44.7266 119.272H44.8779V117.606C44.6221 117.465 44.3164 117.349 43.9658 117.258C43.6074 117.165 43.2529 117.12 42.8906 117.12C42.1777 117.12 41.5869 117.332 41.1299 117.758C40.6689 118.183 40.4443 118.734 40.4443 119.406C40.4443 119.629 40.4639 119.833 40.5029 120.021C40.5527 120.264 40.6348 120.48 40.751 120.673C40.9482 121.009 41.2861 121.282 41.7432 121.479C41.8818 121.537 42.0293 121.592 42.1836 121.638C42.251 121.657 42.3193 121.676 42.3887 121.691C42.5234 121.722 42.6514 121.758 42.7764 121.795L43.041 121.879C43.2383 121.94 43.3867 122.023 43.4902 122.144C43.5889 122.251 43.6406 122.396 43.6406 122.551C43.6406 122.722 43.6045 122.854 43.5361 122.939C43.4932 122.995 43.4434 123.041 43.3867 123.083C43.3496 123.109 43.3096 123.135 43.2666 123.159C43.1738 123.205 43.0635 123.235 42.9258 123.257C42.7871 123.277 42.6699 123.287 42.5859 123.287C42.252 123.287 41.9023 123.204 41.543 123.042C41.1797 122.872 40.8516 122.637 40.5645 122.327H40.4082V124.066C40.7012 124.228 41.0156 124.362 41.3535 124.469C41.6914 124.572 42.0898 124.625 42.541 124.625Z" fill="#39974A"/>
<path fill-rule="evenodd" clip-rule="evenodd" d="M29.666 103.063C26.6436 106.757 22.0488 109.113 16.9043 109.113C7.7998 109.113 0.419922 101.733 0.419922 92.6289C0.419922 83.5254 7.7998 76.1455 16.9043 76.1455C22.0576 76.1455 26.6582 78.5107 29.6807 82.2139C33.7148 86.2812 39.3037 88.8027 45.4844 88.8027C51.958 88.8027 57.7871 86.0342 61.8535 81.6211H61.9014C64.9189 78.2598 69.2988 76.1455 74.1719 76.1455C83.2754 76.1455 90.6553 83.5254 90.6553 92.6289C90.6553 101.733 83.2754 109.113 74.1719 109.113C69.2998 109.113 64.9219 107 61.9043 103.641H61.8535C57.7871 99.2285 51.958 96.459 45.4844 96.459C39.2959 96.459 33.7012 98.9883 29.666 103.063ZM15.0586 83.918H14.0332L14.0918 84.0342L14.1367 84.1221L14.167 84.1758L14.7881 85.252L15.5205 86.5205L15.7783 86.9688C17.4072 89.792 19.0371 92.6162 20.6592 95.4404C20.7451 95.5869 20.832 95.6533 21.0137 95.6533C21.7266 95.6445 22.4395 95.6387 23.1514 95.6328L24.3672 95.624L26.6035 95.6064C26.6729 95.6064 26.7412 95.5898 26.8311 95.5859L26.7998 95.5244L26.7578 95.4434L26.7344 95.4043L25.501 93.2656L22.7012 88.4082L20.2148 84.0879C20.165 84.002 20.1084 83.9541 20.041 83.9287C19.9844 83.9072 19.9199 83.9014 19.8477 83.9014C18.251 83.917 16.6572 83.918 15.0586 83.918ZM9.91406 101.2L9.58594 100.64L9.12988 99.8623L8.18555 98.2344C7.78418 97.5469 7.38281 96.8604 6.97852 96.1748C6.88867 96.0283 6.87891 95.9189 6.96973 95.7559C9.15332 91.9824 11.333 88.209 13.5166 84.4287C13.543 84.3848 13.5723 84.3447 13.6152 84.2861L13.6299 84.2646L14.6299 85.9834L15.2939 87.1201L16.0107 88.3477L16.5684 89.2949C16.6377 89.4287 16.6719 89.5254 16.584 89.6797C14.3936 93.459 12.2109 97.252 10.0283 101.03C10.0107 101.06 9.99316 101.085 9.96777 101.121L9.91406 101.2ZM25.3711 98.7578C25.875 97.875 26.3926 96.9922 26.9062 96.0898C26.8008 96.0859 26.7227 96.0684 26.6465 96.0684C22.3076 96.0684 17.9678 96.0684 13.626 96.0615C13.4893 96.0615 13.4072 96.0986 13.3369 96.1797C13.3242 96.1934 13.3125 96.209 13.3008 96.2266L13.2705 96.2734C12.8105 97.0879 12.3486 97.8994 11.8848 98.7119L11.1836 99.9395L10.5479 101.054C10.5225 101.096 10.501 101.139 10.4766 101.188L10.3994 101.334H10.7725H12.582C16.0996 101.333 19.6172 101.332 23.1309 101.356C23.71 101.356 24.0215 101.207 24.3018 100.686C24.6475 100.038 25.0059 99.3975 25.3711 98.7578ZM76.792 97.8223C75.0264 97.8223 73.2646 97.8223 71.5049 97.8281C71.2637 97.8281 71.0254 97.8027 70.7979 97.7324C70.6357 97.6846 70.4785 97.6279 70.3262 97.5615C70.2432 97.5254 70.1621 97.4863 70.083 97.4434C69.9219 97.3564 69.7666 97.2559 69.6191 97.1396C69.4092 96.9688 69.2314 96.7764 69.0898 96.5615C68.9268 96.3145 68.8105 96.0391 68.748 95.7324C68.6152 95.0928 68.6445 94.4629 68.9629 93.875C69.1865 93.4668 69.5205 93.166 69.916 92.9414C70.3496 92.707 70.8164 92.5625 71.3115 92.5059C71.332 92.498 71.3564 92.4941 71.3789 92.4941C71.4258 92.4941 71.4404 92.4688 71.4453 92.4316C71.582 91.7383 71.832 91.1006 72.2383 90.5293C72.707 89.8633 73.3262 89.4121 74.1289 89.2383C74.2939 89.2031 74.4619 89.1816 74.6309 89.1719C74.8213 89.1611 75.0137 89.166 75.2051 89.1846C75.4102 89.2012 75.6094 89.2314 75.8047 89.2793C76.0439 89.3369 76.2764 89.4199 76.5039 89.5312C77.0918 89.8184 77.5684 90.2334 77.9102 90.7959C77.9238 90.8252 77.9375 90.8418 77.9531 90.8477C77.9727 90.8545 77.9941 90.8457 78.0254 90.8262C78.3799 90.6533 78.75 90.5342 79.1445 90.4922C79.4795 90.4551 79.8086 90.4697 80.127 90.541C80.3457 90.5898 80.5596 90.665 80.7676 90.7676C81.5566 91.1475 82.0479 91.7578 82.2031 92.6348C82.2441 92.8818 82.2588 93.123 82.2305 93.373C82.2275 93.3975 82.2285 93.416 82.2344 93.4307C82.2441 93.4561 82.2666 93.4717 82.3057 93.4824C82.748 93.6084 83.1445 93.8145 83.4805 94.1211C83.6143 94.2432 83.7295 94.375 83.8252 94.5176C84.0068 94.7861 84.1182 95.0908 84.1562 95.4326C84.1992 95.8721 84.1602 96.2969 83.9648 96.7041C83.709 97.2285 83.2744 97.5459 82.7354 97.7334C82.5508 97.7969 82.374 97.8291 82.1758 97.8291C80.3799 97.8223 78.583 97.8223 76.792 97.8223ZM67.9648 96.8164H68.0557C68.0459 96.7881 68.04 96.7705 68.0283 96.7529C67.8193 96.3281 67.7021 95.8799 67.667 95.4023C67.6377 95.0381 67.6533 94.6768 67.7217 94.3252C67.8643 93.6064 68.2109 93 68.7559 92.5205C69.2666 92.0635 69.8682 91.7803 70.5166 91.6104C70.582 91.5947 70.6035 91.5723 70.6211 91.5098C70.8018 90.9463 71.0664 90.4141 71.4121 89.9258C71.7236 89.4932 72.1006 89.1182 72.5449 88.8203C73.0205 88.499 73.5342 88.2998 74.0781 88.208C74.3154 88.168 74.5576 88.1484 74.8057 88.1484C75.1025 88.1484 75.3994 88.1777 75.6904 88.2178C76.3291 88.3086 76.9092 88.5361 77.4443 88.8848C77.623 89 77.79 89.1289 77.9473 89.2686C78.0508 89.3594 78.1504 89.4551 78.2451 89.5547C78.2578 89.5674 78.2686 89.583 78.2812 89.5947C78.2998 89.6133 78.3213 89.626 78.3545 89.6143C78.708 89.5127 79.0605 89.4697 79.417 89.4551C79.5176 89.4492 79.5234 89.4404 79.5068 89.3467C79.459 88.998 79.3711 88.6631 79.2363 88.332C78.8018 87.2451 78.0449 86.4912 76.9414 86.1045C76.2246 85.8545 75.4824 85.7871 74.7266 85.8545C74.2539 85.8936 73.7979 86.0156 73.3711 86.2256C72.6289 86.5869 72.0547 87.1387 71.6357 87.8398C71.5693 87.9502 71.5117 88.0605 71.4463 88.1719C71.4131 88.1475 71.377 88.1309 71.3506 88.1133C70.7627 87.7549 70.1201 87.6035 69.4385 87.6738C69.0332 87.7207 68.6553 87.8457 68.3037 88.0518C67.8896 88.2871 67.5264 88.5771 67.2295 88.9482C66.7939 89.4863 66.6143 90.125 66.5811 90.8145C66.5762 90.9521 66.584 91.0879 66.5918 91.2266L66.5977 91.3467C66.5977 91.3916 66.582 91.4092 66.5312 91.4277L66.374 91.4668C66.1963 91.5107 66.0137 91.5547 65.8438 91.626C65.4873 91.7686 65.1777 91.9658 64.9238 92.2207C64.7158 92.4297 64.5459 92.6787 64.417 92.9688C64.1748 93.5381 64.1201 94.1299 64.2139 94.7373C64.2646 95.0625 64.3799 95.3604 64.5566 95.627C64.6455 95.7607 64.75 95.8857 64.8701 96.002C65.1641 96.2852 65.5117 96.4883 65.8936 96.624C66.249 96.7578 66.6143 96.834 66.9951 96.8203C67.2256 96.8096 67.4512 96.8125 67.6777 96.8145L67.9648 96.8164Z" fill="#39974A"/>
</svg>
