<svg width="144" height="132" viewBox="0 0 144 132" fill="none" xmlns="http://www.w3.org/2000/svg">
<path d="M84.3431 12.448C84.3431 19.32 78.7681 24.885 71.9021 24.885C65.0241 24.885 59.4541 19.321 59.4541 12.448C59.4541 5.57 65.0241 1.34605e-07 71.9021 1.34605e-07C78.7681 -0.000999865 84.3431 5.57 84.3431 12.448Z" fill="#39974A"/>
<path d="M71.9015 27.0518C64.7065 27.0518 57.9115 28.7588 51.8955 31.7878C55.9885 38.5498 63.4165 43.0708 71.9015 43.0708C80.3805 43.0708 87.8045 38.5489 91.8955 31.7869C85.8835 28.7579 79.0915 27.0518 71.9015 27.0518Z" fill="#39974A"/>
<path d="M136.079 93.3113C136.079 100.184 130.504 105.748 123.638 105.748C116.76 105.748 111.19 100.185 111.19 93.3113C111.19 86.4353 116.76 80.8643 123.638 80.8643C130.504 80.8643 136.079 86.4353 136.079 93.3113Z" fill="#39974A"/>
<path d="M123.639 107.917C116.444 107.917 109.649 109.623 103.633 112.653C107.726 119.415 115.154 123.936 123.639 123.936C132.118 123.936 139.542 119.412 143.633 112.65C137.62 109.621 130.829 107.917 123.639 107.917Z" fill="#39974A"/>
<path d="M32.8665 93.3113C32.8665 100.184 27.2915 105.748 20.4255 105.748C13.5475 105.748 7.97754 100.185 7.97754 93.3113C7.97754 86.4353 13.5475 80.8643 20.4255 80.8643C27.2915 80.8643 32.8665 86.4353 32.8665 93.3113Z" fill="#39974A"/>
<path d="M20.4259 107.917C13.2309 107.917 6.43592 109.623 0.419922 112.653C4.51392 119.415 11.9399 123.936 20.4259 123.936C28.9049 123.936 36.3289 119.412 40.4199 112.65C34.4069 109.621 27.6149 107.917 20.4259 107.917Z" fill="#39974A"/>
<path d="M126.466 71.0522H130.366C130.048 49.7782 118.377 31.2552 101.137 21.2812V25.8423C116.14 35.3793 126.163 52.0332 126.466 71.0522Z" fill="#D1D4D3" stroke="#D1D4D3" stroke-width="2" stroke-miterlimit="10" stroke-linecap="round" stroke-linejoin="round"/>
<path d="M71.8961 126.524C63.0091 126.524 54.6191 124.399 47.2051 120.63V124.965C54.7071 128.465 63.0721 130.423 71.8961 130.423C80.9761 130.423 89.5741 128.354 97.2401 124.662V120.292C89.6651 124.27 81.0461 126.524 71.8961 126.524Z" fill="#D1D4D3" stroke="#D1D4D3" stroke-width="2" stroke-miterlimit="10" stroke-linecap="round" stroke-linejoin="round"/>
<path d="M42.6551 25.8423V21.2812C25.1751 31.3933 13.4131 50.2922 13.4131 71.9382H17.3111C17.3121 52.5522 27.4211 35.5273 42.6551 25.8423Z" fill="#D1D4D3" stroke="#D1D4D3" stroke-width="2" stroke-miterlimit="10" stroke-linecap="round" stroke-linejoin="round"/>
<path d="M40.4199 32.3828C44.5621 32.3828 47.9199 29.0249 47.9199 24.8828C47.9199 20.7407 44.5621 17.3828 40.4199 17.3828C36.2778 17.3828 32.9199 20.7407 32.9199 24.8828C32.9199 29.0249 36.2778 32.3828 40.4199 32.3828Z" fill="#D1D4D3"/>
<path d="M15.6025 75.2842C19.7447 75.2842 23.1025 71.9263 23.1025 67.7842C23.1025 63.642 19.7447 60.2842 15.6025 60.2842C11.4604 60.2842 8.10254 63.642 8.10254 67.7842C8.10254 71.9263 11.4604 75.2842 15.6025 75.2842Z" fill="#D1D4D3"/>
<path d="M103.633 32.3828C107.775 32.3828 111.133 29.0249 111.133 24.8828C111.133 20.7407 107.775 17.3828 103.633 17.3828C99.4907 17.3828 96.1328 20.7407 96.1328 24.8828C96.1328 29.0249 99.4907 32.3828 103.633 32.3828Z" fill="#D1D4D3"/>
<path d="M128.58 75.2842C132.722 75.2842 136.08 71.9263 136.08 67.7842C136.08 63.642 132.722 60.2842 128.58 60.2842C124.438 60.2842 121.08 63.642 121.08 67.7842C121.08 71.9263 124.438 75.2842 128.58 75.2842Z" fill="#D1D4D3"/>
<path d="M52.1553 131.857C56.2974 131.857 59.6553 128.5 59.6553 124.357C59.6553 120.215 56.2974 116.857 52.1553 116.857C48.0131 116.857 44.6553 120.215 44.6553 124.357C44.6553 128.5 48.0131 131.857 52.1553 131.857Z" fill="#D1D4D3"/>
<path d="M92.6377 131.857C96.7798 131.857 100.138 128.5 100.138 124.357C100.138 120.215 96.7798 116.857 92.6377 116.857C88.4956 116.857 85.1377 120.215 85.1377 124.357C85.1377 128.5 88.4956 131.857 92.6377 131.857Z" fill="#D1D4D3"/>
</svg>
