<svg width="140" height="74" viewBox="0 0 140 74" fill="none" xmlns="http://www.w3.org/2000/svg">
<path fill-rule="evenodd" clip-rule="evenodd" d="M33.1676 12.9925C30.5754 12.3774 27.9307 12.0366 25.2516 11.8861C25.0446 11.8736 24.8389 11.8503 24.6337 11.8272C24.515 11.8138 24.3964 11.8004 24.2777 11.7891H19.9364C19.7581 11.8034 19.58 11.8175 19.4019 11.8317C18.7629 11.8825 18.125 11.9332 17.4854 11.9901C12.6036 12.4195 7.87384 13.4434 3.50678 15.7606C2.75308 16.1614 2.04452 16.6484 1.33643 17.1351C1.01467 17.3563 0.693021 17.5774 0.367272 17.7903C0.0995409 17.9666 0 18.1985 0 18.5329C0.00657272 20.4145 0.0060355 22.2956 0.00549832 24.1766C0.00483821 26.488 0.00417814 28.7993 0.016711 31.1112C0.0480305 36.9154 1.38515 42.3665 4.45345 47.3433C6.48619 50.6379 9.07407 53.4385 12.0555 55.889C14.9758 58.2889 18.1633 60.2722 21.5201 61.9948C21.6431 62.0573 21.7584 62.1362 21.873 62.2144C21.9175 62.2448 21.9619 62.2752 22.0066 62.3044H22.205C22.2682 62.2648 22.3306 62.2238 22.3929 62.1829C22.5324 62.0912 22.6718 61.9996 22.8198 61.9235C27.0328 59.7549 30.9664 57.1781 34.405 53.8926C35.758 52.6002 36.9853 51.2357 38.0776 49.7938C34.7301 42.7484 33.2287 35.198 33.1859 27.2533C33.1649 23.3753 33.166 19.4982 33.1671 15.621C33.1673 14.7448 33.1676 13.8687 33.1676 12.9925Z" fill="white"/>
<path fill-rule="evenodd" clip-rule="evenodd" d="M102.213 50.1719C103.86 52.2825 105.756 54.1717 107.845 55.889C110.766 58.2889 113.953 60.2722 117.31 61.9948C117.433 62.0573 117.548 62.1362 117.663 62.2144C117.707 62.2448 117.752 62.2752 117.796 62.3044H117.995C118.058 62.2648 118.121 62.2238 118.183 62.1829C118.322 62.0912 118.462 61.9996 118.61 61.9235C122.823 59.7549 126.756 57.1781 130.195 53.8926C134.781 49.5119 137.923 44.3023 139.255 38.0586C139.823 35.3949 140.007 32.6964 139.994 29.9766C139.978 26.1789 139.985 22.3816 140 18.5829C140.003 18.2116 139.879 17.9772 139.6 17.7564C137.505 16.0864 135.127 14.9493 132.622 14.0668C128.875 12.7448 124.996 12.1083 121.042 11.8861C120.835 11.8736 120.629 11.8503 120.424 11.8272C120.305 11.8138 120.186 11.8004 120.068 11.7891H115.726C115.548 11.8034 115.37 11.8175 115.192 11.8317C114.553 11.8825 113.915 11.9332 113.275 11.9901C111.252 12.1681 109.255 12.4482 107.298 12.8802C107.29 17.0372 107.291 21.1935 107.309 25.3502C107.331 29.9125 107.021 34.4391 106.07 38.9073C105.216 42.909 103.919 46.6575 102.213 50.1719Z" fill="white"/>
<path fill-rule="evenodd" clip-rule="evenodd" d="M70.7058 73.6843C70.6093 73.6843 70.5143 73.6843 70.4163 73.6843C70.1835 73.5318 69.9558 73.3594 69.7067 73.2326C64.8104 70.72 60.1608 67.8271 55.9012 64.3264C51.5523 60.752 47.7775 56.6669 44.8124 51.8612C40.3369 44.6018 38.3865 36.6506 38.3408 28.1842C38.3076 22.0677 38.3378 15.9541 38.3164 9.83686C38.3164 9.34907 38.4616 9.01086 38.8521 8.7537C40.373 7.7597 41.8326 6.64338 43.4316 5.79306C49.8016 2.41316 56.7006 0.919588 63.8215 0.293271C65.0144 0.187166 66.203 0.0957896 67.3967 0C69.5078 0 71.6181 0 73.7291 0C74.2014 0.0449474 74.673 0.112738 75.1497 0.141475C80.9177 0.465686 86.5767 1.39411 92.0411 3.32243C95.6951 4.60969 99.1635 6.26833 102.22 8.70433C102.627 9.02633 102.807 9.36822 102.804 9.9098C102.781 15.4509 102.771 20.9897 102.795 26.5293C102.814 30.4965 102.545 34.4327 101.717 38.318C99.7743 47.4254 95.1911 55.0245 88.5013 61.4144C83.4856 66.2068 77.7479 69.9654 71.6026 73.1287C71.2902 73.2893 71.0043 73.4971 70.7058 73.6843ZM67.3023 40.7408C67.0246 40.4792 66.8492 40.3252 66.6834 40.1579C64.3926 37.8715 62.1084 35.5836 59.8101 33.2994C58.6577 32.1536 57.2813 32.1463 56.1318 33.2766C55.0538 34.3362 53.9876 35.4046 52.9295 36.487C51.8515 37.5856 51.8441 38.9657 52.9325 40.057C57.0956 44.2327 61.2684 48.4017 65.4433 52.5634C66.5316 53.6488 67.942 53.6672 69.0156 52.5634C76.1423 45.2495 83.2557 37.9231 90.3596 30.5878C91.3897 29.5253 91.3367 28.1224 90.2919 27.0561C89.306 26.0422 88.2987 25.0497 87.298 24.0491C85.8862 22.6358 84.6085 22.6439 83.2225 24.083C78.1508 29.3521 73.0792 34.6176 68.0105 39.8897C67.7644 40.1462 67.5529 40.4365 67.3023 40.7408Z" fill="white"/>
</svg>
