<svg width="150" height="24" viewBox="0 0 150 24" fill="none" xmlns="http://www.w3.org/2000/svg">
<path fill-rule="evenodd" clip-rule="evenodd" d="M12.2707 19.0422C10.3172 20.4469 8.44194 21.8481 6.50149 23.1514C6.04876 23.4553 5.3731 23.4271 4.8003 23.5517C4.68082 22.9193 4.34401 22.2344 4.48247 21.6646C4.89932 19.9462 5.40362 18.2343 6.06151 16.5942C6.60051 15.2512 6.44071 14.4012 5.13561 13.6342C3.77566 12.8346 2.49428 11.8743 1.28524 10.8576C0.726083 10.3871 0.420703 9.6151 0 8.98004C0.697911 8.68297 1.37923 8.18518 2.09582 8.12915C3.73416 8.00047 5.39651 7.99425 7.03574 8.11551C8.46002 8.22106 9.24511 7.85016 9.56086 6.33723C9.89529 4.73447 10.426 3.15512 11.0456 1.63656C11.3068 0.996758 12.016 0.540184 12.5221 0C12.9873 0.523285 13.6472 0.971858 13.8814 1.58409C14.5355 3.29506 15.0496 5.06326 15.5471 6.82879C15.8083 7.75588 16.2547 8.15346 17.272 8.11166C19.2344 8.03072 21.2062 8.0236 23.1657 8.13004C23.7637 8.16265 24.3359 8.66755 24.9196 8.95603C24.614 9.52556 24.4408 10.2588 23.978 10.6335C22.5517 11.7877 21.0515 12.8624 19.5071 13.8547C18.5198 14.4901 18.3606 15.1349 18.773 16.2189C19.4235 17.9307 19.9429 19.6995 20.4022 21.4745C20.5561 22.069 20.3562 22.755 20.318 23.399C19.556 23.3219 18.6396 23.4888 18.0597 23.1227C16.0831 21.8757 14.2253 20.4416 12.2707 19.0422Z" fill="white"/>
<path fill-rule="evenodd" clip-rule="evenodd" d="M43.45 19.042C41.4905 20.4476 39.612 21.8484 37.668 23.1509C37.2147 23.4547 36.5379 23.4257 35.9639 23.5502C35.8485 22.9226 35.5198 22.2424 35.657 21.6765C36.0739 19.9587 36.569 18.2432 37.2307 16.6061C37.7777 15.253 37.596 14.4 36.3016 13.6351C34.9974 12.8645 33.7578 11.9558 32.6036 10.9733C31.9973 10.4568 31.6344 9.65306 31.1621 8.97916C31.9244 8.68209 32.675 8.16978 33.4515 8.12887C35.6558 8.01205 37.8708 8.08795 40.1377 8.08795C40.8395 5.85072 41.4286 3.71311 42.2071 1.64636C42.4485 1.00597 43.2051 0.559175 43.7257 0.0234375C44.1849 0.552059 44.8416 1.00834 45.0673 1.62264C45.8286 3.69651 46.4379 5.827 47.1539 8.08795C49.4483 8.08795 51.7247 8.01769 53.9922 8.12916C54.7105 8.16444 55.4049 8.68625 56.1102 8.9848C55.6913 9.62075 55.3865 10.3913 54.8297 10.8645C53.674 11.8455 52.4359 12.7539 51.1356 13.5313C49.8462 14.3021 49.3979 15.1142 50.0484 16.6046C50.7021 18.1039 51.1421 19.7093 51.5388 21.302C51.7033 21.9617 51.5115 22.71 51.4819 23.418C50.6657 23.2982 49.7015 23.415 49.0617 23.0145C47.1361 21.8078 45.3367 20.3992 43.45 19.042Z" fill="white"/>
<path fill-rule="evenodd" clip-rule="evenodd" d="M74.8119 19.0503C72.9168 20.4043 71.1112 21.7894 69.1975 23.0056C68.6054 23.3818 67.721 23.2976 66.9703 23.4245C66.9395 22.7156 66.7592 21.9735 66.9096 21.3059C67.1998 20.015 67.533 18.6957 68.1073 17.5145C69.0854 15.5041 68.7812 14.1133 66.7065 13.0789C65.6993 12.5769 64.7716 11.8523 63.9359 11.0886C63.2949 10.5019 62.8543 9.69605 62.3242 8.98776C63.1475 8.68743 63.959 8.17749 64.7971 8.12916C66.9371 8.00524 69.089 8.08795 71.3025 8.08795C72.0031 5.86317 72.5954 3.7309 73.3713 1.668C73.6135 1.02376 74.3533 0.56629 74.865 0.0234375C75.3322 0.543461 75.9957 0.988176 76.2288 1.59744C76.8819 3.30753 77.4013 5.07306 77.8837 6.84096C78.1443 7.79711 78.622 8.14636 79.6202 8.109C81.5811 8.03636 83.5512 8.02302 85.5091 8.12946C86.1089 8.16207 86.6829 8.66579 87.2691 8.95308C86.9658 9.52172 86.7956 10.2555 86.3342 10.6276C84.9073 11.7791 83.403 12.8444 81.8631 13.8414C80.8888 14.4714 80.697 15.1305 81.1094 16.2115C81.7388 17.8629 82.2858 19.5575 82.6997 21.2747C82.8666 21.9688 82.59 22.7693 82.5153 23.5215C81.8385 23.3445 81.0629 23.3213 80.5019 22.9626C78.589 21.7396 76.7518 20.398 74.8119 19.0503Z" fill="white"/>
<path fill-rule="evenodd" clip-rule="evenodd" d="M105.974 19.0397C104.102 20.3843 102.447 21.6647 100.691 22.7869C100.042 23.2011 99.1568 23.2426 98.3794 23.4543C98.3587 22.6879 98.1618 21.8752 98.3492 21.164C98.9122 19.0338 99.6258 16.9436 100.31 14.7434C98.5309 13.4618 96.7431 12.2693 95.0802 10.9224C94.4858 10.4407 94.1949 9.58413 93.7656 8.89897C94.4692 8.62769 95.1605 8.16874 95.8792 8.12279C97.6441 8.00924 99.4254 8.01279 101.192 8.11241C102.371 8.17912 102.874 7.73647 103.163 6.62408C103.624 4.85351 104.19 3.10281 104.848 1.39628C105.058 0.853129 105.695 0.126461 106.144 0.121124C106.604 0.115788 107.293 0.807173 107.497 1.34113C108.196 3.16685 108.648 5.08833 109.369 6.90426C109.574 7.41895 110.352 7.99323 110.904 8.03206C112.856 8.16963 114.829 8.00983 116.784 8.13346C117.412 8.17319 118.007 8.74124 118.618 9.06796C118.278 9.61911 118.057 10.3221 117.577 10.6944C116.081 11.8569 114.423 12.8175 112.969 14.0257C112.494 14.4191 112.137 15.4064 112.273 15.9958C112.712 17.8974 113.47 19.724 113.962 21.6164C114.109 22.1818 113.988 23.2026 113.632 23.4149C113.203 23.6713 112.268 23.4789 111.768 23.1507C109.819 21.872 107.954 20.4622 105.974 19.0397Z" fill="white"/>
<path fill-rule="evenodd" clip-rule="evenodd" d="M137.338 19.0404C135.43 20.4108 133.665 21.7488 131.818 22.9623C131.266 23.3251 130.485 23.3388 129.809 23.5125C129.732 22.8229 129.458 22.085 129.615 21.4538C130.055 19.6782 130.595 17.9174 131.247 16.2082C131.661 15.1219 131.481 14.4824 130.499 13.8515C128.957 12.8609 127.46 11.7874 126.034 10.6367C125.569 10.2614 125.387 9.53533 125.076 8.96964C125.646 8.67465 126.203 8.15848 126.788 8.12498C128.681 8.01736 130.589 8.00372 132.482 8.11697C133.742 8.19198 134.264 7.70635 134.561 6.53704C135.013 4.7638 135.558 3.00449 136.219 1.29944C136.422 0.774974 137.089 0.213147 137.625 0.116792C137.956 0.0571995 138.637 0.769339 138.82 1.26209C139.505 3.09492 140.102 4.9657 140.622 6.85279C140.892 7.83413 141.391 8.13417 142.373 8.10067C144.333 8.03366 146.301 8.02032 148.258 8.12972C148.852 8.16292 149.42 8.67376 149.999 8.96579C149.684 9.52495 149.499 10.2552 149.029 10.6115C147.47 11.7963 145.846 12.9084 144.171 13.9247C143.23 14.496 143.03 15.0999 143.387 16.0994C143.984 17.7641 144.56 19.4433 144.992 21.1552C145.172 21.8682 144.96 22.6806 144.926 23.4476C144.191 23.2641 143.345 23.2525 142.741 22.8644C140.935 21.7013 139.224 20.3912 137.338 19.0404Z" fill="white"/>
</svg>
