<svg width="100" height="100" viewBox="0 0 100 100" fill="none" xmlns="http://www.w3.org/2000/svg">
<path fill-rule="evenodd" clip-rule="evenodd" d="M100 49.9912C100.012 77.5423 77.6021 99.9581 50.0261 99.9751C22.4521 99.9951 0.0510866 77.635 8.65789e-05 50.044C-0.0509134 22.465 22.4361 -0.0329637 50.0241 3.6257e-05C77.6101 0.0340363 99.9871 22.4162 100 49.9912ZM50.0401 27.1221C40.7431 27.1221 31.4441 27.1201 22.1451 27.1241C19.9361 27.1251 19.0471 28.028 19.0471 30.251C19.0451 43.394 19.0471 56.5362 19.0511 69.6802C19.0511 71.9422 19.9711 72.877 22.2171 72.878C40.7421 72.882 59.2681 72.882 77.7951 72.878C80.0181 72.877 80.9571 71.9112 80.9571 69.6612C80.9581 56.5872 80.9581 43.515 80.9571 30.441C80.9571 27.943 80.1391 27.1251 77.6191 27.1241C68.4271 27.1201 59.2331 27.1221 50.0401 27.1221Z" fill="#39974A"/>
<path fill-rule="evenodd" clip-rule="evenodd" d="M27.8447 32.2598C42.6787 32.2598 57.3098 32.2598 72.1028 32.2598C71.8468 32.5648 71.6788 32.7985 71.4778 32.9995C64.6928 39.8065 57.9078 46.6096 51.1198 53.4126C50.1508 54.3826 49.8268 54.3924 48.8798 53.4424C42.0208 46.5624 35.1688 39.6765 28.3138 32.7935C28.1938 32.6735 28.0887 32.5388 27.8447 32.2598Z" fill="#39974A"/>
<path fill-rule="evenodd" clip-rule="evenodd" d="M27.3887 67.6343C31.9007 62.5443 36.2967 57.5849 40.8007 52.5049C42.2757 53.9999 43.7066 55.4601 45.1466 56.9131C48.2966 60.0991 51.6616 60.1059 54.8296 56.9419C56.2846 55.4899 57.7436 54.0432 59.2396 52.5552C63.6846 57.5662 68.0867 62.5283 72.6167 67.6333C57.5027 67.6343 42.5527 67.6343 27.3887 67.6343Z" fill="#39974A"/>
<path fill-rule="evenodd" clip-rule="evenodd" d="M62.8721 48.9438C67.2271 44.6298 71.4891 40.4072 75.7781 36.1572C75.7781 45.1632 75.7781 54.2018 75.7781 63.4858C71.4011 58.5538 67.1531 53.7678 62.8721 48.9438Z" fill="#39974A"/>
<path fill-rule="evenodd" clip-rule="evenodd" d="M24.2197 36.1426C28.5337 40.4176 32.7978 44.6406 37.1298 48.9316C32.8718 53.7326 28.6197 58.5287 24.2197 63.4927C24.2197 54.2317 24.2197 45.1946 24.2197 36.1426Z" fill="#39974A"/>
</svg>
