<svg width="140" height="115" viewBox="0 0 140 115" fill="none" xmlns="http://www.w3.org/2000/svg">
<path d="M110.83 74.6504C104.933 88.6024 91.1206 98.3865 75.0286 98.3865H74.6476L74.6387 100.188H75.0297C91.8697 100.188 106.321 89.9483 112.495 75.3513L110.83 74.6504Z" fill="#D1D4D3" stroke="#D1D4D3" stroke-width="4" stroke-miterlimit="10"/>
<path d="M43.4695 43.9998C46.5535 32.6988 54.6174 23.4426 65.1484 18.7476L64.4144 17.0996C53.3904 22.0176 44.9635 31.6966 41.7285 43.5256L43.4695 43.9998Z" fill="#D1D4D3" stroke="#D1D4D3" stroke-width="4" stroke-miterlimit="10"/>
<path d="M80.5714 92.293L76.9545 98.5779L78.9604 105.544L64.0625 97.001L80.5714 92.293Z" fill="#D1D4D3"/>
<path d="M62.0433 26.0435L62.7404 18.8225L58.0273 13.3125L75.1233 14.9194L62.0433 26.0435Z" fill="#D1D4D3"/>
<path d="M42.0938 48.2021C43.4745 48.2021 44.5938 47.0829 44.5938 45.7021C44.5938 44.3214 43.4745 43.2021 42.0938 43.2021C40.713 43.2021 39.5938 44.3214 39.5938 45.7021C39.5938 47.0829 40.713 48.2021 42.0938 48.2021Z" fill="#D1D4D3" stroke="#D1D4D3" stroke-width="2.8817" stroke-miterlimit="10"/>
<path d="M112.668 75.6709C114.049 75.6709 115.168 74.5516 115.168 73.1709C115.168 71.7902 114.049 70.6709 112.668 70.6709C111.287 70.6709 110.168 71.7902 110.168 73.1709C110.168 74.5516 111.287 75.6709 112.668 75.6709Z" fill="#D1D4D3" stroke="#D1D4D3" stroke-width="2.8817" stroke-miterlimit="10"/>
<path fill-rule="evenodd" clip-rule="evenodd" d="M32.77 114.798C30.499 114.798 28.2309 114.798 25.9609 114.798C25.8129 114.766 25.656 114.716 25.506 114.706C23.267 114.531 21.017 114.425 18.787 114.185C15.031 113.779 11.3229 113.105 7.74293 111.828C5.82793 111.138 3.99094 110.3 2.42994 108.938C1.20494 107.869 0.41693 106.58 0.41993 104.866C0.43193 91.0905 0.432015 77.3134 0.432015 63.5354C0.432015 63.2364 0.452943 62.9333 0.507943 62.6453C0.797943 61.0943 1.79 60.0314 2.99 59.1284C4.743 57.8054 6.74398 56.9863 8.81898 56.3313C13.341 54.9273 17.996 54.2915 22.699 53.9395C23.789 53.8555 24.875 53.7753 25.959 53.6953C28.229 53.6953 30.496 53.6953 32.768 53.6953C32.942 53.7323 33.1119 53.7715 33.2889 53.7815C35.5079 53.9615 37.734 54.0705 39.945 54.3125C43.605 54.7065 47.213 55.3633 50.707 56.5603C52.824 57.2863 54.857 58.1793 56.543 59.7063C57.674 60.7203 58.4199 61.9354 58.4199 63.5354C58.4119 77.2894 58.42 91.0414 58.412 104.805C58.412 105.137 58.4 105.485 58.348 105.813C58.069 107.407 57.041 108.5 55.809 109.428C54.088 110.717 52.125 111.528 50.09 112.17C45.574 113.596 40.912 114.205 36.205 114.551C35.065 114.64 33.912 114.716 32.77 114.798ZM4.29493 68.6675C4.29093 68.7825 4.27296 68.9385 4.27296 69.0955C4.27296 71.5785 4.32801 74.0663 4.25501 76.5503C4.22101 77.6263 4.63397 78.3303 5.51197 78.7793C6.62897 79.3353 7.75595 79.9003 8.93495 80.2983C14.5559 82.2153 20.395 82.8283 26.294 83.0483C30.929 83.2183 35.554 83.0523 40.161 82.4463C43.811 81.9693 47.4269 81.3094 50.8619 79.9524C51.8739 79.5574 52.827 79.0114 53.772 78.4624C54.35 78.1244 54.59 77.5603 54.579 76.8503C54.55 74.2843 54.5749 71.7194 54.5709 69.1514C54.5709 68.9654 54.55 68.7824 54.536 68.5374C53.964 68.8154 53.47 69.0674 52.968 69.2954C52.46 69.5214 51.947 69.7393 51.427 69.9253C45.882 71.8963 40.1109 72.5873 34.2789 72.9153C29.9289 73.1533 25.578 73.0705 21.233 72.6775C17.193 72.3205 13.1829 71.7415 9.29493 70.5315C7.61393 70.0095 5.98893 69.3105 4.29493 68.6675ZM54.566 82.5503C53.109 83.1253 51.742 83.7685 50.316 84.2295C45.121 85.9175 39.738 86.5545 34.313 86.8445C27.821 87.1945 21.358 86.9143 14.948 85.7903C11.356 85.1613 7.82801 84.3043 4.57801 82.5903C4.50201 82.5403 4.39996 82.5375 4.27296 82.5105C4.27296 85.2735 4.29697 87.9973 4.26197 90.7253C4.25497 91.5103 4.535 92.0984 5.167 92.4734C5.985 92.9614 6.82003 93.4384 7.70203 93.7834C12.023 95.4934 16.573 96.2163 21.174 96.6313C28.227 97.2793 35.27 97.1443 42.282 96.0583C45.507 95.5583 48.686 94.8613 51.688 93.5513C52.481 93.2023 53.241 92.7415 53.938 92.2305C54.245 92.0055 54.536 91.5163 54.542 91.1443C54.59 88.2823 54.566 85.4193 54.566 82.5503ZM4.27198 96.4065C4.27198 99.1395 4.31197 101.798 4.25697 104.458C4.23797 105.447 4.59095 106.14 5.41395 106.564C6.50295 107.126 7.60995 107.696 8.76295 108.098C14.1039 109.963 19.667 110.569 25.277 110.839C30.373 111.086 35.457 110.902 40.515 110.241C43.99 109.795 47.425 109.148 50.699 107.869C51.762 107.453 52.7709 106.878 53.7629 106.307C54.3489 105.977 54.589 105.407 54.577 104.695C54.556 102.131 54.573 99.5625 54.569 97.0015C54.569 96.8115 54.548 96.6244 54.538 96.4624C53.181 97.0144 51.889 97.6393 50.546 98.0823C44.944 99.9293 39.1459 100.56 33.2999 100.821C28.2799 101.035 23.2789 100.858 18.2999 100.229C14.6499 99.7595 11.035 99.1063 7.56995 97.8293C6.47995 97.4293 5.42598 96.9115 4.27198 96.4065ZM29.4459 69.1985C35.1429 69.1395 40.809 68.7545 46.364 67.4175C48.667 66.8665 50.946 66.2124 53.018 65.0344C55.065 63.8864 55.091 62.8044 53.022 61.7234C51.709 61.0374 50.315 60.4924 48.898 60.0374C44.346 58.5824 39.637 58.0054 34.885 57.7314C27.91 57.3204 20.973 57.5944 14.108 58.9614C11.591 59.4534 9.11502 60.1284 6.78101 61.2104C6.08601 61.5354 5.411 61.9494 4.818 62.4304C4.09 63.0264 4.10501 63.6845 4.80201 64.3035C5.23601 64.6765 5.71097 65.0514 6.23597 65.2544C8.13997 65.9794 10.043 66.7674 12.007 67.2734C17.719 68.7754 23.5689 69.1345 29.4459 69.1985Z" fill="#39974A"/>
<path fill-rule="evenodd" clip-rule="evenodd" d="M113.516 61.1008C111.247 61.1008 108.977 61.1008 106.71 61.1008C106.562 61.0688 106.405 61.0188 106.255 61.0078C104.015 60.8328 101.765 60.7268 99.536 60.4868C95.78 60.0808 92.071 59.4069 88.491 58.1309C86.577 57.4409 84.739 56.603 83.178 55.241C81.953 54.172 81.166 52.8839 81.168 51.1699C81.18 37.3939 81.1799 23.6159 81.1799 9.83887C81.1799 9.53987 81.201 9.237 81.256 8.948C81.547 7.398 82.539 6.33488 83.738 5.43188C85.492 4.10888 87.492 3.28999 89.568 2.63599C94.089 1.23099 98.744 0.595896 103.447 0.243896C104.539 0.159896 105.625 0.08 106.709 0C108.976 0 111.246 0 113.515 0C113.689 0.037 113.861 0.0759375 114.039 0.0859375C116.258 0.265938 118.482 0.374943 120.693 0.616943C124.353 1.01194 127.961 1.66899 131.455 2.86499C133.574 3.59199 135.605 4.48399 137.293 6.01099C138.424 7.02599 139.168 8.23984 139.168 9.83984C139.162 23.5938 139.168 37.3459 139.162 51.1099C139.162 51.4419 139.15 51.7899 139.096 52.1179C138.816 53.7119 137.791 54.8059 136.559 55.7329C134.839 57.0219 132.874 57.8329 130.839 58.4749C126.323 59.9009 121.663 60.51 116.956 60.856C115.811 60.943 114.661 61.0188 113.516 61.1008ZM85.041 14.97C85.037 15.085 85.02 15.2409 85.02 15.3979C85.02 17.8809 85.075 20.3698 85.002 22.8528C84.967 23.9288 85.3809 24.6328 86.2579 25.0808C87.3749 25.6378 88.502 26.2018 89.682 26.6008C95.303 28.5168 101.141 29.1298 107.039 29.3508C111.676 29.5208 116.301 29.3548 120.908 28.7488C124.558 28.2718 128.174 27.6129 131.607 26.2549C132.619 25.8609 133.574 25.3139 134.517 24.7649C135.095 24.4269 135.336 23.8628 135.324 23.1528C135.295 20.5868 135.322 18.0209 135.318 15.4539C135.318 15.2679 135.295 15.0848 135.283 14.8398C134.709 15.1178 134.217 15.3699 133.715 15.5979C133.205 15.8239 132.691 16.0418 132.172 16.2278C126.629 18.1978 120.856 18.8898 115.023 19.2178C110.676 19.4558 106.324 19.373 101.979 18.981C97.938 18.624 93.928 18.045 90.041 16.835C88.362 16.312 86.737 15.613 85.041 14.97ZM135.315 28.8528C133.856 29.4278 132.489 30.071 131.063 30.532C125.868 32.22 120.487 32.857 115.061 33.147C108.566 33.497 102.106 33.2168 95.6959 32.0928C92.1039 31.4638 88.575 30.6068 85.325 28.8928C85.249 28.8428 85.147 28.84 85.02 28.813C85.02 31.576 85.0429 34.2998 85.0079 37.0278C85.0019 37.8128 85.2809 38.4009 85.9139 38.7759C86.7319 39.2649 87.566 39.7409 88.449 40.0859C92.769 41.7959 97.3199 42.5189 101.92 42.9329C108.974 43.5809 116.017 43.4469 123.027 42.3599C126.252 41.8599 129.431 41.163 132.435 39.854C133.226 39.505 133.988 39.043 134.685 38.532C134.99 38.307 135.283 37.8188 135.287 37.4458C135.336 34.5848 135.315 31.7218 135.315 28.8528ZM85.02 42.709C85.02 45.442 85.059 48.101 85.004 50.761C84.986 51.749 85.338 52.443 86.162 52.866C87.25 53.429 88.357 53.9979 89.51 54.3999C94.852 56.2649 100.414 56.8709 106.025 57.1409C111.119 57.3879 116.203 57.204 121.264 56.543C124.737 56.097 128.174 55.4499 131.446 54.1709C132.509 53.7559 133.518 53.1799 134.51 52.6089C135.096 52.2789 135.336 51.7079 135.324 50.9958C135.303 48.4319 135.322 45.863 135.318 43.302C135.318 43.112 135.295 42.9259 135.285 42.7629C133.93 43.3159 132.639 43.9408 131.293 44.3828C125.693 46.2288 119.892 46.8608 114.047 47.1218C109.027 47.3358 104.025 47.1598 99.047 46.5298C95.397 46.0598 91.783 45.4069 88.316 44.1309C87.227 43.7309 86.172 43.214 85.02 42.709ZM110.191 15.501C115.889 15.442 121.555 15.057 127.111 13.72C129.414 13.169 131.693 12.5149 133.765 11.3369C135.812 10.1889 135.838 9.10686 133.769 8.02686C132.455 7.34086 131.06 6.79482 129.646 6.34082C125.091 4.88582 120.384 4.30889 115.63 4.03589C108.657 3.62489 101.72 3.89889 94.855 5.26489C92.337 5.75689 89.861 6.43092 87.527 7.51392C86.832 7.83892 86.158 8.25289 85.564 8.73389C84.837 9.32989 84.851 9.98793 85.548 10.6069C85.981 10.9799 86.458 11.3549 86.981 11.5579C88.886 12.2829 90.7879 13.0709 92.7529 13.5769C98.4649 15.0779 104.316 15.437 110.191 15.501Z" fill="#39974A"/>
<path fill-rule="evenodd" clip-rule="evenodd" d="M112.918 61.1008C110.647 61.1008 108.379 61.1008 106.109 61.1008C105.961 61.0688 105.804 61.0188 105.654 61.0078C103.416 60.8328 101.166 60.7268 98.9353 60.4868C95.1793 60.0808 91.4723 59.4069 87.8923 58.1309C85.9763 57.4409 84.1403 56.603 82.5803 55.241C81.3553 54.172 80.5663 52.8839 80.5703 51.1699C80.5823 37.3939 80.5824 23.6159 80.5824 9.83887C80.5824 9.53987 80.6033 9.237 80.6583 8.948C80.9473 7.398 81.9394 6.33488 83.1404 5.43188C84.8924 4.10888 86.8944 3.28999 88.9684 2.63599C93.4914 1.23099 98.1464 0.595896 102.849 0.243896C103.939 0.159896 105.024 0.08 106.109 0C108.379 0 110.646 0 112.918 0C113.092 0.037 113.262 0.0759375 113.439 0.0859375C115.658 0.265938 117.884 0.374943 120.095 0.616943C123.755 1.01194 127.363 1.66899 130.856 2.86499C132.973 3.59199 135.007 4.48399 136.692 6.01099C137.823 7.02599 138.569 8.23984 138.569 9.83984C138.561 23.5938 138.569 37.3459 138.561 51.1099C138.561 51.4419 138.549 51.7899 138.497 52.1179C138.218 53.7119 137.19 54.8059 135.958 55.7329C134.237 57.0219 132.274 57.8329 130.239 58.4749C125.723 59.9009 121.061 60.51 116.354 60.856C115.213 60.943 114.061 61.0188 112.918 61.1008ZM84.4444 14.97C84.4404 15.085 84.4214 15.2409 84.4214 15.3979C84.4214 17.8809 84.4753 20.3698 84.4033 22.8528C84.3703 23.9288 84.7824 24.6328 85.6614 25.0808C86.7784 25.6378 87.9054 26.2018 89.0834 26.6008C94.7044 28.5168 100.544 29.1298 106.442 29.3508C111.077 29.5208 115.702 29.3548 120.309 28.7488C123.96 28.2718 127.575 27.6129 131.01 26.2549C132.022 25.8609 132.975 25.3139 133.92 24.7649C134.498 24.4269 134.738 23.8628 134.726 23.1528C134.697 20.5868 134.722 18.0209 134.718 15.4539C134.718 15.2679 134.697 15.0848 134.683 14.8398C134.111 15.1178 133.617 15.3699 133.115 15.5979C132.607 15.8239 132.094 16.0418 131.574 16.2278C126.029 18.1978 120.258 18.8898 114.426 19.2178C110.076 19.4558 105.725 19.373 101.379 18.981C97.3404 18.624 93.3304 18.045 89.4414 16.835C87.7624 16.312 86.1374 15.613 84.4444 14.97ZM134.715 28.8528C133.258 29.4278 131.891 30.071 130.465 30.532C125.27 32.22 119.887 32.857 114.461 33.147C107.969 33.497 101.506 33.2168 95.0963 32.0928C91.5043 31.4638 87.9773 30.6068 84.7273 28.8928C84.6513 28.8428 84.5484 28.84 84.4214 28.813C84.4214 31.576 84.4464 34.2998 84.4114 37.0278C84.4034 37.8128 84.6843 38.4009 85.3153 38.7759C86.1333 39.2649 86.9694 39.7409 87.8504 40.0859C92.1724 41.7959 96.7214 42.5189 101.323 42.9329C108.376 43.5809 115.419 43.4469 122.43 42.3599C125.655 41.8599 128.834 41.163 131.836 39.854C132.629 39.505 133.389 39.043 134.086 38.532C134.392 38.307 134.683 37.8188 134.69 37.4458C134.739 34.5848 134.715 31.7218 134.715 28.8528ZM84.4203 42.709C84.4203 45.442 84.4614 48.101 84.4064 50.761C84.3864 51.749 84.7404 52.443 85.5624 52.866C86.6524 53.429 87.7574 53.9979 88.9124 54.3999C94.2524 56.2649 99.8164 56.8709 105.426 57.1409C110.522 57.3879 115.606 57.204 120.664 56.543C124.139 56.097 127.574 55.4499 130.848 54.1709C131.911 53.7559 132.92 53.1799 133.912 52.6089C134.498 52.2789 134.738 51.7079 134.726 50.9958C134.705 48.4319 134.722 45.863 134.718 43.302C134.718 43.112 134.697 42.9259 134.687 42.7629C133.33 43.3159 132.039 43.9408 130.695 44.3828C125.093 46.2288 119.295 46.8608 113.449 47.1218C108.429 47.3358 103.428 47.1598 98.4494 46.5298C94.7994 46.0598 91.1834 45.4069 87.7194 44.1309C86.6294 43.7309 85.5753 43.214 84.4203 42.709ZM109.594 15.501C115.291 15.442 120.957 15.057 126.512 13.72C128.815 13.169 131.094 12.5149 133.166 11.3369C135.213 10.1889 135.238 9.10686 133.17 8.02686C131.857 7.34086 130.463 6.79482 129.047 6.34082C124.494 4.88582 119.785 4.30889 115.033 4.03589C108.058 3.62489 101.121 3.89889 94.2564 5.26489C91.7404 5.75689 89.2643 6.43092 86.9303 7.51392C86.2343 7.83892 85.5593 8.25289 84.9673 8.73389C84.2383 9.32989 84.2543 9.98793 84.9513 10.6069C85.3853 10.9799 85.8594 11.3549 86.3854 11.5579C88.2894 12.2829 90.1914 13.0709 92.1554 13.5769C97.8684 15.0779 103.717 15.437 109.594 15.501Z" fill="#39974A"/>
</svg>
