<svg width="150" height="150" viewBox="0 0 150 150" fill="none" xmlns="http://www.w3.org/2000/svg">
<path d="M108.989 130.655V122.979H111.797C112.702 122.979 113.456 123.274 114.065 123.863C114.672 124.451 114.977 125.204 114.977 126.126V127.509C114.977 128.434 114.672 129.188 114.065 129.775C113.456 130.362 112.702 130.656 111.797 130.656H108.989V130.655ZM110.77 124.35V129.284H111.797C112.202 129.284 112.536 129.119 112.797 128.788C113.059 128.458 113.19 128.032 113.19 127.508V126.115C113.19 125.598 113.059 125.176 112.797 124.844C112.536 124.514 112.202 124.348 111.797 124.348H110.77V124.35Z" fill="#D1D4D3"/>
<path d="M129.401 128.066L129.411 128.097C129.424 128.972 129.179 129.635 128.671 130.087C128.163 130.538 127.442 130.764 126.511 130.764C125.564 130.764 124.802 130.475 124.226 129.895C123.652 129.315 123.365 128.556 123.365 127.618V126.016C123.365 125.08 123.642 124.322 124.195 123.741C124.749 123.158 125.48 122.867 126.39 122.867C127.365 122.867 128.117 123.094 128.65 123.547C129.181 124 129.441 124.66 129.427 125.525L129.411 125.556H127.677C127.677 125.085 127.577 124.747 127.376 124.545C127.175 124.34 126.847 124.239 126.39 124.239C125.99 124.239 125.683 124.399 125.468 124.721C125.253 125.042 125.146 125.47 125.146 126.004V127.617C125.146 128.154 125.265 128.585 125.499 128.908C125.736 129.232 126.072 129.393 126.511 129.393C126.919 129.393 127.214 129.291 127.394 129.087C127.576 128.883 127.667 128.542 127.667 128.065H129.401V128.066Z" fill="#D1D4D3"/>
<path d="M20.5742 61.0393V53.3633H23.3853C24.2873 53.3633 25.0423 53.6571 25.6503 54.2441C26.2593 54.8331 26.5623 55.5903 26.5623 56.5093V57.8914C26.5623 58.8164 26.2593 59.5712 25.6503 60.1582C25.0423 60.7442 24.2873 61.0393 23.3853 61.0393H20.5742ZM22.3573 54.7341V59.6692H23.3843C23.7883 59.6692 24.1203 59.5043 24.3823 59.1743C24.6443 58.8433 24.7753 58.4163 24.7753 57.8933V56.5012C24.7753 55.9842 24.6443 55.5612 24.3823 55.2302C24.1203 54.8992 23.7883 54.7341 23.3843 54.7341H22.3573Z" fill="#D1D4D3"/>
<path fill-rule="evenodd" clip-rule="evenodd" d="M85.3314 15.459C85.7584 15.547 86.1904 15.6171 86.6144 15.7271C88.5344 16.2201 90.2154 17.1989 91.7294 18.4299C93.4794 19.8529 95.2154 21.3111 96.8274 22.8911C101.442 27.4211 105.983 32.0259 110.569 36.5879C112.856 38.8649 115.149 41.137 117.21 43.626C118.515 45.206 119.706 46.8631 120.474 48.7871C120.888 49.8221 121.124 50.895 121.124 52.012C121.126 73.413 121.157 94.817 121.103 116.218C121.087 121.578 118.898 126.066 114.898 129.64C112.138 132.107 108.892 133.551 105.232 134.054C104.462 134.162 103.679 134.21 102.904 134.21C84.6034 134.221 66.3044 134.244 48.0064 134.201C42.4884 134.189 37.8825 132.005 34.2365 127.856C31.8905 125.187 30.4964 122.064 29.9684 118.559C29.8554 117.805 29.7984 117.036 29.7964 116.271C29.7884 88.691 29.7754 61.1091 29.8024 33.5281C29.8084 28.3441 31.8374 23.9699 35.5814 20.4109C38.3624 17.7689 41.6924 16.2069 45.4834 15.6379C45.9524 15.5679 46.4263 15.519 46.8973 15.46C59.7083 15.459 72.5204 15.459 85.3314 15.459ZM38.9074 74.8049C38.9074 88.5449 38.9074 102.285 38.9114 116.025C38.9114 116.441 38.9424 116.857 39.0034 117.264C39.7224 121.848 43.4804 125.073 48.1444 125.075C66.3414 125.082 84.5404 125.078 102.74 125.081C104.22 125.081 105.646 124.807 106.951 124.106C110.232 122.344 111.978 119.577 111.984 115.853C112.009 96.121 111.996 76.3889 111.996 56.6589C111.996 56.5709 111.994 56.483 111.99 56.397C111.914 54.419 111.025 53.2251 109.15 52.5901C107.74 52.1141 106.273 52.024 104.806 52.019C99.6424 51.998 94.4824 52.0091 89.3204 52.0051C86.5864 52.0041 84.5834 50.0041 84.5834 47.2781C84.5834 42.7941 84.5974 38.3109 84.5754 33.8269C84.5694 32.2729 84.5164 30.7161 84.4174 29.1621C84.3554 28.1721 84.1303 27.1981 83.6163 26.3281C82.9543 25.2031 82.0244 24.5661 80.6494 24.5691C69.8724 24.5901 59.0964 24.5851 48.3214 24.5911C47.9564 24.5911 47.5924 24.6099 47.2294 24.6389C42.5434 25.0349 38.9094 28.994 38.9074 33.697C38.9074 47.399 38.9074 61.1019 38.9074 74.8049Z" fill="#39974A"/>
<path fill-rule="evenodd" clip-rule="evenodd" d="M75.2184 90.7349C70.2964 88.4509 65.3764 86.1629 60.4564 83.8779C59.7634 83.5569 59.0834 83.205 58.3724 82.927C57.7144 82.669 57.4854 82.235 57.4854 81.543C57.5034 75.338 57.4954 69.1339 57.4974 62.9299C57.4974 61.6799 58.0634 61.3029 59.2124 61.8059C64.4074 64.0819 69.6013 66.3589 74.7823 68.6599C75.2803 68.8809 75.6653 68.8689 76.1573 68.6509C80.5163 66.7109 84.8874 64.7999 89.2554 62.8799C89.4684 62.7849 89.6743 62.678 90.0173 62.512C88.8573 61.981 87.8284 61.509 86.7964 61.04C83.2474 59.425 79.6924 57.82 76.1514 56.187C75.6594 55.958 75.2624 55.96 74.7704 56.187C71.4054 57.742 68.0224 59.267 64.6454 60.801C64.4504 60.891 64.2523 60.996 64.0433 61.052C63.5003 61.197 63.0514 61.049 62.8264 60.509C62.5974 59.962 62.8244 59.5281 63.3184 59.2781C64.0464 58.9091 64.8043 58.5939 65.5483 58.2539C68.7693 56.7809 71.9924 55.306 75.2164 53.832C75.3784 53.832 75.5424 53.832 75.7064 53.832C76.5194 54.214 77.3253 54.6031 78.1423 54.9771C82.9313 57.1551 87.7204 59.332 92.5154 61.498C93.0544 61.743 93.4353 62.0259 93.4333 62.6919C93.4234 69.0309 93.4254 75.3719 93.4333 81.7109C93.4333 82.2719 93.2064 82.637 92.6974 82.863C91.8494 83.239 91.0114 83.633 90.1704 84.022C85.3504 86.259 80.5274 88.4979 75.7074 90.7349C75.5444 90.7349 75.3804 90.7349 75.2184 90.7349ZM76.4194 88.187C76.7864 88.038 77.0114 87.9569 77.2284 87.8569C81.7324 85.7759 86.2284 83.681 90.7444 81.625C91.3034 81.371 91.4924 81.0851 91.4884 80.4751C91.4634 75.2851 91.4724 70.0919 91.4724 64.9009C91.4724 64.6589 91.4724 64.417 91.4724 64.064C91.1364 64.203 90.8884 64.2971 90.6444 64.4041C85.9024 66.4841 81.1564 68.5539 76.4254 70.6609C75.7364 70.9679 75.1654 70.9519 74.4884 70.6509C69.7544 68.5469 65.0074 66.475 60.2654 64.395C60.0274 64.29 59.7835 64.2011 59.4865 64.0811C59.4705 64.3221 59.4554 64.456 59.4554 64.592C59.4534 69.946 59.4615 75.302 59.4395 80.658C59.4395 81.155 59.6324 81.3661 60.0524 81.5591C64.6344 83.6631 69.2085 85.7869 73.7885 87.9009C73.9915 87.9959 74.2143 88.0511 74.5063 88.1521C74.5063 85.0741 74.5063 82.1251 74.5063 79.1741C74.5063 77.7811 74.4935 76.3869 74.5125 74.9939C74.5245 74.2719 74.9504 73.848 75.5514 73.925C76.2314 74.013 76.4224 74.473 76.4204 75.095C76.4124 77.636 76.4183 80.177 76.4183 82.719C76.4193 84.491 76.4194 86.263 76.4194 88.187Z" fill="#39974A"/>
<path d="M68.7614 108.674L68.7794 108.726C68.8004 110.143 68.4004 111.218 67.5784 111.949C66.7564 112.681 65.5904 113.046 64.0824 113.046C62.5454 113.046 61.3123 112.577 60.3813 111.637C59.4513 110.698 58.9854 109.468 58.9854 107.949V105.353C58.9854 103.84 59.4344 102.611 60.3314 101.669C61.2284 100.727 62.4134 100.256 63.8884 100.256C65.4644 100.256 66.6834 100.623 67.5464 101.359C68.4074 102.092 68.8274 103.16 68.8064 104.56L68.7814 104.611H65.9703C65.9703 103.849 65.8084 103.302 65.4844 102.971C65.1604 102.641 64.6284 102.476 63.8884 102.476C63.2384 102.476 62.7404 102.737 62.3944 103.257C62.0464 103.778 61.8734 104.471 61.8734 105.336V107.948C61.8734 108.819 62.0644 109.516 62.4454 110.04C62.8264 110.564 63.3734 110.825 64.0844 110.825C64.7444 110.825 65.2214 110.661 65.5144 110.329C65.8074 109.999 65.9534 109.448 65.9534 108.673H68.7614V108.674Z" fill="#39974A"/>
<path d="M76.8807 110.449H73.1837L72.4668 112.865H69.4277L73.4828 100.435H75.0277V100.444L75.0358 100.435H76.5828L80.6467 112.865H77.6057L76.8807 110.449ZM73.8497 108.23H76.2147L75.0527 104.373H75.0017L73.8497 108.23Z" fill="#39974A"/>
<path d="M81.5322 112.865V100.435H86.0833C87.5463 100.435 88.7692 100.91 89.7552 101.865C90.7392 102.817 91.2323 104.04 91.2323 105.532V107.768C91.2323 109.266 90.7402 110.489 89.7552 111.44C88.7692 112.39 87.5463 112.865 86.0833 112.865H81.5322ZM84.4193 102.655V110.646H86.0833C86.7383 110.646 87.2773 110.38 87.7003 109.844C88.1243 109.31 88.3373 108.617 88.3373 107.769V105.517C88.3373 104.679 88.1243 103.994 87.7003 103.458C87.2763 102.923 86.7373 102.654 86.0833 102.654H84.4193V102.655Z" fill="#39974A"/>
<path fill-rule="evenodd" clip-rule="evenodd" d="M85.7359 16.0898C85.6017 16.0641 85.4674 16.0383 85.3335 16.0107H84.4729C71.9469 16.0107 59.4237 16.0107 46.8986 16.0117C46.7787 16.0262 46.6586 16.0403 46.5384 16.0543C46.1866 16.0955 45.8341 16.1368 45.4845 16.1897C41.6935 16.7577 38.3635 18.3196 35.5835 20.9626C31.8375 24.5206 29.8086 28.8958 29.8046 34.0798C29.7785 58.8347 29.7871 83.5919 29.7956 108.347C29.7966 111.172 29.7975 113.998 29.7985 116.823C29.8005 117.588 29.8555 118.357 29.9685 119.111C30.4985 122.617 31.8926 125.74 34.2366 128.409C37.8826 132.558 42.4885 134.742 48.0065 134.755C55.9255 134.772 63.8415 134.778 71.7605 134.778C79.1373 134.778 86.5167 134.773 93.8954 134.768C96.8993 134.766 99.903 134.763 102.906 134.762C103.679 134.762 104.463 134.713 105.233 134.606C108.893 134.103 112.139 132.659 114.9 130.191C118.9 126.617 121.09 122.128 121.104 116.769C121.143 101.091 121.137 85.4122 121.131 69.7338C121.129 64.01 121.126 58.2863 121.126 52.5627C121.126 51.4457 120.89 50.3716 120.474 49.3376C119.706 47.4136 118.516 45.7568 117.211 44.1768C115.199 41.7471 112.966 39.5232 110.735 37.3015L110.572 37.1387C108.888 35.4639 107.21 33.7835 105.533 32.1031C102.641 29.2062 99.7495 26.3096 96.8275 23.4426C95.2175 21.8626 93.4816 20.4047 91.7316 18.9817C90.2186 17.7497 88.5345 16.7698 86.6145 16.2778C86.3252 16.2029 86.0307 16.1464 85.7359 16.0898ZM106.952 124.659C105.647 125.358 104.221 125.632 102.741 125.632C97.1862 125.631 91.6313 125.631 86.0767 125.631C73.4324 125.63 60.7895 125.63 48.1465 125.625C43.4805 125.624 39.7245 122.399 39.0055 117.814C38.9425 117.407 38.9136 116.99 38.9136 116.575C38.9088 105.56 38.9091 94.5442 38.9094 83.529C38.9095 80.8048 38.9095 78.0807 38.9095 75.3567V34.2478C38.9115 29.5448 42.5455 25.5867 47.2295 25.1897C47.5925 25.1597 47.9575 25.1406 48.3215 25.1406C51.5285 25.1388 54.7352 25.138 57.9418 25.1372C65.5109 25.1353 73.0795 25.1334 80.6495 25.1187H80.6586H80.6595C82.0285 25.1187 82.9575 25.7557 83.6185 26.8777C84.1305 27.7487 84.3555 28.7226 84.4195 29.7136C84.5165 31.2656 84.5715 32.8217 84.5775 34.3767C84.5921 37.6411 84.5897 40.9046 84.5873 44.1681C84.5864 45.3883 84.5856 46.6086 84.5856 47.8289C84.5856 50.5549 86.5854 52.5547 89.3194 52.5547C90.3689 52.5557 91.4186 52.5557 92.4681 52.5557H92.5386H96.4305C99.2225 52.5557 102.015 52.5578 104.807 52.5698C106.272 52.5748 107.741 52.6626 109.151 53.1406C111.024 53.7736 111.913 54.9708 111.991 56.9468C111.993 57.0338 111.995 57.1217 111.995 57.2097C111.995 62.247 111.996 67.284 111.997 72.321C112 87.0159 112.002 101.71 111.984 116.405C111.978 120.128 110.231 122.895 106.952 124.659Z" fill="#39974A"/>
<path fill-rule="evenodd" clip-rule="evenodd" d="M119.909 130.698C120.872 129.583 121.711 128.405 122.421 127.173V127.507C122.421 128.451 122.12 129.231 121.523 129.844C121.084 130.293 120.546 130.578 119.909 130.698Z" fill="#D1D4D3"/>
<path fill-rule="evenodd" clip-rule="evenodd" d="M125.315 115.968C125.318 115.061 125.32 114.154 125.322 113.245H131.054V115.968H125.315Z" fill="#D1D4D3"/>
<path fill-rule="evenodd" clip-rule="evenodd" d="M125.328 109.845C125.33 108.938 125.331 108.031 125.333 107.123H131.053V109.845H125.328Z" fill="#D1D4D3"/>
<path fill-rule="evenodd" clip-rule="evenodd" d="M125.337 103.725C125.338 102.818 125.339 101.91 125.34 101.002H131.053V103.725H125.337Z" fill="#D1D4D3"/>
<path fill-rule="evenodd" clip-rule="evenodd" d="M25.009 43.6309C25.0084 44.5372 25.0078 45.4439 25.0072 46.3508H18.9492V43.6309H25.009Z" fill="#D1D4D3"/>
<path fill-rule="evenodd" clip-rule="evenodd" d="M25.0141 37.5088C25.0132 38.4153 25.0124 39.3223 25.0117 40.2297H18.9492V37.5088H25.0141Z" fill="#D1D4D3"/>
<path fill-rule="evenodd" clip-rule="evenodd" d="M25.1172 31.3857C25.0517 32.1 25.0186 32.8259 25.018 33.563C25.0178 33.7449 25.0176 33.9267 25.0174 34.1086H18.9492V31.3857H25.1172Z" fill="#D1D4D3"/>
<path fill-rule="evenodd" clip-rule="evenodd" d="M37.7141 0.0528973C37.6255 0.0359729 37.5368 0.0190403 37.4483 0.000976562L36.8682 0.000976586C28.4246 0.000977099 19.98 0.000977612 11.5373 0C11.4466 0.0112 11.3554 0.0220597 11.2641 0.0329403C11.0374 0.0599474 10.8096 0.0870834 10.5843 0.119873C8.02933 0.504873 5.78342 1.55687 3.90843 3.33887C1.38443 5.73687 0.0153446 8.68691 0.0133446 12.1809C-0.00734316 29.6668 0.000294299 47.1526 0.00793131 64.6368L0.00937731 67.9639C0.00937731 68.4789 0.0463534 68.9981 0.122353 69.5071C0.479353 71.8711 1.41932 73.9759 3.00132 75.7759C5.45832 78.5729 8.56333 80.045 12.2823 80.052C16.5219 80.062 20.7613 80.0669 25.0007 80.0687C25.0004 78.0159 25.0002 75.9607 25.0001 73.9038C20.793 73.9036 16.586 73.9031 12.3794 73.9021C9.23537 73.9001 6.70139 71.726 6.21739 68.635C6.17439 68.36 6.1544 68.079 6.1544 67.8C6.1504 58.536 6.15037 49.274 6.15037 40.011C6.15037 30.773 6.15042 21.5329 6.15342 12.2959C6.15542 9.1269 8.60638 6.45694 11.7644 6.18994C12.0084 6.17094 12.2543 6.15894 12.5003 6.15894C15.0282 6.15685 17.556 6.15587 20.0838 6.15489C24.8206 6.15305 29.5573 6.15122 34.2944 6.14209C35.2204 6.14109 35.8494 6.5701 36.2944 7.3291C36.6404 7.9161 36.7924 8.57199 36.8334 9.23999C36.9014 10.286 36.9364 11.336 36.9404 12.385C36.9425 12.8317 36.9441 13.2783 36.9453 13.7249C39.2518 12.4743 41.7857 11.6385 44.524 11.228C44.912 11.169 45.303 11.1229 45.694 11.0769L46.064 11.033C46.246 11.011 46.428 11 46.611 11H51.2167C51.1633 10.9465 51.1099 10.893 51.0565 10.8396C49.11 8.89015 47.1637 6.94101 45.1983 5.01099C44.1123 3.94699 42.9424 2.96391 41.7604 2.00391C40.7414 1.17291 39.6063 0.513908 38.3133 0.180908C38.1156 0.129564 37.915 0.0912516 37.7141 0.0528973Z" fill="#D1D4D3"/>
<path fill-rule="evenodd" clip-rule="evenodd" d="M125.629 69.7378L125.629 69.6152H125.863C125.958 69.6351 126.054 69.6536 126.15 69.6721L126.15 69.6721C126.343 69.7095 126.537 69.747 126.728 69.7952C128.023 70.1272 129.156 70.7882 130.177 71.6172C131.357 72.5762 132.527 73.5602 133.613 74.6262C135.615 76.5902 137.595 78.5745 139.576 80.5594C140.675 81.661 141.775 82.7628 142.879 83.8613L142.998 83.9797L142.998 83.9798C144.499 85.4742 146.001 86.9694 147.356 88.6052C148.235 89.6712 149.038 90.7872 149.555 92.0842C149.836 92.7812 149.994 93.5053 149.994 94.2583C149.994 97.6196 149.996 100.981 149.997 104.342V104.342V104.342C150.001 115.41 150.006 126.477 149.978 137.545C149.97 141.158 148.494 144.183 145.796 146.593C143.935 148.256 141.745 149.23 139.278 149.569C138.758 149.641 138.231 149.674 137.71 149.674C135.67 149.675 133.631 149.677 131.592 149.678H131.592H131.592C121.293 149.685 110.995 149.692 100.698 149.668C96.9766 149.66 93.8737 148.188 91.4147 145.39C89.8675 143.629 88.933 141.574 88.5605 139.268L88.5719 139.268L94.2009 139.265L94.2692 139.265L94.8727 139.264C95.698 141.806 98.0056 143.514 100.793 143.516C107.937 143.519 115.082 143.519 122.228 143.519C127.352 143.519 132.476 143.518 137.6 143.519C138.598 143.519 139.559 143.334 140.44 142.862C142.651 141.674 143.829 139.808 143.831 137.299C143.844 127.123 143.843 116.95 143.842 106.776C143.841 103.648 143.841 100.52 143.841 97.3914C143.841 97.332 143.839 97.2734 143.837 97.2151L143.837 97.2131C143.784 95.8811 143.187 95.0742 141.923 94.6492C140.972 94.3272 139.984 94.2652 138.995 94.2622C136.673 94.2522 134.351 94.2529 132.03 94.2535H132.029H132.029H132.029C130.87 94.2538 129.712 94.2542 128.554 94.2532C127.202 94.2532 126.116 93.5288 125.633 92.418C125.635 84.7942 125.632 77.2044 125.629 69.7378Z" fill="#D1D4D3"/>
</svg>
