<svg width="40" height="40" viewBox="0 0 40 40" fill="none" xmlns="http://www.w3.org/2000/svg">
<path d="M20 40C31.0457 40 40 31.0457 40 20C40 8.9543 31.0457 0 20 0C8.9543 0 0 8.9543 0 20C0 31.0457 8.9543 40 20 40Z" fill="#DC4335"/>
<path fill-rule="evenodd" clip-rule="evenodd" d="M21.3046 13.7292C20.4816 14.6472 19.7346 15.4782 19.0016 16.2952C16.1656 14.5032 13.8036 14.5242 11.7856 16.3072C9.93156 17.9482 9.37655 20.6452 10.4296 22.8922C11.4796 25.1272 13.8406 26.4132 16.2146 26.0382C18.4136 25.6922 20.0306 24.2622 20.2676 22.3472C19.0916 22.3472 17.9266 22.3472 16.7626 22.3472C15.2886 22.3472 15.2886 22.3472 15.2886 20.8762C15.2886 19.1692 15.2886 19.1692 16.9736 19.1692C18.9596 19.1692 20.9486 19.2112 22.9326 19.1482C23.7076 19.1242 23.9586 19.3982 23.9966 20.1182C24.2856 25.7222 20.4996 29.8932 14.6666 29.4742C10.0516 29.1442 6.66356 25.5222 6.36656 20.7792C6.10956 16.6532 9.18455 12.6742 13.4166 11.7392C16.1876 11.1282 18.7196 11.7062 20.9556 13.4852C21.1086 13.6032 21.2726 13.7062 21.3046 13.7292Z" fill="white"/>
<path d="M31.216 16.6748H28.418V24.3298H31.216V16.6748Z" fill="white"/>
<path d="M33.6443 19.1035H25.9883V21.9025H33.6443V19.1035Z" fill="white"/>
</svg>
