<svg width="40" height="40" viewBox="0 0 40 40" fill="none" xmlns="http://www.w3.org/2000/svg">
<path d="M20 40C31.0457 40 40 31.0457 40 20C40 8.9543 31.0457 0 20 0C8.9543 0 0 8.9543 0 20C0 31.0457 8.9543 40 20 40Z" fill="#3C5A99"/>
<path d="M17.1614 13.15C17.1614 13.69 17.1614 16.1002 17.1614 16.1002H15V19.7078H17.1614V30.4282H21.6015V19.7081H24.581C24.581 19.7081 24.8601 17.9783 24.9953 16.0869C24.6075 16.0869 21.6183 16.0869 21.6183 16.0869C21.6183 16.0869 21.6183 13.9881 21.6183 13.6203C21.6183 13.2516 22.1024 12.7557 22.5809 12.7557C23.0585 12.7557 24.0664 12.7557 25 12.7557C25 12.2645 25 10.5674 25 9C23.7537 9 22.3358 9 21.7108 9C17.0517 8.99975 17.1614 12.6109 17.1614 13.15Z" fill="white"/>
</svg>
