<svg width="40" height="40" viewBox="0 0 40 40" fill="none" xmlns="http://www.w3.org/2000/svg">
<path d="M20 40C31.0457 40 40 31.0457 40 20C40 8.9543 31.0457 0 20 0C8.9543 0 0 8.9543 0 20C0 31.0457 8.9543 40 20 40Z" fill="white"/>
<path fill-rule="evenodd" clip-rule="evenodd" d="M20.9531 13.2273C20.1301 14.1453 19.382 14.9773 18.65 15.7933C15.814 14.0013 13.4521 14.0223 11.4341 15.8053C9.58006 17.4463 9.0251 20.1433 10.0781 22.3903C11.1281 24.6253 13.489 25.9113 15.863 25.5353C18.062 25.1893 19.679 23.7593 19.916 21.8443C18.74 21.8443 17.575 21.8443 16.411 21.8443C14.937 21.8443 14.937 21.8443 14.937 20.3733C14.937 18.6663 14.937 18.6663 16.622 18.6663C18.608 18.6663 20.597 18.7083 22.581 18.6443C23.356 18.6203 23.607 18.8943 23.645 19.6143C23.934 25.2183 20.148 29.3902 14.315 28.9712C9.70004 28.6402 6.31199 25.0183 6.01499 20.2753C5.75799 16.1493 8.83304 12.1713 13.065 11.2353C15.836 10.6243 18.368 11.2023 20.604 12.9813C20.757 13.1013 20.9211 13.2043 20.9531 13.2273Z" fill="#DC4335"/>
<path d="M30.8634 16.1729H28.0664V23.8279H30.8634V16.1729Z" fill="#DC4335"/>
<path d="M33.2927 18.6016H25.6367V21.3995H33.2927V18.6016Z" fill="#DC4335"/>
</svg>
