<svg width="131" height="140" viewBox="0 0 131 140" fill="none" xmlns="http://www.w3.org/2000/svg">
<path d="M96.6234 91.605C113.059 82.611 125.609 75.7382 126.752 75.1152C130.158 73.2502 133.725 68.4919 126.752 64.6909C124.51 63.4639 112.297 56.8061 96.6053 48.2461L75.0234 69.9922L96.6234 91.605Z" fill="#FFE300"/>
<path d="M75.0221 69.9922L5.99512 139.547C7.55312 139.744 9.43006 139.332 11.5861 138.151C16.0491 135.708 63.9982 109.462 96.6232 91.604L75.0221 69.9922Z" fill="#FF4E54"/>
<path d="M75.0222 69.9927L96.6042 48.2466C96.6042 48.2466 16.3873 4.48033 11.5873 1.86133C9.74128 0.853331 7.72827 0.502441 5.94727 0.898441L75.0222 69.9927Z" fill="#00F085"/>
<path d="M75.0219 69.9927L5.94482 0.900391C3.09082 1.53739 0.753906 4.00575 0.753906 8.96875C0.753906 17.0317 0.753906 124.488 0.753906 131.257C0.753906 135.931 2.59387 139.218 5.99487 139.546L75.0219 69.9927Z" fill="#00E0FF"/>
</svg>
