<svg width="1920" height="600" viewBox="0 0 1920 600" fill="none" xmlns="http://www.w3.org/2000/svg">
<mask id="mask0" mask-type="alpha" maskUnits="userSpaceOnUse" x="0" y="0" width="1920" height="600">
<path d="M1920 0H0V600H1920V0Z" fill="#39974A"/>
</mask>
<g mask="url(#mask0)">
<path d="M205.617 87.8807C211.731 99.8007 204.721 115.714 190.038 123.245L-21.7441 231.858C-36.4261 239.388 -53.4401 235.796 -59.5541 223.875C-65.6681 211.954 -58.6571 196.042 -43.9751 188.511L167.807 79.8967C182.489 72.3667 199.503 75.9577 205.617 87.8807Z" fill="#99C562"/>
<path d="M2077.85 397.596C2083.99 409.563 2077 425.516 2062.32 433.046L1849.49 542.198C1834.81 549.727 1817.78 546.096 1811.64 534.129C1805.5 522.161 1812.49 506.209 1827.17 498.679L2040 389.527C2054.68 381.998 2071.72 385.628 2077.85 397.596Z" fill="#74AC51"/>
<path d="M1965.44 409.748C1967.47 413.711 1963.93 419.626 1957.57 422.889L1761.87 523.253C1755.51 526.516 1748.64 525.942 1746.61 521.977C1744.57 518.013 1748.11 512.099 1754.48 508.835L1950.17 408.472C1956.53 405.209 1963.4 405.784 1965.44 409.748Z" fill="#99C562"/>
<path d="M2086.44 -62.2626C2096.79 -42.0666 2087.25 -16.3016 2065.23 -5.00657L1696.05 184.326C1674.03 195.62 1647.54 188.337 1637.18 168.14C1626.82 147.944 1636.37 122.179 1658.39 110.885L2027.56 -78.4486C2049.59 -89.7426 2076.08 -82.4596 2086.44 -62.2626Z" fill="#74AC51"/>
<path d="M2024.18 43.8202C2028.14 51.5372 2023.37 61.9572 2013.58 66.9772L1650.53 253.166C1640.74 258.185 1629.5 255.981 1625.54 248.266C1621.58 240.552 1626.35 230.132 1636.14 225.113L1999.19 38.9182C2008.98 33.8992 2020.23 36.1052 2024.18 43.8202Z" fill="#99C562"/>
<path d="M766.646 560.221C770.76 568.243 766.117 578.912 756.33 583.932L613.494 657.185C603.706 662.205 592.332 659.749 588.218 651.728C584.104 643.707 588.746 633.037 598.534 628.017L741.371 554.764C751.159 549.744 762.533 552.2 766.646 560.221Z" fill="#99C562"/>
<path d="M350.193 56.7236C352.528 61.2776 349.235 67.6736 342.872 70.9366L130.712 179.744C124.35 183.007 117.233 181.951 114.898 177.396C112.562 172.842 115.856 166.447 122.218 163.185L334.379 54.3746C340.741 51.1136 347.857 52.1696 350.193 56.7236Z" fill="#74AC51"/>
<path d="M283.134 447.86C284.513 450.55 281.638 454.806 276.744 457.315L155.546 519.473C150.652 521.982 145.519 521.834 144.139 519.146C142.759 516.456 145.634 512.2 150.528 509.691L271.727 447.533C276.622 445.023 281.755 445.17 283.134 447.86Z" fill="#99C562"/>
<path d="M1132.3 -35.6424C1133.68 -32.9514 1130.81 -28.6974 1125.91 -26.1874L1004.72 35.9696C999.822 38.4796 994.689 38.3316 993.309 35.6426C991.929 32.9526 994.804 28.6976 999.698 26.1876L1120.9 -35.9684C1125.79 -38.4794 1130.92 -38.3324 1132.3 -35.6424Z" fill="#74AC51"/>
</g>
</svg>
