<svg width="141" height="142" viewBox="0 0 141 142" fill="none" xmlns="http://www.w3.org/2000/svg">
<path d="M91.9797 98.9814L81.7197 93.4014H81.7227L91.9827 98.9834L91.9797 98.9814Z" fill="#2F7C3D"/>
<path d="M91.9827 98.9834L81.7217 93.4014C81.8307 93.4124 83.1037 93.5515 84.0267 94.0535L94.2877 99.6345C93.3647 99.1325 92.0927 98.9944 91.9827 98.9834Z" fill="#2D773A"/>
<path d="M90.5579 99.1824L80.2969 93.6003L81.7198 93.4014L91.9799 98.9814L90.5579 99.1824Z" fill="#2F7C3D"/>
<path d="M70.7141 101.972L60.4531 96.3896L80.2971 93.6006L90.5581 99.1826L70.7141 101.972Z" fill="#2F7C3D"/>
<path d="M80.5364 96.9502L70.2754 91.3691C71.8114 89.9861 73.1624 88.3633 74.2704 86.5723L84.5314 92.1533C83.4234 93.9453 82.0724 95.5692 80.5364 96.9502Z" fill="#9FA1A0"/>
<path d="M84.5315 92.1533L74.2705 86.5723C75.7925 84.1103 76.8555 81.3282 77.3105 78.4092L87.5705 83.9902C87.1165 86.9102 86.0535 89.6913 84.5315 92.1533Z" fill="#999B9A"/>
<path d="M104.775 49.0034L94.5146 43.4224C95.3926 43.5164 96.2786 43.4985 97.1516 43.3765C97.7926 43.2855 98.4287 43.1395 99.0497 42.9375L109.311 48.5205C108.69 48.7215 108.055 48.8685 107.413 48.9575C106.54 49.0805 105.654 49.0984 104.775 49.0034Z" fill="#ABAEAD"/>
<path d="M109.311 48.5195L99.0498 42.9365C100.594 42.4365 102.051 41.6026 103.301 40.4766L113.562 46.0583C112.312 47.1843 110.855 48.0185 109.311 48.5195Z" fill="#A5A7A7"/>
<path d="M113.563 46.0593L103.302 40.4775C104.135 39.7285 104.876 38.8515 105.492 37.8535L115.753 43.4365C115.137 44.4315 114.396 45.3093 113.563 46.0593Z" fill="#9FA1A0"/>
<path d="M115.752 43.436L105.491 37.853C105.666 37.57 105.831 37.2769 105.986 36.9749C108.805 31.4399 106.93 24.8121 101.834 22.0391L112.094 27.6208C117.19 30.3918 119.065 37.0199 116.246 42.5559C116.093 42.8589 115.928 43.153 115.752 43.436Z" fill="#999B9A"/>
<path d="M73.5657 101.027L63.3047 95.4453C65.8657 94.6203 68.2337 93.2061 70.2757 91.3691L80.5367 96.9502C78.4957 98.7872 76.1267 100.201 73.5657 101.027Z" fill="#A5A7A7"/>
<path d="M80.5364 96.9502L70.2754 91.3691C71.8114 89.9861 73.1624 88.3633 74.2704 86.5723L84.5314 92.1533C83.4234 93.9453 82.0724 95.5692 80.5364 96.9502Z" fill="#9FA1A0"/>
<path d="M107.816 41.7112L97.5547 36.1292C97.7637 36.1002 97.9677 36.0533 98.1667 35.9883L108.428 41.5691C108.23 41.6341 108.025 41.6822 107.816 41.7112Z" fill="#2F7C3D"/>
<path d="M108.429 41.5698L98.168 35.989C98.71 35.813 99.211 35.512 99.644 35.124L109.905 40.7061C109.472 41.0951 108.971 41.3948 108.429 41.5698Z" fill="#2D773A"/>
<path d="M109.904 40.7056L99.6426 35.1235C99.9686 34.8305 100.256 34.4855 100.492 34.1055L110.752 39.6865C110.518 40.0675 110.23 40.4116 109.904 40.7056Z" fill="#2B7338"/>
<path d="M110.753 39.6877L100.493 34.1067C100.931 33.3977 101.19 32.5646 101.192 31.7046C101.194 30.3136 100.524 29.1887 99.5117 28.6387L109.773 34.2197C110.785 34.7707 111.455 35.8947 111.453 37.2847C111.45 38.1457 111.191 38.9797 110.753 39.6877Z" fill="#2A6E36"/>
<path d="M70.7024 108.441L60.4414 102.858L61.1544 102.759L71.4154 108.34L70.7024 108.441Z" fill="#2F7C3D"/>
<path d="M107.82 39.6118L97.5586 34.031C97.6556 34.018 97.7506 33.9948 97.8436 33.9648L108.105 39.5469C108.013 39.5749 107.917 39.5978 107.82 39.6118Z" fill="#ABAEAD"/>
<path d="M108.105 39.5457L97.8438 33.9636C98.0967 33.8816 98.3307 33.7406 98.5327 33.5596L108.793 39.1416C108.593 39.3226 108.358 39.4637 108.105 39.5457Z" fill="#A5A7A7"/>
<path d="M108.794 39.1418L98.5342 33.5598C98.6862 33.4238 98.8202 33.263 98.9302 33.085L109.191 38.667C109.08 38.845 108.946 39.0048 108.794 39.1418Z" fill="#9FA1A0"/>
<path d="M109.19 38.6667L98.9288 33.0847C99.1318 32.7577 99.2518 32.3736 99.2518 31.9756C99.2538 31.3346 98.9388 30.8097 98.4658 30.5527L108.727 36.1348C109.2 36.3918 109.515 36.9166 109.514 37.5576C109.513 37.9546 109.393 38.3387 109.19 38.6667Z" fill="#999B9A"/>
<path d="M106.921 39.4561L96.6602 33.875C96.8192 33.961 96.9952 34.0169 97.1832 34.0359L107.444 39.6169C107.256 39.5979 107.079 39.5421 106.921 39.4561Z" fill="#A5A7A7"/>
<path d="M107.445 39.6172L97.1836 34.0361C97.3046 34.0491 97.4296 34.0473 97.5586 34.0293L107.82 39.6101C107.691 39.6291 107.565 39.6312 107.445 39.6172Z" fill="#ABAEAD"/>
<path d="M106.921 39.4561L96.6602 33.875C96.8192 33.961 96.9952 34.0169 97.1832 34.0359L107.444 39.6169C107.256 39.5979 107.079 39.5421 106.921 39.4561Z" fill="#A5A7A7"/>
<path d="M105.884 41.3799L95.624 35.7988C95.964 35.9838 96.343 36.103 96.749 36.146L107.009 41.7271C106.604 41.6861 106.225 41.5659 105.884 41.3799Z" fill="#2D773A"/>
<path d="M107.009 41.728L96.749 36.147C97.008 36.175 97.278 36.1699 97.555 36.1309L107.816 41.7129C107.538 41.7509 107.269 41.755 107.009 41.728Z" fill="#2F7C3D"/>
<path d="M110.752 39.6877L100.492 34.1067C100.93 33.3977 101.189 32.5646 101.191 31.7046C101.193 30.3136 100.523 29.1887 99.5107 28.6387L109.772 34.2197C110.784 34.7707 111.454 35.8947 111.452 37.2847C111.449 38.1457 111.19 38.9797 110.752 39.6877Z" fill="#2A6E36"/>
<path d="M106.921 39.4561L96.6602 33.875C96.8192 33.961 96.9952 34.0169 97.1832 34.0359L107.444 39.6169C107.256 39.5979 107.079 39.5421 106.921 39.4561Z" fill="#A5A7A7"/>
<path d="M109.189 38.6667L98.9278 33.0847C99.1308 32.7577 99.2508 32.3736 99.2508 31.9756C99.2528 31.3346 98.9378 30.8097 98.4648 30.5527L108.726 36.1348C109.199 36.3918 109.514 36.9166 109.513 37.5576C109.512 37.9546 109.392 38.3387 109.189 38.6667Z" fill="#999B9A"/>
<path d="M101.301 47.9873L91.041 42.4053C92.154 42.9623 93.328 43.2941 94.515 43.4231L104.775 49.0042C103.588 48.8752 102.414 48.5423 101.301 47.9873Z" fill="#A5A7A7"/>
<path d="M104.774 49.0034L94.5137 43.4224C95.3917 43.5164 96.2777 43.4985 97.1507 43.3765C97.7917 43.2855 98.4277 43.1395 99.0487 42.9375L109.31 48.5205C108.689 48.7215 108.054 48.8685 107.412 48.9575C106.539 49.0805 105.653 49.0984 104.774 49.0034Z" fill="#ABAEAD"/>
<path d="M107.826 35.9795L97.5654 30.3974C97.6934 30.3794 97.8174 30.3774 97.9374 30.3894L108.197 35.9714C108.079 35.9584 107.954 35.9605 107.826 35.9795Z" fill="#7DA250"/>
<path d="M108.198 35.9717L97.9385 30.3896C98.1285 30.4106 98.3065 30.4667 98.4665 30.5537L108.726 36.1357C108.566 36.0477 108.389 35.9907 108.198 35.9717Z" fill="#799C4D"/>
<path d="M115.751 43.436L105.49 37.853C105.665 37.57 105.83 37.2769 105.985 36.9749C108.804 31.4399 106.929 24.8121 101.833 22.0391L112.093 27.6208C117.189 30.3918 119.064 37.0199 116.245 42.5559C116.092 42.8589 115.927 43.153 115.751 43.436Z" fill="#999B9A"/>
<path d="M111.774 27.4539L101.514 21.873C101.622 21.927 101.729 21.983 101.835 22.04L112.096 27.6208C111.99 27.5648 111.883 27.5079 111.774 27.4539Z" fill="#2D773A"/>
<path d="M106.921 39.4561L96.6599 33.875C96.1899 33.619 95.8789 33.096 95.8799 32.449C95.8809 32.053 96.0009 31.6659 96.2049 31.3379L106.466 36.9189C106.262 37.2479 106.142 37.635 106.141 38.031C106.139 38.677 106.451 39.2001 106.921 39.4561Z" fill="#709048"/>
<path d="M106.465 36.9192L96.2041 31.3381C96.3141 31.1601 96.4481 31.0003 96.6001 30.8623L106.861 36.4431C106.709 36.5811 106.575 36.7422 106.465 36.9192Z" fill="#74964A"/>
<path d="M106.861 36.4438L96.5996 30.863C96.7996 30.683 97.0316 30.5439 97.2826 30.4629L107.543 36.0439C107.293 36.1259 107.062 36.2648 106.861 36.4438Z" fill="#799C4D"/>
<path d="M107.544 36.0435L97.2842 30.4624C97.3752 30.4324 97.4702 30.4105 97.5662 30.3965L107.827 35.9785C107.73 35.9925 107.636 36.0145 107.544 36.0435Z" fill="#7DA250"/>
<path d="M107.83 33.887C109.832 33.606 111.455 35.124 111.451 37.285C111.447 39.446 109.818 41.431 107.815 41.712C105.812 41.993 104.198 40.466 104.202 38.304C104.206 36.143 105.828 34.169 107.83 33.887ZM107.819 39.6119C108.748 39.4819 109.51 38.5609 109.512 37.5579C109.514 36.5639 108.755 35.849 107.825 35.979C106.896 36.11 106.141 37.039 106.139 38.032C106.139 39.034 106.89 39.7419 107.819 39.6119Z" fill="#C1C4C3"/>
<path d="M107.827 35.9794C108.756 35.8484 109.515 36.5632 109.514 37.5572C109.512 38.5602 108.749 39.4812 107.821 39.6112C106.892 39.7422 106.14 39.0344 106.142 38.0314C106.144 37.0374 106.898 36.1094 107.827 35.9794Z" fill="#8DB65B"/>
<path d="M107.83 33.8865L97.5693 28.3055C97.8483 28.2665 98.1193 28.2614 98.3803 28.2884L108.641 33.8694C108.38 33.8424 108.109 33.8475 107.83 33.8865Z" fill="#ABAEAD"/>
<path d="M108.641 33.8691L98.3799 28.2881C98.7879 28.3311 99.1679 28.4512 99.5099 28.6382L109.771 34.2192C109.43 34.0332 109.048 33.9121 108.641 33.8691Z" fill="#A5A7A7"/>
<path d="M91.9802 98.9814C92.0982 98.9944 94.3332 99.2304 95.0372 100.263C96.0832 101.818 95.8882 104.745 95.8772 104.9L71.4142 108.338L70.7012 108.439L70.7132 101.97L90.5572 99.1814L91.9802 98.9814Z" fill="#358B44"/>
<path d="M70.7024 108.441L60.4414 102.858L60.4534 96.3896L70.7144 101.972L70.7024 108.441Z" fill="#286B34"/>
<path d="M66.8655 101.758L56.6055 96.1772C57.8395 96.3102 59.1255 96.2912 60.4465 96.1052C61.4205 95.9672 62.3755 95.7463 63.3055 95.4453L73.5665 101.027C72.6365 101.327 71.6815 101.549 70.7075 101.686C69.3855 101.872 68.0995 101.891 66.8655 101.758Z" fill="#ABAEAD"/>
<path d="M73.5657 101.027L63.3047 95.4453C65.8657 94.6203 68.2337 93.2061 70.2757 91.3691L80.5367 96.9502C78.4957 98.7872 76.1267 100.201 73.5657 101.027Z" fill="#A5A7A7"/>
<path d="M66.8655 101.758L56.6055 96.1772C57.8395 96.3102 59.1255 96.2912 60.4465 96.1052C61.4205 95.9672 62.3755 95.7463 63.3055 95.4453L73.5665 101.027C72.6365 101.327 71.6815 101.549 70.7075 101.686C69.3855 101.872 68.0995 101.891 66.8655 101.758Z" fill="#ABAEAD"/>
<path d="M105.884 41.3792L95.6244 35.7981C94.6104 35.2461 93.9394 34.1162 93.9424 32.7222C93.9444 31.8602 94.2024 31.0283 94.6404 30.3223L104.9 35.9033C104.463 36.6103 104.205 37.4422 104.203 38.3032C104.2 39.6972 104.87 40.8282 105.884 41.3792Z" fill="#999B9A"/>
<path d="M104.9 35.9038L94.6396 30.3228C94.8736 29.9448 95.1586 29.6016 95.4836 29.3096L105.745 34.8916C105.42 35.1826 105.135 35.5258 104.9 35.9038Z" fill="#9FA1A0"/>
<path d="M105.744 34.8911L95.4834 29.3091C95.9144 28.9201 96.4154 28.6223 96.9564 28.4473L107.217 34.0283C106.675 34.2033 106.175 34.5021 105.744 34.8911Z" fill="#A5A7A7"/>
<path d="M107.217 34.0276L96.9561 28.4468C97.1551 28.3818 97.3601 28.3347 97.5691 28.3047L107.83 33.8857C107.621 33.9157 107.416 33.9636 107.217 34.0276Z" fill="#ABAEAD"/>
<path d="M108.309 24.7725L98.0479 19.1905C99.0059 19.0555 99.9529 19.0365 100.873 19.1365L111.134 24.7176C110.214 24.6176 109.266 24.6375 108.309 24.7725Z" fill="#ABAEAD"/>
<path d="M111.133 24.7168L100.872 19.1357C102.15 19.2727 103.372 19.6396 104.487 20.2466L114.748 25.8276C113.633 25.2216 112.411 24.8538 111.133 24.7168Z" fill="#A5A7A7"/>
<path d="M106.931 25.043L96.6699 19.4609L101.513 21.873L111.773 27.4539L106.931 25.043Z" fill="#2C7539"/>
<path d="M106.931 25.0435L96.6699 19.4614C97.1299 19.3464 97.5899 19.2544 98.0479 19.1904L108.309 24.7725C107.851 24.8365 107.391 24.9275 106.931 25.0435Z" fill="#ABAEAD"/>
<path d="M51.2424 104.708L40.9814 99.1267L60.4534 96.3896L70.7144 101.972L51.2424 104.708Z" fill="#2F7C3D"/>
<path d="M61.5852 100.119L51.3252 94.5371C52.9242 95.4071 54.7032 95.9722 56.6052 96.1772L66.8652 101.758C64.9632 101.554 63.1842 100.988 61.5852 100.119Z" fill="#A5A7A7"/>
<path d="M66.8655 101.758L56.6055 96.1772C57.8395 96.3102 59.1255 96.2912 60.4465 96.1052C61.4205 95.9672 62.3755 95.7463 63.3055 95.4453L73.5665 101.027C72.6365 101.327 71.6815 101.549 70.7075 101.686C69.3855 101.872 68.0995 101.891 66.8655 101.758Z" fill="#ABAEAD"/>
<path d="M70.7346 87.1624L60.4746 81.5806C60.6836 81.5516 60.8886 81.5035 61.0886 81.4375L71.3496 87.0205C71.1486 87.0845 70.9436 87.1334 70.7346 87.1624Z" fill="#2F7C3D"/>
<path d="M71.3489 87.0212L61.0879 81.4382C61.6299 81.2642 62.1299 80.9651 62.5609 80.5771L72.8209 86.1592C72.3909 86.5462 71.8899 86.8452 71.3489 87.0212Z" fill="#2D773A"/>
<path d="M72.8205 86.1584L62.5605 80.5764C62.8845 80.2844 63.1695 79.9415 63.4035 79.5645L73.6645 85.1455C73.4305 85.5245 73.1455 85.8664 72.8205 86.1584Z" fill="#2B7338"/>
<path d="M73.6649 85.146L63.4039 79.5649C63.8419 78.8579 64.0999 78.0268 64.1019 77.1638C64.1039 75.7708 63.4339 74.6399 62.4199 74.0879L72.6809 79.6689C73.6949 80.2209 74.3659 81.3509 74.3629 82.7449C74.3609 83.6079 74.1029 84.44 73.6649 85.146Z" fill="#2A6E36"/>
<path d="M70.7385 85.0698L60.4785 79.488C60.5755 79.475 60.6705 79.4519 60.7625 79.4229L71.0235 85.0039C70.9305 85.0339 70.8355 85.0558 70.7385 85.0698Z" fill="#ABAEAD"/>
<path d="M71.0227 85.0034L60.7617 79.4224C61.0127 79.3404 61.2457 79.2015 61.4457 79.0215L71.7067 84.6025C71.5067 84.7845 71.2737 84.9224 71.0227 85.0034Z" fill="#A5A7A7"/>
<path d="M71.7073 84.6038L61.4463 79.0227C61.5973 78.8867 61.7303 78.7278 61.8393 78.5508L72.1003 84.1326C71.9903 84.3076 71.8573 84.4678 71.7073 84.6038Z" fill="#9FA1A0"/>
<path d="M72.0998 84.1316L61.8388 78.5498C62.0418 78.2208 62.1628 77.8358 62.1628 77.4358C62.1638 76.7888 61.8528 76.2658 61.3828 76.0098L71.6428 81.5918C72.1128 81.8478 72.4238 82.3696 72.4228 83.0176C72.4228 83.4166 72.3028 83.8036 72.0998 84.1316Z" fill="#999B9A"/>
<path d="M61.5852 100.119L51.3252 94.5371C52.9242 95.4071 54.7032 95.9722 56.6052 96.1772L66.8652 101.758C64.9632 101.554 63.1842 100.988 61.5852 100.119Z" fill="#A5A7A7"/>
<path d="M69.8391 84.915L59.5791 79.334C59.7371 79.42 59.9131 79.4759 60.1021 79.4949L70.3631 85.0769C70.1741 85.0579 69.9981 85.001 69.8391 84.915Z" fill="#A5A7A7"/>
<path d="M70.3626 85.0771L60.1016 79.4951C60.2226 79.5091 60.3486 79.5073 60.4776 79.4883L70.7376 85.0701C70.6096 85.0881 70.4836 85.0901 70.3626 85.0771Z" fill="#ABAEAD"/>
<path d="M72.0988 84.1316L61.8378 78.5498C62.0408 78.2208 62.1618 77.8358 62.1618 77.4358C62.1628 76.7888 61.8518 76.2658 61.3818 76.0098L71.6418 81.5918C72.1118 81.8478 72.4228 82.3696 72.4218 83.0176C72.4218 83.4166 72.3018 83.8036 72.0988 84.1316Z" fill="#999B9A"/>
<path d="M68.7922 86.8281L58.5322 81.2461C58.8742 81.4331 59.2552 81.5532 59.6622 81.5962L69.9222 87.1782C69.5152 87.1352 69.1342 87.0141 68.7922 86.8281Z" fill="#2D773A"/>
<path d="M69.9221 87.178L59.6621 81.5959C59.9231 81.6229 60.1951 81.6201 60.4741 81.5801L70.7341 87.1619C70.4551 87.2009 70.1831 87.205 69.9221 87.178Z" fill="#2F7C3D"/>
<path d="M73.6639 85.146L63.403 79.5649C63.841 78.8579 64.099 78.0268 64.101 77.1638C64.103 75.7708 63.4329 74.6399 62.4189 74.0879L72.68 79.6689C73.694 80.2209 74.365 81.3509 74.362 82.7449C74.36 83.6079 74.1019 84.44 73.6639 85.146Z" fill="#2A6E36"/>
<path d="M87.8097 81.4016L77.5487 75.8208C77.5547 75.6378 77.5567 75.4557 77.5577 75.2727C77.5697 68.7127 74.4077 63.4026 69.6367 60.8076L79.8977 66.3887C84.6687 68.9847 87.8307 74.2938 87.8187 80.8538C87.8177 81.0358 87.8147 81.2196 87.8097 81.4016Z" fill="#999B9A"/>
<path d="M70.7444 81.4375L60.4844 75.8564C60.6134 75.8384 60.7384 75.8364 60.8594 75.8484L71.1204 81.4304C70.9994 81.4174 70.8734 81.4195 70.7444 81.4375Z" fill="#7DA250"/>
<path d="M71.1194 81.4307L60.8584 75.8486C61.0474 75.8696 61.2234 75.9247 61.3824 76.0107L71.6424 81.5928C71.4844 81.5068 71.3084 81.4507 71.1194 81.4307Z" fill="#799C4D"/>
<path d="M69.8389 84.9141L59.5779 79.333C59.1079 79.077 58.7969 78.555 58.7979 77.908C58.7979 77.509 58.9189 77.122 59.1219 76.793L69.3829 82.375C69.1789 82.703 69.0589 83.09 69.0579 83.49C69.0579 84.137 69.3689 84.6601 69.8389 84.9141Z" fill="#709048"/>
<path d="M69.3831 82.3752L59.1221 76.7932C59.2311 76.6172 59.3641 76.4583 59.5151 76.3223L69.7751 81.9043C69.6251 82.0393 69.4921 82.2002 69.3831 82.3752Z" fill="#74964A"/>
<path d="M69.7756 81.9041L59.5156 76.322C59.7156 76.142 59.9486 76.0029 60.1996 75.9219L70.4596 81.5029C70.2086 81.5839 69.9766 81.7231 69.7756 81.9041Z" fill="#799C4D"/>
<path d="M70.4602 81.5034L60.2002 75.9224C60.2922 75.8914 60.3872 75.8694 60.4842 75.8564L70.7442 81.4375C70.6472 81.4515 70.5532 81.4734 70.4602 81.5034Z" fill="#7DA250"/>
<path d="M70.7446 81.4373C71.6736 81.3073 72.4256 82.0143 72.4236 83.0183C72.4226 84.0203 71.6676 84.9391 70.7376 85.0691C69.8086 85.2001 69.0576 84.4942 69.0586 83.4912C69.0616 82.4872 69.8156 81.5693 70.7446 81.4373Z" fill="#8DB65B"/>
<path d="M70.7493 79.3362L60.4893 73.7551C60.7663 73.7161 61.0353 73.7123 61.2943 73.7383L71.5553 79.3203C71.2953 79.2933 71.0253 79.2972 70.7493 79.3362Z" fill="#ABAEAD"/>
<path d="M71.555 79.3203L61.2939 73.7383C61.6999 73.7813 62.0779 73.9012 62.4189 74.0872L72.68 79.6682C72.339 79.4832 71.96 79.3633 71.555 79.3203Z" fill="#A5A7A7"/>
<path d="M89.1545 41.9404L78.8945 36.3574L91.0415 42.4045L101.302 47.9875L89.1545 41.9404Z" fill="#A2A4A3"/>
<path d="M68.7925 86.8291L58.5325 81.2471C57.5205 80.6971 56.8505 79.5731 56.8535 78.1831C56.8545 77.3221 57.1145 76.4893 57.5525 75.7812L67.8125 81.3621C67.3745 82.0711 67.1145 82.9032 67.1135 83.7642C67.1105 85.1552 67.7805 86.2781 68.7925 86.8291Z" fill="#999B9A"/>
<path d="M67.8127 81.3616L57.5527 75.7808C57.7877 75.3998 58.0747 75.0557 58.4017 74.7617L68.6628 80.3428C68.3348 80.6378 68.0477 80.9816 67.8127 81.3616Z" fill="#9FA1A0"/>
<path d="M68.6614 80.3445L58.4004 74.7634C58.8334 74.3734 59.3344 74.0744 59.8764 73.8984L70.1374 79.4805C69.5954 79.6555 69.0934 79.9545 68.6614 80.3445Z" fill="#A5A7A7"/>
<path d="M70.138 79.48L59.877 73.8979C60.076 73.8339 60.281 73.7859 60.49 73.7559L70.75 79.3369C70.541 79.3669 70.337 79.415 70.138 79.48Z" fill="#ABAEAD"/>
<path d="M70.7766 64.8205L60.5156 59.2384C61.8246 59.0554 63.0986 59.0343 64.3226 59.1633L74.5826 64.7443C73.3596 64.6163 72.0846 64.6365 70.7766 64.8205Z" fill="#2F7C3D"/>
<path d="M74.5832 64.7441L64.3232 59.1631C66.2382 59.3651 68.0292 59.9321 69.6372 60.8071L79.8982 66.3882C78.2892 65.5132 76.4972 64.9461 74.5832 64.7441Z" fill="#2D773A"/>
<path d="M61.5854 100.12L51.3253 94.5376C47.1733 92.2786 44.2423 87.9647 43.5573 82.5647C43.4553 81.7577 43.4024 80.9258 43.4044 80.0728C43.4124 76.0138 44.6324 72.0938 46.6934 68.7598L56.9543 74.3418C54.8923 77.6748 53.6723 81.5958 53.6653 85.6538C53.6633 86.5058 53.7164 87.3388 53.8184 88.1458C54.5014 93.5458 57.4334 97.8596 61.5854 100.12Z" fill="#2A6E36"/>
<path d="M56.9534 74.3428L46.6924 68.7607C47.7984 66.9737 49.1474 65.3536 50.6804 63.9746L60.9414 69.5557C59.4084 70.9367 58.0604 72.5548 56.9534 74.3428Z" fill="#2B7338"/>
<path d="M60.9417 69.5554L50.6807 63.9744C52.7197 62.1404 55.0837 60.7284 57.6417 59.9014L67.9026 65.4834C65.3446 66.3094 62.9797 67.7214 60.9417 69.5554Z" fill="#2D773A"/>
<path d="M67.9026 65.4832L57.6416 59.9011C58.4546 59.6391 59.2876 59.4352 60.1366 59.2952C60.2626 59.2742 60.3896 59.2553 60.5156 59.2383L70.7766 64.8203C70.6506 64.8383 70.5236 64.8562 70.3976 64.8772C69.5486 65.0172 68.7156 65.2212 67.9026 65.4832Z" fill="#2F7C3D"/>
<path d="M108.309 24.7719C111.41 24.3359 114.411 25.1049 116.66 27.2089C121.48 31.7169 121.087 40.7019 115.789 47.1859L87.8105 81.4008C87.8155 81.2188 87.8185 81.0359 87.8195 80.8529C87.8385 70.6679 80.2045 63.4939 70.7765 64.82C70.6505 64.838 70.5235 64.8568 70.3975 64.8768L89.1555 41.9398L101.301 47.9869C103.238 48.9539 105.359 49.2469 107.412 48.9569C111.016 48.4509 114.413 46.1508 116.246 42.5568C119.123 36.9068 117.11 30.1187 111.773 27.4537L106.93 25.0429C107.391 24.9269 107.851 24.8359 108.309 24.7719Z" fill="#C1C4C3"/>
<path d="M53.8172 88.1472C54.9362 96.9752 62.0622 102.903 70.7072 101.687C79.1552 100.499 86.1872 92.8842 87.5712 83.9912L90.5582 99.1831L70.7142 101.972L51.2422 104.708L53.8172 88.1472Z" fill="#C1C4C3"/>
<path d="M70.7761 64.82C80.2031 63.494 87.8381 70.6679 87.8181 80.8529C87.8181 81.0349 87.8151 81.2178 87.8091 81.4008C87.7841 82.2718 87.7041 83.1369 87.5711 83.9909C86.1861 92.8839 79.1541 100.499 70.7071 101.687C62.0611 102.903 54.9361 96.9748 53.8171 88.1478C53.7151 87.3398 53.6621 86.5079 53.6641 85.6559C53.6831 75.6069 61.1361 66.3978 70.3961 64.8788C70.5231 64.8558 70.6491 64.838 70.7761 64.82ZM70.7341 87.1618C72.7361 86.8808 74.3581 84.9058 74.3611 82.7438C74.3651 80.5828 72.7501 79.0548 70.7481 79.3358C68.7461 79.6178 67.1161 81.6018 67.1121 83.7628C67.1081 85.9258 68.7311 87.4428 70.7341 87.1618Z" fill="#358B44"/>
<path d="M70.7493 79.336C72.7513 79.055 74.3663 80.583 74.3623 82.744C74.3583 84.906 72.7373 86.881 70.7353 87.162C68.7333 87.443 67.1103 85.926 67.1133 83.764C67.1173 81.602 68.7463 79.618 70.7493 79.336ZM70.7383 85.069C71.6673 84.939 72.4223 84.0202 72.4233 83.0182C72.4253 82.0132 71.6743 81.3071 70.7453 81.4371C69.8163 81.5691 69.0613 82.4851 69.0593 83.4901C69.0573 84.4921 69.8093 85.2 70.7383 85.069Z" fill="#C1C4C3"/>
<path d="M50.1604 104.86L39.8994 99.2791L40.9814 99.127L51.2424 104.708L50.1604 104.86Z" fill="#2F7C3D"/>
<path d="M70.3958 64.8774L60.1357 59.2964L78.8937 36.3574L89.1537 41.9404L70.3958 64.8774Z" fill="#A3A5A5"/>
<path d="M70.7141 101.972L70.7021 108.441L71.4151 108.34L46.2391 111.878C46.2291 111.728 46.0451 108.854 47.0971 107.003C47.8041 105.773 50.0421 104.907 50.1601 104.86L51.2421 104.708L70.7141 101.972Z" fill="#358B44"/>
<path d="M46.2394 111.877L35.9784 106.296C35.9684 106.145 35.7844 103.272 36.8364 101.421C36.8474 101.401 36.8593 101.381 36.8723 101.361L47.1334 106.943C47.1214 106.963 47.1094 106.983 47.0974 107.002C46.0454 108.853 46.2294 111.727 46.2394 111.877Z" fill="#2A6E36"/>
<path d="M47.1331 106.943L36.8721 101.361C37.0151 101.131 37.2091 100.914 37.4321 100.715L47.6921 106.296C47.4711 106.496 47.2751 106.713 47.1331 106.943Z" fill="#2B7338"/>
<path d="M47.6936 106.296L37.4336 100.715C38.3726 99.8691 39.8066 99.3143 39.9006 99.2783L50.1616 104.859C50.0666 104.897 48.6326 105.451 47.6936 106.296Z" fill="#2D773A"/>
<path d="M51.2424 104.708L40.9814 99.1265L43.5565 82.5645L53.8174 88.1475L51.2424 104.708Z" fill="#969897"/>
<path d="M59.5315 27.1914L49.2705 21.6094L51.4645 22.7004L61.7255 28.2815L59.5315 27.1914Z" fill="#A2A4A3"/>
<path d="M59.2112 27.0254L48.9502 21.4434C49.0552 21.5004 49.1622 21.5564 49.2702 21.6094L59.5312 27.1914C59.4232 27.1384 59.3162 27.0824 59.2112 27.0254Z" fill="#A5A7A7"/>
<path d="M70.0042 6.6582L59.7432 1.07617L96.6702 19.4612L106.931 25.0432L70.0042 6.6582Z" fill="#2C7539"/>
<path d="M63.6116 20.3335L53.3516 14.7524C53.5596 14.7234 53.7646 14.6744 53.9626 14.6094L64.2236 20.1914C64.0246 20.2564 63.8206 20.3045 63.6116 20.3335Z" fill="#2F7C3D"/>
<path d="M64.2239 20.1919L53.9629 14.6099C54.5039 14.4359 55.0019 14.137 55.4329 13.75L65.6939 19.3311C65.2639 19.7191 64.7639 20.0179 64.2239 20.1919Z" fill="#2D773A"/>
<path d="M65.6936 19.3315L55.4326 13.7505C55.7576 13.4575 56.0436 13.1144 56.2786 12.7344L66.5396 18.3164C66.3056 18.6964 66.0196 19.0385 65.6936 19.3315Z" fill="#2B7338"/>
<path d="M66.5407 18.3159L56.2797 12.7339C56.7187 12.0239 56.9787 11.1889 56.9797 10.3259C56.9827 8.93493 56.3147 7.80881 55.3037 7.25781L65.5637 12.8398C66.5747 13.3908 67.2427 14.516 67.2407 15.906C67.2387 16.771 66.9797 17.6069 66.5407 18.3159Z" fill="#2A6E36"/>
<path d="M63.6155 18.2329L53.3555 12.6519C53.4525 12.6379 53.5485 12.615 53.6405 12.585L63.9015 18.167C63.8085 18.196 63.7135 18.2189 63.6155 18.2329Z" fill="#ABAEAD"/>
<path d="M63.9007 18.1667L53.6396 12.5847C53.8916 12.5027 54.1236 12.3636 54.3246 12.1846L64.5847 17.7666C64.3847 17.9456 64.1527 18.0847 63.9007 18.1667Z" fill="#A5A7A7"/>
<path d="M64.5852 17.7668L54.3252 12.1848C54.4762 12.0488 54.6082 11.8899 54.7182 11.7139L64.9782 17.2949C64.8682 17.4709 64.7352 17.6298 64.5852 17.7668Z" fill="#9FA1A0"/>
<path d="M64.9777 17.2947L54.7177 11.7136C54.9207 11.3846 55.0407 10.9986 55.0417 10.5986C55.0427 9.95463 54.7317 9.4308 54.2617 9.1748L64.5227 14.7566C64.9927 15.0126 65.3037 15.5347 65.3027 16.1807C65.3017 16.5797 65.1807 16.9667 64.9777 17.2947Z" fill="#999B9A"/>
<path d="M62.717 18.0771L52.4561 12.4961C52.6151 12.5821 52.791 12.6382 52.979 12.6572L63.2401 18.2383C63.0521 18.2193 62.875 18.1631 62.717 18.0771Z" fill="#A5A7A7"/>
<path d="M63.2405 18.2385L52.9795 12.6575C53.1005 12.6705 53.2255 12.6684 53.3545 12.6514L63.6145 18.2324C63.4865 18.2504 63.3615 18.2525 63.2405 18.2385Z" fill="#ABAEAD"/>
<path d="M61.6751 20L51.4141 14.418C51.7561 14.604 52.1361 14.7241 52.5431 14.7681L62.8041 20.3499C62.3971 20.3069 62.0171 20.186 61.6751 20Z" fill="#2D773A"/>
<path d="M62.804 20.3499L52.543 14.7681C52.803 14.7951 53.073 14.791 53.351 14.752L63.611 20.333C63.334 20.372 63.063 20.3769 62.804 20.3499Z" fill="#2F7C3D"/>
<path d="M62.717 18.0771L52.4561 12.4961C52.6151 12.5821 52.791 12.6382 52.979 12.6572L63.2401 18.2383C63.0521 18.2193 62.875 18.1631 62.717 18.0771Z" fill="#A5A7A7"/>
<path d="M64.9767 17.2947L54.7167 11.7136C54.9197 11.3846 55.0397 10.9986 55.0407 10.5986C55.0417 9.95463 54.7307 9.4308 54.2607 9.1748L64.5217 14.7566C64.9917 15.0126 65.3027 15.5347 65.3017 16.1807C65.3007 16.5797 65.1797 16.9667 64.9767 17.2947Z" fill="#999B9A"/>
<path d="M63.6223 14.6025L53.3623 9.02048C53.4913 9.00248 53.6163 9.00043 53.7373 9.01243L63.9983 14.5945C63.8773 14.5815 63.7513 14.5835 63.6223 14.6025Z" fill="#7DA250"/>
<path d="M63.9983 14.5947L53.7373 9.0127C53.9263 9.0337 54.1033 9.0888 54.2613 9.1748L64.5223 14.7566C64.3633 14.6706 64.1873 14.6137 63.9983 14.5947Z" fill="#799C4D"/>
<path d="M62.7168 18.0779L52.4558 12.4968C51.9858 12.2408 51.6748 11.718 51.6758 11.071C51.6768 10.673 51.7968 10.286 51.9988 9.95898L62.2598 15.54C62.0568 15.869 61.9368 16.2541 61.9358 16.6541C61.9358 17.3001 62.2468 17.8229 62.7168 18.0779Z" fill="#709048"/>
<path d="M62.261 15.5393L52 9.95825C52.109 9.78125 52.242 9.6223 52.393 9.4873L62.654 15.0691C62.502 15.2031 62.37 15.3633 62.261 15.5393Z" fill="#74964A"/>
<path d="M62.6526 15.0698L52.3916 9.48804C52.5926 9.30704 52.8256 9.16789 53.0766 9.08789L63.3376 14.6689C63.0866 14.7489 62.8536 14.8888 62.6526 15.0698Z" fill="#799C4D"/>
<path d="M63.3381 14.6675L53.0771 9.08643C53.1701 9.05543 53.2652 9.03351 53.3622 9.02051L63.6221 14.6025C63.5251 14.6165 63.4311 14.6375 63.3381 14.6675Z" fill="#7DA250"/>
<path d="M63.6225 14.6025C64.5525 14.4715 65.3035 15.1784 65.3015 16.1804C65.2995 17.1844 64.5455 18.1024 63.6155 18.2324C62.6865 18.3624 61.9355 17.6576 61.9375 16.6536C61.9395 15.6516 62.6935 14.7335 63.6225 14.6025Z" fill="#8DB65B"/>
<path d="M63.6262 12.508L53.3662 6.92597C53.6452 6.88697 53.9162 6.88285 54.1762 6.90985L64.4372 12.4919C64.1762 12.4649 63.9052 12.469 63.6262 12.508Z" fill="#ABAEAD"/>
<path d="M64.4368 12.4922L54.1758 6.91016C54.5818 6.95316 54.9618 7.0733 55.3028 7.2583L65.5628 12.8401C65.2218 12.6541 64.8428 12.5352 64.4368 12.4922Z" fill="#A5A7A7"/>
<path d="M63.6262 12.5081C65.6292 12.2271 67.2442 13.746 67.2402 15.906C67.2362 18.068 65.6152 20.052 63.6122 20.333C61.6102 20.616 59.9872 19.0881 59.9912 16.9261C59.9952 14.7641 61.6242 12.7891 63.6262 12.5081ZM63.6152 18.232C64.5452 18.102 65.2992 17.184 65.3012 16.18C65.3032 15.178 64.5512 14.4711 63.6222 14.6021C62.6932 14.7331 61.9392 15.6511 61.9372 16.6531C61.9352 17.6561 62.6872 18.362 63.6152 18.232Z" fill="#C1C4C3"/>
<path d="M61.6755 20.0012L51.4145 14.4192C50.4005 13.8682 49.7275 12.7382 49.7295 11.3452C49.7315 10.4862 49.9895 9.65717 50.4265 8.95117L60.6865 14.5332C60.2505 15.2392 59.9915 16.0692 59.9905 16.9282C59.9885 18.3202 60.6615 19.4492 61.6755 20.0012Z" fill="#999B9A"/>
<path d="M60.6877 14.5317L50.4277 8.94971C50.6617 8.57071 50.9487 8.22657 51.2737 7.93457L61.5348 13.5166C61.2088 13.8096 60.9227 14.1537 60.6877 14.5317Z" fill="#9FA1A0"/>
<path d="M61.5335 13.5164L51.2725 7.93433C51.7055 7.54533 52.2075 7.24434 52.7505 7.06934L63.0115 12.6514C62.4695 12.8264 61.9665 13.1264 61.5335 13.5164Z" fill="#A5A7A7"/>
<path d="M63.013 12.6516L52.752 7.06958C52.952 7.00458 53.158 6.95576 53.367 6.92676L63.627 12.5088C63.418 12.5378 63.213 12.5856 63.013 12.6516Z" fill="#ABAEAD"/>
<path d="M46.4436 37.3965L36.1826 31.8154C36.2396 31.8454 36.2956 31.8734 36.3536 31.9014L46.6146 37.4834C46.5576 37.4554 46.5006 37.4265 46.4436 37.3965Z" fill="#2D773A"/>
<path d="M46.4434 37.396L36.1823 31.8149C35.6853 31.5429 35.2544 31.1328 34.9434 30.5898L45.2043 36.1719C45.5163 36.7149 45.9464 37.125 46.4434 37.396Z" fill="#999B9A"/>
<path d="M59.2099 27.0249L48.9489 21.4438C44.2109 18.8668 42.2579 12.954 44.2739 7.68701C44.4259 7.28901 44.6 6.89586 44.797 6.50586C44.951 6.20386 45.1159 5.91095 45.2919 5.62695L55.5519 11.209C55.3769 11.493 55.2119 11.7849 55.0569 12.0869C54.8599 12.4769 54.686 12.8698 54.534 13.2668C52.52 18.5348 54.4729 24.4479 59.2099 27.0249Z" fill="#2A6E36"/>
<path d="M55.5529 11.209L45.293 5.62695C45.908 4.63195 46.6499 3.75291 47.4829 3.00391L57.744 8.58496C56.91 9.33496 56.1689 10.214 55.5529 11.209Z" fill="#2B7338"/>
<path d="M57.7434 8.58398L47.4824 3.00293C48.7324 1.87693 50.1894 1.04297 51.7334 0.542969L61.9944 6.125C60.4504 6.625 58.9944 7.45898 57.7434 8.58398Z" fill="#2D773A"/>
<path d="M61.9944 6.12546L51.7334 0.543429C52.3544 0.342429 52.9904 0.195441 53.6314 0.105441C54.5044 -0.0165594 55.3894 -0.033702 56.2664 0.059298L66.5264 5.64133C65.6494 5.54733 64.7644 5.5645 63.8914 5.6865C63.2514 5.7775 62.6154 5.92446 61.9944 6.12546Z" fill="#2F7C3D"/>
<path d="M66.5266 5.6416L56.2666 0.0595703C57.4546 0.18857 58.6286 0.521637 59.7426 1.07764L70.0036 6.65967C68.8896 6.10267 67.7146 5.7696 66.5266 5.6416Z" fill="#2D773A"/>
<path d="M111.773 27.4544C117.11 30.1184 119.123 36.9065 116.246 42.5575C114.413 46.1525 111.016 48.4526 107.412 48.9576C105.358 49.2466 103.238 48.9537 101.301 47.9877L89.1551 41.9396L61.7251 28.2826L59.5311 27.1925C54.5621 24.7115 52.4751 18.6524 54.5351 13.2674C54.6871 12.8704 54.8611 12.4765 55.0581 12.0875C56.8911 8.49351 60.2881 6.1946 63.8921 5.6876C65.9461 5.3996 68.0661 5.69353 70.0031 6.65953L106.93 25.0445L111.773 27.4544ZM107.815 41.7115C109.817 41.4305 111.446 39.4455 111.451 37.2845C111.455 35.1235 109.832 33.6046 107.83 33.8866C105.828 34.1686 104.206 36.1426 104.202 38.3036C104.198 40.4656 105.813 41.9925 107.815 41.7115ZM63.6111 20.3336C65.6141 20.0526 67.2361 18.0696 67.2391 15.9066C67.2431 13.7456 65.6281 12.2266 63.6251 12.5086C61.6231 12.7896 59.9941 14.7646 59.9901 16.9266C59.9861 19.0886 61.6091 20.6166 63.6111 20.3336Z" fill="#358B44"/>
<path d="M39.174 36.3706L28.913 30.7898L28.083 29.2646L38.344 34.8467L39.174 36.3706Z" fill="#286A34"/>
<path d="M45.2041 36.1726L34.9431 30.5906L30.4971 22.8477L40.7581 28.4287L45.2041 36.1726Z" fill="#929494"/>
<path d="M31.1008 45.606L20.8398 40.0239L28.9128 30.7891L39.1738 36.3699L31.1008 45.606Z" fill="#2D763A"/>
<path d="M42.1458 22.6934L31.8857 17.1113L44.2737 7.68652L54.5347 13.2673L42.1458 22.6934Z" fill="#A8ABAA"/>
<path d="M54.5349 13.2676C52.4739 18.6526 54.5609 24.7116 59.5309 27.1926L61.7249 28.2827L50.3439 36.9468C49.7559 37.3938 49.1119 37.6578 48.4759 37.7478C47.8249 37.8398 47.1819 37.7476 46.6149 37.4846C46.0449 37.2176 45.5509 36.7766 45.2039 36.1736L40.7579 28.4297C40.3769 27.7677 40.2229 26.9977 40.2699 26.2207C40.3499 24.8977 41.0149 23.5566 42.1469 22.6946L54.5349 13.2676Z" fill="#C1C4C3"/>
<path d="M40.7582 28.4277L30.4971 22.8467C30.1171 22.1837 29.9621 21.4137 30.0091 20.6367C30.0561 19.8617 30.3042 19.0786 30.7302 18.3906L40.9912 23.9727C40.5652 24.6607 40.3172 25.4427 40.2702 26.2188C40.2232 26.9958 40.3772 27.7657 40.7582 28.4277Z" fill="#999B9A"/>
<path d="M40.9905 23.9734L30.7295 18.3914C30.9645 18.0104 31.2545 17.6585 31.5945 17.3535L41.8545 22.9355C41.5155 23.2405 41.2265 23.5924 40.9905 23.9734Z" fill="#9FA1A0"/>
<path d="M41.8547 22.9353L31.5947 17.3533C31.6877 17.2693 31.7847 17.1883 31.8867 17.1123L42.1477 22.6941C42.0447 22.7701 41.9477 22.8503 41.8547 22.9353Z" fill="#A5A7A7"/>
<path d="M23.4475 48.4963L13.1875 42.9146L20.8405 40.0244L31.1015 45.6064L23.4475 48.4963Z" fill="#2F7C3D"/>
<path d="M32.0999 29.5696L21.8389 23.9878L30.0089 20.6377L40.2699 26.2197L32.0999 29.5696Z" fill="#2F7C3D"/>
<path d="M20.6253 50.613L10.3643 45.031L13.1873 42.9141L23.4473 48.4958L20.6253 50.613Z" fill="#2E7A3C"/>
<path d="M20.7592 51.7871L10.4983 46.2053L10.3643 45.0312L20.6253 50.6133L20.7592 51.7871Z" fill="#286A34"/>
<path d="M19.4182 49.2004L9.1582 43.6194L8.36719 42.3994L18.6272 47.9814L19.4182 49.2004Z" fill="#286A34"/>
<path d="M18.6272 47.9814L8.36719 42.3994L13.6472 32.2354L23.9082 37.8174L18.6272 47.9814Z" fill="#2B7238"/>
<path d="M40.27 26.2197C40.223 26.9967 40.378 27.7667 40.758 28.4287L45.2039 36.1726C45.5509 36.7766 46.044 37.2166 46.615 37.4836L46.683 37.6067L40.374 45.2966L30.875 50.4446L20.7589 51.7886L20.625 50.6147L23.448 48.4978L31.101 45.6067L39.174 36.3716L38.344 34.8477L27.99 38.8086L22.8979 46.4646L19.417 49.2017L18.627 47.9817L23.907 37.8176L32.099 29.5696L40.27 26.2197Z" fill="#358B44"/>
<path d="M23.9085 37.8171L13.6475 32.2351L21.8395 23.9873L32.1005 29.5691L23.9085 37.8171Z" fill="#2D773B"/>
<path fill-rule="evenodd" clip-rule="evenodd" d="M0.419922 100.238C0.665922 99.184 0.88091 98.1209 1.16391 97.0769C2.39591 92.5239 5.04891 88.8789 8.53091 85.8069C13.3589 81.5509 19.0329 78.8129 25.0799 76.7749C25.2479 76.7169 25.4349 76.7149 25.7299 76.6699C26.2939 78.3859 26.8569 80.0929 27.4309 81.8379C25.1239 82.7719 22.8799 83.6159 20.6869 84.5789C17.3359 86.0529 14.1889 87.8709 11.4859 90.3799C4.51693 96.8509 4.36694 105.718 11.1459 112.382C15.4199 116.583 20.6459 119.23 26.1669 121.343C34.8519 124.665 43.8939 126.383 53.1069 127.399C61.8729 128.368 70.6619 128.301 79.4539 128.305C79.8439 128.305 80.2319 128.238 80.8359 127.864C79.5899 126.823 78.3419 125.781 77.0779 124.726C78.6719 123.202 79.9799 121.949 81.2409 120.741C84.6369 124.147 88.1289 127.65 91.4899 131.02C88.0769 134.43 84.5779 137.926 81.1359 141.365C80.0669 140.299 78.7679 139.007 77.1619 137.407C78.3239 136.45 79.5779 135.417 80.8329 134.384C80.7659 134.263 80.6979 134.142 80.6299 134.021C80.1509 134 79.6719 133.966 79.1919 133.956C72.4519 133.818 65.6919 133.955 58.9749 133.494C44.2049 132.479 29.8349 129.667 16.6159 122.581C11.3019 119.734 6.42391 116.25 3.29791 110.949C2.07891 108.884 1.54592 106.416 0.695923 104.131C0.617923 103.923 0.511929 103.724 0.420929 103.521C0.419929 102.426 0.419922 101.332 0.419922 100.238Z" fill="#D1D4D3"/>
<path fill-rule="evenodd" clip-rule="evenodd" d="M140.42 103.52C140.176 104.527 139.969 105.543 139.682 106.536C138.287 111.362 135.261 115.064 131.481 118.198C125.2 123.409 117.851 126.526 110.128 128.837C107.3 129.683 104.401 130.286 101.541 131.019C100.548 131.273 100.04 131.05 99.9243 129.907C99.7863 128.561 99.4353 127.235 99.1533 125.788C101.633 125.2 104.065 124.676 106.47 124.043C113.094 122.3 119.594 120.162 125.253 116.196C127.643 114.52 129.936 112.506 131.729 110.219C135.852 104.958 135.633 98.492 131.555 93.189C128.674 89.444 124.86 86.8621 120.626 84.9871C116.813 83.3011 112.821 82.0139 108.907 80.5549C108.532 80.4149 108.145 80.3059 107.696 80.1609C108.182 78.3759 108.645 76.6769 109.146 74.8379C109.583 74.9339 109.967 74.9979 110.337 75.1069C118.089 77.3609 125.449 80.4249 131.69 85.7019C136.16 89.4809 139.456 93.999 140.213 100.011C140.234 100.184 140.35 100.345 140.42 100.512C140.42 101.515 140.42 102.517 140.42 103.52Z" fill="#D1D4D3"/>
</svg>
