<svg width="27" height="27" viewBox="0 0 27 27" fill="none" xmlns="http://www.w3.org/2000/svg">
<path fill-rule="evenodd" clip-rule="evenodd" d="M13.4189 26.7773C20.8164 26.7773 26.8105 20.7803 26.8105 13.3887C26.8105 5.99023 20.8164 0.000976562 13.4189 0C6.02539 0 0.03125 5.99023 0.03125 13.3887C0.03125 20.7803 6.02539 26.7773 13.4189 26.7773ZM20.7803 19.5059V14.3242C20.7803 11.5518 19.3008 10.2588 17.3213 10.2598C15.7275 10.2598 15.0127 11.1377 14.6162 11.752V10.4707H11.6104C11.6533 11.3203 11.6104 19.5059 11.6104 19.5059H14.6162V14.4609C14.6162 14.1914 14.6367 13.9209 14.7148 13.7295C14.9336 13.1885 15.4277 12.6309 16.2559 12.6309C17.3428 12.6309 17.7764 13.458 17.7764 14.6738V19.5059H20.7803ZM14.6162 11.752V11.7812H14.5957C14.5977 11.7754 14.6035 11.7686 14.6094 11.7607L14.6162 11.752ZM6.76758 7.67578C6.76758 6.79004 7.44141 6.11523 8.46875 6.11523C9.49512 6.11523 10.1289 6.79004 10.1494 7.67578C10.1494 8.54492 9.49512 9.23926 8.4502 9.23926H8.42969C7.42188 9.23926 6.76758 8.54492 6.76758 7.67578ZM9.9502 19.5059H6.94824V10.4707H9.9502V19.5059Z" fill="white"/>
</svg>
