<svg width="131" height="34" viewBox="0 0 131 34" fill="none" xmlns="http://www.w3.org/2000/svg">
<path d="M1.17249 16.3477C1.17249 14.1617 1.10849 12.0567 0.979492 10.0337H4.64349L4.83551 13.7446H4.9325C6.6355 10.9496 9.04548 9.55176 12.1625 9.55176C13.6725 9.55176 15.0065 9.96966 16.1625 10.8057C17.3185 11.6417 18.1395 12.7484 18.6215 14.1294H18.7175C19.5205 12.7154 20.5725 11.6003 21.8745 10.7793C23.1765 9.9613 24.6625 9.55029 26.3325 9.55029C28.5825 9.55029 30.4065 10.3787 31.8045 12.0327C33.2015 13.6887 33.9015 16.1843 33.9015 19.5283V33.4097H29.8035V20.1064C29.8035 15.3504 28.1495 12.9717 24.8385 12.9717C23.6175 12.9717 22.5725 13.3584 21.7055 14.1274C20.8385 14.8984 20.2115 15.9126 19.8265 17.1646C19.6655 17.7425 19.5845 18.3536 19.5845 18.9966V33.4087H15.4885V19.2856C15.4885 17.3576 15.0795 15.8226 14.2595 14.6816C13.4405 13.5406 12.2755 12.9707 10.7655 12.9707C9.5435 12.9707 8.45847 13.3886 7.51147 14.2246C6.56447 15.0606 5.89647 16.1034 5.51147 17.3574C5.35147 17.8714 5.27051 18.4988 5.27051 19.2388V33.4087H1.17352V16.3477H1.17249ZM39.7325 32.0605C38.4145 30.8395 37.7555 29.2327 37.7555 27.2407C37.7555 24.4127 38.9445 22.2523 41.3225 20.7583C43.7005 19.2643 47.0915 18.5334 51.4935 18.5654V18.0835C51.4935 14.4525 49.7585 12.6367 46.2875 12.6367C44.0385 12.6367 42.0615 13.1997 40.3585 14.3247L39.3935 11.5293C41.4835 10.2113 44.0045 9.55273 46.9615 9.55273C52.7455 9.55273 55.6375 12.7163 55.6375 19.0483V27.8687C55.6375 30.0857 55.7665 31.9326 56.0235 33.4116H52.2155L51.8305 30.5205H51.7335C50.1585 32.7685 47.8285 33.8936 44.7445 33.8936C42.7225 33.8926 41.0515 33.2835 39.7325 32.0605ZM48.0005 30.4453C48.6265 30.2053 49.2455 29.8126 49.8565 29.2656C50.9805 28.2366 51.5435 27.0156 51.5435 25.6016V21.5034C45.1485 21.3764 41.9515 23.1263 41.9515 26.7573C41.9515 28.0423 42.3125 29.0406 43.0355 29.7476C43.7595 30.4526 44.6985 30.8066 45.8555 30.8066C46.6575 30.8066 47.3735 30.6873 48.0005 30.4453ZM64.9905 32.3745C63.2555 31.3925 61.9245 30.0115 60.9895 28.2285C60.0575 26.4455 59.5925 24.3653 59.5925 21.9863C59.5925 19.5763 60.0985 17.4313 61.1115 15.5503C62.1245 13.6713 63.5635 12.2006 65.4245 11.1406C67.2865 10.0816 69.4445 9.55029 71.8835 9.55029C74.1975 9.55029 76.0955 9.95237 77.5715 10.7554L76.6555 13.9844C75.2755 13.2464 73.6845 12.8774 71.8835 12.8774C69.3775 12.8774 67.4065 13.7133 65.9795 15.3833C64.5515 17.0553 63.8345 19.1925 63.8345 21.7935C63.8345 24.3975 64.5745 26.5024 66.0515 28.1094C67.5285 29.7144 69.4445 30.5195 71.7875 30.5195C73.3955 30.5195 75.0645 30.1486 76.8005 29.4106L77.4755 32.5928C75.6435 33.4288 73.4935 33.8447 71.0165 33.8447C68.7325 33.8437 66.7265 33.3555 64.9905 32.3745ZM86.9235 31.8438C84.7725 30.4457 83.1095 28.4933 81.9345 25.9863C80.7595 23.4803 80.1745 20.6366 80.1745 17.4556C80.1745 14.1466 80.7955 11.1973 82.0295 8.61133C83.2655 6.02333 84.9945 4.00755 87.2115 2.56055C89.4295 1.11555 91.9835 0.392578 94.8755 0.392578C97.6725 0.392578 100.148 1.08336 102.299 2.46436C104.45 3.84736 106.125 5.79039 107.313 8.29639C108.499 10.8044 109.096 13.6635 109.096 16.8765C109.096 20.2515 108.492 23.2224 107.287 25.7944C106.082 28.3644 104.371 30.3644 102.154 31.7964C99.9375 33.2264 97.3515 33.9414 94.3935 33.9414C91.5675 33.9414 89.0735 33.2427 86.9235 31.8438ZM99.8895 28.8315C101.433 27.6755 102.619 26.0657 103.456 24.0117C104.294 21.9547 104.71 19.6403 104.71 17.0703C104.71 14.5313 104.282 12.2506 103.432 10.2246C102.582 8.20161 101.389 6.61952 99.8655 5.47852C98.3415 4.33552 96.5935 3.76562 94.6365 3.76562C92.6425 3.76562 90.8825 4.35339 89.3585 5.52539C87.8345 6.69939 86.6525 8.31463 85.8155 10.3696C84.9785 12.4266 84.5625 14.7564 84.5625 17.3594C84.5625 19.8654 84.9785 22.1234 85.8155 24.1304C86.6525 26.1404 87.8345 27.7145 89.3585 28.8555C90.8825 29.9965 92.6295 30.5664 94.5875 30.5664C96.5805 30.5664 98.3465 29.9885 99.8895 28.8315ZM111.649 31.8677L112.71 28.3965C114.862 29.7795 117.307 30.4707 120.036 30.4707C122.061 30.4707 123.7 29.9647 124.953 28.9507C126.207 27.9387 126.833 26.5967 126.833 24.9277C126.833 23.4157 126.352 22.1565 125.388 21.1445C124.424 20.1305 122.863 19.2224 120.711 18.4194C115.09 16.2984 112.276 13.2146 112.276 9.16357C112.276 7.49357 112.716 5.99171 113.601 4.65771C114.488 3.32371 115.721 2.28041 117.312 1.52441C118.904 0.768414 120.693 0.391602 122.687 0.391602C125.549 0.391602 127.873 0.90557 129.675 1.93457L128.518 5.35645C126.813 4.32745 124.826 3.81348 122.542 3.81348C120.777 3.81348 119.313 4.26457 118.156 5.16357C116.999 6.06357 116.422 7.23759 116.422 8.68359C116.422 10.0976 116.878 11.2533 117.794 12.1543C118.71 13.0523 120.392 14.0025 122.831 14.9985C125.657 16.1545 127.725 17.4806 129.026 18.9756C130.327 20.4706 130.977 22.3403 130.977 24.5903C130.977 26.4533 130.519 28.0844 129.604 29.4834C128.688 30.8794 127.386 31.9653 125.701 32.7373C124.012 33.5083 122.03 33.8936 119.747 33.8936C116.373 33.8926 113.674 33.2167 111.649 31.8677Z" fill="black"/>
</svg>
