<svg width="97" height="75" viewBox="0 0 97 75" fill="none" xmlns="http://www.w3.org/2000/svg">
<path fill-rule="evenodd" clip-rule="evenodd" d="M54.2964 69.0151C51.3787 69.0151 48.5314 69.0153 45.6841 69.0151C32.231 69.0138 18.7773 68.9534 5.32469 69.0513C1.86315 69.0764 -0.0187107 66.6892 0.00014026 63.6907C0.0921103 48.9371 0.0412709 34.1822 0.0429846 19.428C0.0435559 16.198 1.88372 14.3428 5.11676 14.3422C25.6775 14.3382 46.2384 14.3447 66.7992 14.3359C68.3345 14.3352 69.7447 14.6745 70.6979 15.924C71.2156 16.6026 71.7511 17.4801 71.7779 18.2844C71.8947 21.7981 71.8282 25.3179 71.8282 28.8537C70.1415 29.2061 68.4813 29.5531 66.6737 29.9307C66.6737 29.0763 66.6767 28.2406 66.6731 27.4048C66.6682 26.2016 66.592 26.1226 65.357 26.1224C47.8425 26.1199 30.3276 26.1197 12.8129 26.1188C10.6871 26.1188 8.56059 26.1462 6.43557 26.1045C5.58442 26.0877 5.23425 26.3716 5.23539 27.2489C5.25062 39.0523 5.24377 50.8559 5.24872 62.6591C5.2491 63.6925 5.40486 63.8092 6.61589 63.8092C21.2115 63.8099 35.8073 63.8153 50.403 63.7932C51.126 63.7922 51.503 63.9667 51.8408 64.6546C52.5482 66.097 53.4102 67.4642 54.2964 69.0151ZM16.9839 20.2026C16.9636 19.5202 16.376 18.94 15.6987 18.9343C14.9827 18.9282 14.3684 19.5592 14.3903 20.2788C14.4111 20.9635 14.9968 21.5366 15.6794 21.541C16.3973 21.5456 17.0053 20.9216 16.9839 20.2026ZM7.85016 20.2942C7.87853 19.5775 7.27225 18.9329 6.566 18.9287C5.89118 18.9247 5.29385 19.5011 5.26376 20.1847C5.23253 20.9016 5.83653 21.537 6.55382 21.5418C7.23588 21.5465 7.82293 20.9814 7.85016 20.2942ZM11.1007 21.5412C11.7801 21.554 12.3776 20.9945 12.415 20.3108C12.454 19.5984 11.855 18.9453 11.1464 18.9284C10.4781 18.9124 9.86379 19.4882 9.82494 20.1678C9.7842 20.8807 10.3851 21.5277 11.1007 21.5412Z" fill="white"/>
<path fill-rule="evenodd" clip-rule="evenodd" d="M74.459 28.7128C74.459 23.0582 74.459 17.4551 74.459 11.7617C52.2493 11.7617 30.1188 11.7617 7.85364 11.7617C7.85364 10.5139 7.85326 9.35509 7.85383 8.19604C7.85421 7.08573 7.85383 5.97543 7.85707 4.86493C7.86583 1.90228 9.76654 0.00765353 12.7526 0.00727271C31.0575 0.00441649 49.3624 0.00593898 67.6671 0.0061294C70.1418 0.0061294 72.6164 -0.010627 75.0906 0.0112707C77.6966 0.0345012 79.6628 1.89809 79.6727 4.4761C79.7047 12.6291 79.6821 20.7822 79.6785 28.9352C79.6783 29.0274 79.6505 29.1197 79.6236 29.285C77.9449 29.0991 76.2714 28.9135 74.459 28.7128ZM23.484 7.14857C24.2287 7.16056 24.8087 6.5857 24.7988 5.84442C24.7895 5.14103 24.247 4.59892 23.5386 4.58578C22.8004 4.57188 22.2033 5.15874 22.2137 5.88727C22.224 6.58247 22.7825 7.13695 23.484 7.14857ZM15.6682 5.84195C15.6538 5.09704 15.0669 4.55494 14.3119 4.58959C13.6125 4.62177 13.0813 5.19149 13.0976 5.89241C13.1144 6.59637 13.6637 7.14343 14.3649 7.15409C15.1054 7.16533 15.6825 6.58418 15.6682 5.84195ZM18.9729 4.58845C18.2282 4.58007 17.6472 5.15836 17.6598 5.89564C17.6716 6.59218 18.2284 7.14362 18.9302 7.15371C19.6704 7.16437 20.2498 6.5817 20.2349 5.84137C20.2207 5.13341 19.6797 4.59626 18.9729 4.58845Z" fill="white"/>
<path d="M74.3389 30.6289C62.1061 30.6289 52.1543 40.5807 52.1543 52.8135C52.1543 65.0463 62.1061 74.9981 74.3389 74.9981C86.5717 74.9981 96.5235 65.0463 96.5235 52.8135C96.5235 40.5807 86.5719 30.6289 74.3389 30.6289ZM74.3389 70.149C64.7799 70.149 57.0034 62.3725 57.0034 52.8135C57.0034 43.2549 64.7799 35.478 74.3389 35.478C83.8979 35.478 91.6744 43.2549 91.6744 52.8135C91.6744 62.3725 83.8981 70.149 74.3389 70.149Z" fill="white"/>
<path d="M76.2586 52.8416V43.5435C76.2586 42.5053 75.4171 41.6641 74.3796 41.6641C73.3414 41.6641 72.5 42.5053 72.5 43.5435V53.4419C72.5 53.4713 72.5072 53.4993 72.5088 53.5288C72.484 54.04 72.6599 54.5587 73.0503 54.9493L80.0501 61.9483C80.7843 62.6826 81.9742 62.6826 82.7079 61.9483C83.4418 61.2141 83.442 60.0244 82.7079 59.2905L76.2586 52.8416Z" fill="white"/>
</svg>
