<svg width="340" height="219" viewBox="0 0 340 219" fill="none" xmlns="http://www.w3.org/2000/svg">
<path d="M90.4442 41.7587L91.3092 42.4457C92.4652 43.3627 92.6602 45.0456 91.7412 46.2026C90.8252 47.3596 89.1391 47.5547 87.9851 46.6357L87.1201 45.9487C85.9641 45.0307 85.7712 43.3508 86.6892 42.1928C87.2162 41.5268 87.9951 41.1807 88.7861 41.1807C89.3661 41.1797 89.9542 41.3697 90.4442 41.7587Z" fill="#39974A"/>
<path d="M109.464 56.8622L110.327 57.5492C111.483 58.4682 111.675 60.1511 110.757 61.3071C109.837 62.4631 108.155 62.6541 106.999 61.7341L106.136 61.0492C104.98 60.1292 104.788 58.4472 105.706 57.2922C106.235 56.6272 107.015 56.2822 107.802 56.2822C108.384 56.2822 108.972 56.4702 109.464 56.8622Z" fill="#39974A"/>
<path d="M118.972 64.4121L119.835 65.1001C120.992 66.0181 121.185 67.7011 120.265 68.8561C119.347 70.0131 117.665 70.205 116.507 69.286L115.646 68.598C114.488 67.68 114.296 65.997 115.216 64.842C115.743 64.178 116.523 63.832 117.31 63.832C117.893 63.832 118.479 64.0221 118.972 64.4121Z" fill="#39974A"/>
<path d="M128.479 71.9618L129.342 72.6498C130.498 73.5668 130.694 75.2509 129.774 76.4069C128.856 77.5619 127.176 77.7568 126.018 76.8358L125.153 76.1509C123.997 75.2309 123.803 73.5488 124.721 72.3938C125.248 71.7288 126.03 71.3818 126.817 71.3818C127.399 71.3828 127.987 71.5718 128.479 71.9618Z" fill="#39974A"/>
<path d="M137.987 79.5126L138.85 80.1986C140.008 81.1176 140.2 82.7995 139.283 83.9565C138.363 85.1115 136.682 85.3065 135.525 84.3895L134.66 83.7015C133.504 82.7835 133.311 81.1006 134.229 79.9456C134.758 79.2796 135.538 78.9336 136.326 78.9336C136.907 78.9326 137.497 79.1216 137.987 79.5126Z" fill="#39974A"/>
<path d="M147.495 87.0653L148.36 87.7523C149.516 88.6713 149.709 90.3533 148.791 91.5093C147.874 92.6653 146.192 92.8603 145.033 91.9413L144.168 91.2543C143.014 90.3363 142.819 88.6544 143.737 87.4964C144.266 86.8324 145.046 86.4863 145.833 86.4863C146.415 86.4843 147.003 86.6733 147.495 87.0653Z" fill="#39974A"/>
<path d="M157.003 94.6141L157.868 95.3011C159.024 96.2201 159.218 97.9032 158.3 99.0592C157.38 100.214 155.698 100.406 154.542 99.4882L153.679 98.8042C152.523 97.8842 152.329 96.2041 153.247 95.0461C153.776 94.3821 154.556 94.0361 155.343 94.0361C155.927 94.0361 156.513 94.2251 157.003 94.6141Z" fill="#39974A"/>
<path d="M166.511 102.166L167.376 102.853C168.533 103.771 168.726 105.454 167.806 106.611C166.89 107.766 165.206 107.959 164.052 107.04L163.187 106.354C162.031 105.436 161.837 103.753 162.755 102.597C163.284 101.933 164.066 101.587 164.853 101.587C165.434 101.587 166.02 101.775 166.511 102.166Z" fill="#39974A"/>
<path d="M176.02 109.717L176.883 110.404C178.039 111.322 178.233 113.004 177.313 114.161C176.397 115.317 174.711 115.51 173.559 114.592L172.694 113.904C171.538 112.986 171.344 111.304 172.264 110.148C172.791 109.483 173.573 109.138 174.36 109.138C174.942 109.137 175.53 109.326 176.02 109.717Z" fill="#39974A"/>
<path d="M185.526 117.267L186.393 117.953C187.549 118.872 187.743 120.554 186.825 121.71C185.907 122.867 184.223 123.064 183.067 122.144L182.204 121.458C181.046 120.539 180.852 118.856 181.772 117.701C182.297 117.035 183.079 116.687 183.867 116.687C184.45 116.687 185.036 116.877 185.526 117.267Z" fill="#39974A"/>
<path d="M195.034 124.816L195.901 125.504C197.057 126.421 197.25 128.104 196.333 129.259C195.415 130.415 193.731 130.611 192.577 129.693L191.712 129.005C190.556 128.088 190.36 126.405 191.28 125.249C191.805 124.584 192.587 124.237 193.375 124.237C193.958 124.238 194.543 124.427 195.034 124.816Z" fill="#39974A"/>
<path d="M204.544 132.368L205.408 133.055C206.564 133.972 206.759 135.654 205.841 136.812C204.925 137.968 203.241 138.164 202.085 137.244L201.219 136.557C200.063 135.639 199.869 133.958 200.787 132.8C201.314 132.134 202.094 131.787 202.883 131.787C203.466 131.788 204.055 131.977 204.544 132.368Z" fill="#39974A"/>
<path d="M214.054 139.919L214.917 140.607C216.074 141.524 216.267 143.207 215.349 144.363C214.431 145.519 212.747 145.71 211.591 144.793L210.728 144.107C209.572 143.187 209.38 141.506 210.298 140.349C210.825 139.685 211.605 139.34 212.394 139.34C212.975 139.341 213.563 139.529 214.054 139.919Z" fill="#39974A"/>
<path d="M223.561 147.471L224.424 148.158C225.58 149.076 225.774 150.758 224.856 151.914C223.938 153.07 222.254 153.264 221.1 152.345L220.235 151.659C219.081 150.739 218.887 149.058 219.805 147.902C220.332 147.237 221.112 146.89 221.901 146.89C222.483 146.89 223.071 147.08 223.561 147.471Z" fill="#39974A"/>
<path d="M233.069 155.021L233.934 155.706C235.09 156.625 235.283 158.308 234.366 159.463C233.45 160.62 231.766 160.815 230.61 159.897L229.745 159.209C228.587 158.29 228.394 156.608 229.312 155.454C229.841 154.788 230.62 154.441 231.409 154.441C231.991 154.44 232.577 154.63 233.069 155.021Z" fill="#39974A"/>
<path d="M252.084 170.122L252.95 170.809C254.106 171.726 254.302 173.408 253.382 174.565C252.466 175.72 250.782 175.917 249.628 174.997L248.761 174.311C247.603 173.393 247.411 171.711 248.329 170.554C248.856 169.89 249.636 169.543 250.425 169.543C251.007 169.542 251.593 169.731 252.084 170.122Z" fill="#39974A"/>
<path d="M64.4617 157.928C64.4617 171.58 53.3837 182.636 39.7427 182.636C26.0807 182.636 15.0127 171.58 15.0127 157.928C15.0127 144.266 26.0807 133.199 39.7427 133.199C53.3837 133.199 64.4617 144.266 64.4617 157.928Z" fill="#99C562"/>
<path opacity="0.1" d="M39.7427 138.628C50.3747 138.628 59.0277 147.285 59.0277 157.927C59.0277 168.557 50.3747 177.204 39.7427 177.204C29.1017 177.204 20.4437 168.557 20.4437 157.927C20.4437 147.286 29.1017 138.628 39.7427 138.628ZM39.7427 133.199C26.0807 133.199 15.0127 144.265 15.0127 157.928C15.0127 171.58 26.0807 182.636 39.7427 182.636C53.3837 182.636 64.4617 171.58 64.4617 157.928C64.4617 144.266 53.3837 133.199 39.7427 133.199Z" fill="black"/>
<path d="M39.743 186.939C25.45 186.939 11.952 190.333 0 196.35C8.131 209.781 22.887 218.766 39.743 218.766C56.589 218.766 71.3371 209.778 79.4661 196.346C67.5181 190.33 54.028 186.939 39.743 186.939Z" fill="#99C562"/>
<path opacity="0.1" d="M39.743 192.37C50.712 192.37 61.2801 194.449 71.2571 198.558C63.5281 207.906 52.132 213.333 39.743 213.333C27.347 213.333 15.946 207.906 8.21204 198.56C18.188 194.449 28.768 192.37 39.743 192.37ZM39.743 186.939C25.45 186.939 11.952 190.333 0 196.35C8.131 209.781 22.887 218.766 39.743 218.766C56.589 218.766 71.3371 209.778 79.4661 196.346C67.5181 190.33 54.028 186.939 39.743 186.939Z" fill="black"/>
<path d="M324.587 155.408C324.587 169.062 313.511 180.114 299.87 180.114C286.208 180.114 275.141 169.063 275.141 155.408C275.141 141.748 286.207 130.681 299.87 130.681C313.511 130.682 324.587 141.748 324.587 155.408Z" fill="#39974A"/>
<path opacity="0.1" d="M299.87 136.109C310.503 136.109 319.155 144.765 319.155 155.408C319.155 166.037 310.503 174.686 299.87 174.686C289.229 174.686 280.575 166.038 280.575 155.408C280.575 144.766 289.229 136.109 299.87 136.109ZM299.87 130.682C286.208 130.682 275.141 141.748 275.141 155.409C275.141 169.063 286.207 180.115 299.87 180.115C313.511 180.115 324.587 169.064 324.587 155.409C324.587 141.748 313.511 130.682 299.87 130.682Z" fill="black"/>
<path d="M299.87 184.42C285.579 184.42 272.079 187.812 260.13 193.832C268.261 207.263 283.015 216.246 299.87 216.246C316.716 216.246 331.464 207.259 339.593 193.828C327.645 187.811 314.155 184.42 299.87 184.42Z" fill="#39974A"/>
<path opacity="0.1" d="M299.87 189.85C310.837 189.85 321.407 191.93 331.384 196.036C323.655 205.388 312.259 210.815 299.87 210.815C287.475 210.815 276.075 205.388 268.341 196.042C278.317 191.93 288.895 189.85 299.87 189.85ZM299.87 184.42C285.579 184.42 272.079 187.812 260.13 193.832C268.261 207.263 283.015 216.246 299.87 216.246C316.716 216.246 331.464 207.259 339.593 193.828C327.645 187.811 314.155 184.42 299.87 184.42Z" fill="black"/>
<path d="M64.6676 24.7476C64.6676 38.3996 53.5916 49.4536 39.9506 49.4536C26.2906 49.4536 15.2246 38.4006 15.2246 24.7476C15.2246 11.0856 26.2906 0.0195312 39.9506 0.0195312C53.5926 0.0195312 64.6676 11.0856 64.6676 24.7476Z" fill="#39974A"/>
<path opacity="0.1" d="M39.9515 5.44763C50.5865 5.44763 59.2345 14.1066 59.2345 24.7476C59.2345 35.3756 50.5865 44.0236 39.9515 44.0236C29.3115 44.0236 20.6545 35.3756 20.6545 24.7476C20.6545 14.1066 29.3105 5.44763 39.9515 5.44763ZM39.9515 0.0195312C26.2915 0.0195312 15.2256 11.0856 15.2256 24.7476C15.2256 38.3996 26.2915 49.4536 39.9515 49.4536C53.5925 49.4536 64.6686 38.4006 64.6686 24.7476C64.6676 11.0856 53.5925 0.0195312 39.9515 0.0195312Z" fill="black"/>
<path d="M39.9519 53.7598C25.6589 53.7598 12.161 57.1518 0.209961 63.1688C8.34296 76.6038 23.0969 85.5848 39.9519 85.5848C56.7979 85.5848 71.546 76.5978 79.673 63.1648C67.727 57.1498 54.2369 53.7598 39.9519 53.7598Z" fill="#39974A"/>
<path opacity="0.1" d="M39.9519 59.1888C50.9189 59.1888 61.4889 61.2689 71.4659 65.3759C63.7369 74.7279 52.3409 80.1538 39.9519 80.1538C27.5579 80.1538 16.155 74.7269 8.42297 65.3809C18.399 61.2689 28.9749 59.1888 39.9519 59.1888ZM39.9519 53.7598C25.6589 53.7598 12.161 57.1518 0.209961 63.1688C8.34296 76.6038 23.0969 85.5848 39.9519 85.5848C56.7979 85.5848 71.546 76.5978 79.673 63.1648C67.727 57.1498 54.2369 53.7598 39.9519 53.7598Z" fill="black"/>
<path d="M79.2761 183.129C78.4871 183.129 77.7082 182.781 77.1802 182.114C76.2602 180.957 76.4552 179.278 77.6122 178.359L78.4772 177.673C79.6332 176.754 81.3171 176.948 82.2331 178.107C83.1511 179.263 82.9591 180.944 81.8011 181.862L80.9361 182.55C80.4461 182.939 79.8581 183.129 79.2761 183.129Z" fill="#99C562"/>
<path d="M88.7861 175.576C87.9951 175.576 87.2162 175.228 86.6892 174.564C85.7712 173.408 85.9641 171.726 87.1201 170.808L87.9851 170.121C89.1391 169.201 90.8252 169.395 91.7412 170.554C92.6612 171.71 92.4662 173.392 91.3092 174.311L90.4442 174.995C89.9542 175.389 89.3661 175.576 88.7861 175.576Z" fill="#99C562"/>
<path d="M98.2927 168.025C97.5057 168.025 96.7247 167.679 96.1977 167.015C95.2797 165.86 95.4707 164.177 96.6277 163.258L97.4907 162.571C98.6467 161.652 100.331 161.844 101.249 163.002C102.166 164.157 101.976 165.84 100.819 166.757L99.9538 167.445C99.4638 167.837 98.8777 168.025 98.2927 168.025Z" fill="#99C562"/>
<path d="M107.801 160.475C107.014 160.475 106.236 160.129 105.706 159.466C104.788 158.31 104.978 156.627 106.135 155.708L106.998 155.022C108.154 154.102 109.837 154.295 110.757 155.451C111.675 156.606 111.483 158.289 110.326 159.208L109.463 159.894C108.971 160.286 108.383 160.475 107.801 160.475Z" fill="#99C562"/>
<path d="M117.309 152.925C116.522 152.925 115.743 152.58 115.215 151.916C114.295 150.759 114.486 149.076 115.645 148.157L116.506 147.47C117.664 146.551 119.346 146.742 120.264 147.9C121.184 149.055 120.991 150.737 119.834 151.658L118.971 152.344C118.479 152.735 117.893 152.925 117.309 152.925Z" fill="#99C562"/>
<path d="M126.817 145.374C126.03 145.374 125.249 145.029 124.721 144.363C123.803 143.206 123.996 141.524 125.153 140.607L126.018 139.919C127.176 139.001 128.856 139.193 129.774 140.351C130.694 141.507 130.499 143.188 129.342 144.108L128.479 144.794C127.987 145.185 127.399 145.374 126.817 145.374Z" fill="#99C562"/>
<path d="M136.327 137.824C135.538 137.824 134.759 137.476 134.23 136.812C133.312 135.654 133.505 133.974 134.661 133.054L135.526 132.367C136.682 131.448 138.364 131.643 139.284 132.8C140.2 133.955 140.009 135.637 138.851 136.557L137.988 137.244C137.497 137.633 136.907 137.824 136.327 137.824Z" fill="#D1D4D3"/>
<path d="M145.833 130.272C145.046 130.272 144.267 129.926 143.737 129.26C142.819 128.105 143.014 126.423 144.168 125.505L145.033 124.818C146.191 123.899 147.873 124.094 148.791 125.25C149.709 126.406 149.516 128.089 148.36 129.007L147.495 129.695C147.003 130.084 146.415 130.272 145.833 130.272Z" fill="#D1D4D3"/>
<path d="M155.343 122.721C154.556 122.721 153.777 122.375 153.247 121.711C152.329 120.555 152.522 118.872 153.679 117.954L154.542 117.267C155.699 116.347 157.38 116.541 158.3 117.697C159.218 118.853 159.025 120.535 157.868 121.453L157.003 122.141C156.513 122.531 155.927 122.721 155.343 122.721Z" fill="#D1D4D3"/>
<path d="M164.852 115.172C164.065 115.172 163.283 114.824 162.754 114.16C161.836 113.003 162.029 111.322 163.186 110.403L164.051 109.716C165.205 108.797 166.889 108.989 167.805 110.147C168.725 111.303 168.532 112.985 167.375 113.903L166.51 114.591C166.02 114.982 165.434 115.172 164.852 115.172Z" fill="#D1D4D3"/>
<path d="M174.36 107.62C173.573 107.62 172.791 107.274 172.264 106.611C171.344 105.454 171.537 103.771 172.694 102.853L173.559 102.166C174.711 101.248 176.397 101.441 177.313 102.597C178.233 103.753 178.04 105.436 176.883 106.354L176.02 107.04C175.53 107.431 174.942 107.62 174.36 107.62Z" fill="#D1D4D3"/>
<path d="M183.868 100.069C183.079 100.069 182.298 99.722 181.773 99.058C180.853 97.9 181.046 96.2199 182.205 95.3009L183.068 94.6139C184.224 93.6949 185.908 93.89 186.826 95.047C187.744 96.204 187.551 97.8869 186.394 98.8039L185.527 99.49C185.036 99.88 184.45 100.069 183.868 100.069Z" fill="#D1D4D3"/>
<path d="M193.375 92.5192C192.586 92.5192 191.805 92.1732 191.28 91.5072C190.36 90.3502 190.555 88.6682 191.712 87.7502L192.577 87.0642C193.732 86.1442 195.415 86.3382 196.333 87.4972C197.25 88.6532 197.058 90.3351 195.901 91.2541L195.034 91.9402C194.543 92.3292 193.958 92.5192 193.375 92.5192Z" fill="#D1D4D3"/>
<path d="M202.884 84.9677C202.095 84.9677 201.316 84.6208 200.788 83.9558C199.87 82.7998 200.063 81.1178 201.22 80.1998L202.085 79.5138C203.242 78.5938 204.925 78.7898 205.841 79.9468C206.759 81.1028 206.566 82.7847 205.409 83.7027L204.544 84.3908C204.054 84.7788 203.466 84.9677 202.884 84.9677Z" fill="#D1D4D3"/>
<path d="M212.393 77.4169C211.604 77.4169 210.825 77.0689 210.297 76.4069C209.379 75.2509 209.57 73.5668 210.727 72.6498L211.59 71.9639C212.746 71.0439 214.43 71.2378 215.348 72.3938C216.266 73.5498 216.073 75.2309 214.916 76.1509L214.053 76.8358C213.563 77.2288 212.975 77.4169 212.393 77.4169Z" fill="#99C562"/>
<path d="M221.901 69.8672C221.112 69.8672 220.333 69.5202 219.805 68.8562C218.887 67.6992 219.08 66.0172 220.235 65.0982L221.101 64.4111C222.255 63.4931 223.939 63.6852 224.857 64.8422C225.775 65.9992 225.581 67.6812 224.424 68.6002L223.561 69.2872C223.071 69.6772 222.483 69.8672 221.901 69.8672Z" fill="#99C562"/>
<path d="M231.409 62.3154C230.62 62.3154 229.841 61.9704 229.312 61.3064C228.394 60.1484 228.587 58.4664 229.745 57.5504L230.61 56.8634C231.766 55.9444 233.45 56.1384 234.366 57.2944C235.283 58.4524 235.091 60.1344 233.934 61.0514L233.069 61.7384C232.577 62.1274 231.991 62.3154 231.409 62.3154Z" fill="#99C562"/>
<path d="M240.916 54.7662C240.127 54.7662 239.348 54.4191 238.821 53.7531C237.903 52.5961 238.094 50.9161 239.253 49.9971L240.118 49.3092C241.275 48.3902 242.956 48.5881 243.874 49.7441C244.791 50.8991 244.599 52.5822 243.442 53.5002L242.576 54.1861C242.087 54.5781 241.499 54.7662 240.916 54.7662Z" fill="#99C562"/>
<path d="M250.425 47.2155C249.636 47.2155 248.857 46.8674 248.329 46.2024C247.411 45.0464 247.602 43.3645 248.761 42.4455L249.628 41.7594C250.782 40.8404 252.466 41.0354 253.382 42.1924C254.302 43.3494 254.107 45.0295 252.95 45.9495L252.084 46.6354C251.593 47.0244 251.007 47.2155 250.425 47.2155Z" fill="#99C562"/>
<path d="M259.932 39.6648C259.145 39.6648 258.366 39.3189 257.836 38.6529C256.918 37.4959 257.111 35.8138 258.268 34.8948L259.133 34.2068C260.289 33.2888 261.971 33.4839 262.889 34.6409C263.807 35.7959 263.616 37.4779 262.459 38.3959L261.594 39.0839C261.102 39.4749 260.514 39.6648 259.932 39.6648Z" fill="#99C562"/>
<path fill-rule="evenodd" clip-rule="evenodd" d="M137.372 61.0415L179.163 59.8535L208.479 88.1776L206.302 149.776L201.348 156.312L195.407 157.898H141.532L135.589 154.333L131.43 145.618V72.7275L132.817 66.5865L137.372 61.0415Z" fill="#39974A"/>
<path fill-rule="evenodd" clip-rule="evenodd" d="M178.925 54.9004C179.31 54.9804 179.698 55.0435 180.081 55.1415C181.808 55.5835 183.323 56.4654 184.686 57.5754C186.262 58.8584 187.826 60.1715 189.276 61.5945C193.434 65.6735 197.524 69.8194 201.653 73.9294C203.712 75.9784 205.778 78.0235 207.633 80.2665C208.809 81.6905 209.881 83.1815 210.572 84.9135C210.945 85.8465 211.158 86.8115 211.158 87.8185C211.16 107.091 211.188 126.366 211.137 145.641C211.125 150.466 209.153 154.508 205.551 157.726C203.065 159.949 200.141 161.248 196.846 161.704C196.153 161.799 195.448 161.844 194.75 161.844C178.268 161.852 161.79 161.874 145.309 161.837C140.34 161.824 136.194 159.857 132.908 156.121C130.797 153.717 129.541 150.904 129.066 147.748C128.962 147.067 128.912 146.375 128.912 145.686C128.904 120.85 128.891 96.0115 128.915 71.1725C128.919 66.5045 130.748 62.5635 134.121 59.3605C136.624 56.9805 139.624 55.5734 143.039 55.0604C143.458 54.9974 143.887 54.9544 144.312 54.9004C155.85 54.9004 167.388 54.9004 178.925 54.9004ZM137.118 108.345C137.118 120.719 137.118 133.093 137.12 145.467C137.12 145.839 137.15 146.217 137.204 146.581C137.85 150.711 141.235 153.615 145.434 153.616C161.823 153.624 178.213 153.619 194.602 153.621C195.934 153.621 197.219 153.375 198.395 152.746C201.348 151.156 202.92 148.664 202.926 145.311C202.949 127.541 202.936 109.773 202.936 92.0034C202.936 91.9254 202.934 91.8455 202.932 91.7665C202.862 89.9875 202.063 88.9095 200.375 88.3395C199.106 87.9085 197.783 87.8295 196.463 87.8245C191.813 87.8055 187.164 87.8154 182.516 87.8124C180.053 87.8104 178.25 86.0104 178.25 83.5564C178.25 79.5174 178.262 75.4804 178.244 71.4424C178.238 70.0434 178.19 68.6404 178.102 67.2424C178.045 66.3504 177.842 65.4744 177.381 64.6874C176.785 63.6764 175.945 63.1024 174.707 63.1034C165.002 63.1234 155.299 63.1194 145.594 63.1234C145.266 63.1234 144.938 63.1434 144.612 63.1694C140.393 63.5264 137.118 67.0924 137.118 71.3254C137.118 83.6654 137.118 96.0055 137.118 108.345Z" fill="#39974A"/>
<path fill-rule="evenodd" clip-rule="evenodd" d="M171.378 88.375C171.64 88.399 171.901 88.422 172.163 88.448C173.315 88.571 174.421 88.865 175.476 89.35C176.73 89.925 177.816 90.7289 178.712 91.7799C179.505 92.7129 180.105 93.763 180.546 94.903C181.007 96.085 181.276 97.3149 181.411 98.5759C181.534 99.7299 181.501 100.886 181.505 102.041C181.505 102.049 181.501 102.058 181.495 102.075C179.982 102.075 178.464 102.075 176.935 102.075C176.935 102.02 176.937 101.971 176.935 101.923C176.925 101.126 176.945 100.328 176.902 99.5359C176.828 98.1539 176.548 96.8159 175.863 95.5929C175.054 94.1569 173.84 93.292 172.201 93.047C171.152 92.89 170.107 92.897 169.07 93.137C167.703 93.451 166.683 94.2489 165.949 95.4249C165.445 96.2299 165.152 97.1149 164.969 98.0409C164.801 98.8829 164.746 99.732 164.746 100.589C164.748 101.038 164.746 101.485 164.746 101.935C164.746 101.979 164.746 102.024 164.746 102.078C163.221 102.078 161.707 102.078 160.18 102.078C160.18 102.022 160.18 101.974 160.18 101.923C160.184 101.186 160.17 100.447 160.196 99.7109C160.268 97.6219 160.673 95.611 161.645 93.74C162.225 92.626 162.973 91.6419 163.928 90.8209C164.971 89.9249 166.155 89.2879 167.465 88.8789C168.336 88.6079 169.227 88.4459 170.137 88.3989C170.192 88.3949 170.244 88.382 170.297 88.376C170.655 88.375 171.016 88.375 171.378 88.375Z" fill="white"/>
<path fill-rule="evenodd" clip-rule="evenodd" d="M170.843 103.608C174.378 103.608 177.915 103.607 181.45 103.611C182.788 103.611 183.927 104.09 184.845 105.064C185.671 105.945 186.077 107.003 186.077 108.21C186.081 113.272 186.095 118.333 186.071 123.394C186.063 125.254 185.178 126.634 183.536 127.508C182.901 127.845 182.21 127.988 181.491 127.988C174.391 127.988 167.29 127.991 160.188 127.987C158.002 127.987 156.149 126.478 155.704 124.341C155.638 124.024 155.612 123.693 155.612 123.367C155.606 118.319 155.608 113.272 155.61 108.221C155.61 106.083 157.003 104.278 159.055 103.751C159.446 103.649 159.842 103.608 160.248 103.608C163.778 103.609 167.311 103.608 170.843 103.608ZM169.315 118.701C169.315 119.092 169.311 119.479 169.317 119.869C169.319 120.12 169.309 120.374 169.344 120.621C169.453 121.442 170.297 122.03 171.11 121.867C171.862 121.716 172.36 121.113 172.362 120.346C172.364 119.311 172.372 118.276 172.356 117.242C172.352 116.995 172.395 116.815 172.635 116.718C172.641 116.714 172.647 116.707 172.655 116.702C173.872 115.815 174.247 114.142 173.52 112.822C172.854 111.613 171.51 111.006 170.157 111.303C168.666 111.632 167.62 113.111 167.813 114.617C167.936 115.572 168.413 116.306 169.215 116.827C169.293 116.878 169.319 116.929 169.317 117.017C169.313 117.579 169.315 118.14 169.315 118.701Z" fill="white"/>
<path opacity="0.1" fill-rule="evenodd" clip-rule="evenodd" d="M178.925 54.9004C179.31 54.9804 179.698 55.0435 180.081 55.1415C181.808 55.5835 183.323 56.4654 184.686 57.5754C186.262 58.8584 187.826 60.1715 189.276 61.5945C193.434 65.6735 197.524 69.8194 201.653 73.9294C203.712 75.9784 205.778 78.0235 207.633 80.2665C208.809 81.6905 209.881 83.1815 210.572 84.9135C210.945 85.8465 211.158 86.8115 211.158 87.8185C211.16 107.091 211.188 126.366 211.137 145.641C211.125 150.466 209.153 154.508 205.551 157.726C203.065 159.949 200.141 161.248 196.846 161.704C196.153 161.799 195.448 161.844 194.75 161.844C178.268 161.852 161.79 161.874 145.309 161.837C140.34 161.824 136.194 159.857 132.908 156.121C130.797 153.717 129.541 150.904 129.066 147.748C128.962 147.067 128.912 146.375 128.912 145.686C128.904 120.85 128.891 96.0115 128.915 71.1725C128.919 66.5045 130.748 62.5635 134.121 59.3605C136.624 56.9805 139.624 55.5734 143.039 55.0604C143.458 54.9974 143.887 54.9544 144.312 54.9004C155.85 54.9004 167.388 54.9004 178.925 54.9004ZM137.118 108.345C137.118 120.719 137.118 133.093 137.12 145.467C137.12 145.839 137.15 146.217 137.204 146.581C137.85 150.711 141.235 153.615 145.434 153.616C161.823 153.624 178.213 153.619 194.602 153.621C195.934 153.621 197.219 153.375 198.395 152.746C201.348 151.156 202.92 148.664 202.926 145.311C202.949 127.541 202.936 109.773 202.936 92.0034C202.936 91.9254 202.934 91.8455 202.932 91.7665C202.862 89.9875 202.063 88.9095 200.375 88.3395C199.106 87.9085 197.783 87.8295 196.463 87.8245C191.813 87.8055 187.164 87.8154 182.516 87.8124C180.053 87.8104 178.25 86.0104 178.25 83.5564C178.25 79.5174 178.262 75.4804 178.244 71.4424C178.238 70.0434 178.19 68.6404 178.102 67.2424C178.045 66.3504 177.842 65.4744 177.381 64.6874C176.785 63.6764 175.945 63.1024 174.707 63.1034C165.002 63.1234 155.299 63.1194 145.594 63.1234C145.266 63.1234 144.938 63.1434 144.612 63.1694C140.393 63.5264 137.118 67.0924 137.118 71.3254C137.118 83.6654 137.118 96.0055 137.118 108.345Z" fill="black"/>
<path d="M324.995 24.7289C324.995 38.3819 313.921 49.434 300.278 49.434C286.617 49.434 275.551 38.3819 275.551 24.7289C275.551 11.0669 286.617 0 300.278 0C313.921 0 324.995 11.0659 324.995 24.7289Z" fill="#99C562"/>
<path opacity="0.1" d="M300.278 5.42896C310.91 5.42896 319.565 14.0849 319.565 24.7279C319.565 35.3559 310.91 44.0039 300.278 44.0039C289.637 44.0039 280.981 35.3559 280.981 24.7279C280.981 14.0849 289.638 5.42896 300.278 5.42896ZM300.278 0C286.617 0 275.551 11.0659 275.551 24.7289C275.551 38.3819 286.617 49.434 300.278 49.434C313.921 49.434 324.995 38.3819 324.995 24.7289C324.995 11.0659 313.921 0 300.278 0Z" fill="black"/>
<path d="M300.278 53.7402C285.985 53.7402 272.487 57.1332 260.538 63.1512C268.668 76.5832 283.423 85.5652 300.278 85.5652C317.124 85.5652 331.874 76.5792 340 63.1472C328.054 57.1302 314.563 53.7402 300.278 53.7402Z" fill="#99C562"/>
<path opacity="0.1" d="M300.278 59.1682C311.247 59.1682 321.817 61.2492 331.793 65.3582C324.065 74.7052 312.666 80.1332 300.278 80.1332C287.883 80.1332 276.481 74.7041 268.749 65.3591C278.725 61.2491 289.304 59.1682 300.278 59.1682ZM300.278 53.7402C285.985 53.7402 272.487 57.1332 260.538 63.1512C268.668 76.5832 283.423 85.5652 300.278 85.5652C317.124 85.5652 331.874 76.5792 340 63.1472C328.054 57.1302 314.563 53.7402 300.278 53.7402Z" fill="black"/>
<path d="M88.5842 58.7827C96.5747 58.7827 103.052 52.3052 103.052 44.3147C103.052 36.3242 96.5747 29.8467 88.5842 29.8467C80.5938 29.8467 74.1162 36.3242 74.1162 44.3147C74.1162 52.3052 80.5938 58.7827 88.5842 58.7827Z" fill="#39974A"/>
<path opacity="0.1" d="M88.5842 33.0547C94.7932 33.0547 99.8441 38.1067 99.8441 44.3147C99.8441 50.5237 94.7932 55.5747 88.5842 55.5747C82.3772 55.5747 77.3252 50.5237 77.3252 44.3147C77.3252 38.1067 82.3772 33.0547 88.5842 33.0547ZM88.5842 29.8467C80.5942 29.8467 74.1162 36.3247 74.1162 44.3147C74.1162 52.3057 80.5952 58.7837 88.5842 58.7837C96.5752 58.7837 103.051 52.3057 103.051 44.3147C103.052 36.3237 96.5752 29.8467 88.5842 29.8467Z" fill="black"/>
<path d="M250.952 187.707C258.942 187.707 265.419 181.23 265.419 173.24C265.419 165.251 258.942 158.773 250.952 158.773C242.962 158.773 236.485 165.251 236.485 173.24C236.485 181.23 242.962 187.707 250.952 187.707Z" fill="#39974A"/>
<path opacity="0.1" d="M250.951 161.979C257.16 161.979 262.211 167.031 262.211 173.24C262.211 179.447 257.16 184.5 250.951 184.5C244.744 184.5 239.694 179.447 239.694 173.24C239.694 167.031 244.745 161.979 250.951 161.979ZM250.951 158.771C242.961 158.771 236.485 165.249 236.485 173.24C236.485 181.231 242.962 187.707 250.951 187.707C258.942 187.707 265.418 181.23 265.418 173.24C265.418 165.248 258.942 158.771 250.951 158.771Z" fill="black"/>
<path fill-rule="evenodd" clip-rule="evenodd" d="M93.9636 39.5312C94.8016 39.9313 95.1296 40.5102 94.8796 41.2032C94.8016 41.4092 94.6646 41.6123 94.5106 41.7693C92.2256 44.0633 89.9366 46.3534 87.6456 48.6414C87.0326 49.2504 86.3096 49.2503 85.6926 48.6393C84.6786 47.6333 83.6687 46.6244 82.6637 45.6104C82.0847 45.0274 82.0566 44.2713 82.5776 43.7383C83.1056 43.1993 83.8807 43.2273 84.4747 43.8163C85.1977 44.5353 85.9136 45.2573 86.6596 46.0063C86.7746 45.8983 86.8766 45.8063 86.9726 45.7113C88.7836 43.8993 90.5916 42.0833 92.4116 40.2812C92.6946 40.0012 93.0367 39.7783 93.3517 39.5293C93.5537 39.5313 93.7566 39.5312 93.9636 39.5312Z" fill="white"/>
<path fill-rule="evenodd" clip-rule="evenodd" d="M256.331 168.456C257.171 168.856 257.499 169.436 257.247 170.127C257.171 170.335 257.032 170.536 256.875 170.695C254.592 172.988 252.303 175.279 250.012 177.565C249.399 178.176 248.676 178.175 248.059 177.565C247.047 176.558 246.038 175.549 245.032 174.536C244.454 173.954 244.425 173.196 244.944 172.664C245.471 172.124 246.247 172.154 246.84 172.743C247.565 173.461 248.279 174.183 249.026 174.931C249.141 174.821 249.243 174.733 249.339 174.637C251.15 172.826 252.958 171.01 254.778 169.208C255.061 168.926 255.403 168.706 255.717 168.456C255.921 168.456 256.124 168.456 256.331 168.456Z" fill="white"/>
</svg>
