<svg width="124" height="20" viewBox="0 0 124 20" fill="none" xmlns="http://www.w3.org/2000/svg">
<path d="M100.132 12.3025C100.132 13.1255 99.415 13.5835 98.179 13.5835H95.023V11.0005H98.134C99.501 11.0005 100.132 11.5015 100.132 12.2635V12.3025ZM95.022 5.8145H97.67C98.889 5.8145 99.522 6.2535 99.522 7.0155V7.0555C99.522 7.8765 98.827 8.2785 97.586 8.2785H95.022V5.8145ZM101.288 9.3805C102.593 8.8415 103.558 7.8765 103.558 6.2545V6.2155C103.558 5.2545 103.203 4.5145 102.611 3.9535C101.752 3.1315 100.447 2.6875 98.597 2.6875H91.781C91.424 2.6875 91.043 2.9845 91.043 3.4195V15.9845C91.043 16.3555 91.391 16.7115 91.781 16.7115H98.64C102.15 16.7115 104.21 15.2455 104.21 12.8455V12.8035C104.21 10.8995 103.077 9.9395 101.288 9.3805Z" fill="#36424A"/>
<path d="M28.4067 16.7094C28.8127 16.7094 29.1427 16.3794 29.1427 15.9724V14.1384C29.1427 13.7324 28.8127 13.4024 28.4067 13.4024L21.3457 13.4034V11.1814H27.7247C28.1037 11.1814 28.4067 10.8764 28.4067 10.4984V8.79943C28.4067 8.42243 28.1037 8.11643 27.7247 8.11643H21.3457V5.99643H28.4067C28.8127 5.99643 29.1427 5.66843 29.1427 5.26243V3.42643C29.1427 3.02043 28.8127 2.69343 28.4067 2.69343L18.2017 2.69043C17.7047 2.69043 17.3057 3.09143 17.3057 3.58443L17.3137 15.8144C17.3137 16.3114 17.7137 16.7104 18.2057 16.7104L28.4067 16.7094Z" fill="#36424A"/>
<path d="M47.1283 18.8814L40.5303 9.66938L44.7453 3.79238C44.8153 3.67738 44.8453 3.56238 44.8453 3.43038C44.8453 3.05038 44.5323 2.69438 44.1113 2.69438C44.0823 2.69438 41.4183 2.69238 41.3813 2.69238C41.1373 2.69238 40.9183 2.82538 40.7363 3.08238L38.2673 6.52038L35.8083 3.08838C35.6363 2.85138 35.4253 2.69538 35.1603 2.69538C35.1353 2.69538 32.4563 2.69538 32.4263 2.69538C32.0263 2.69538 31.6883 3.05638 31.6923 3.42938C31.6923 3.64938 31.7943 3.79238 31.9073 3.94938L36.0113 9.67038L31.7513 15.6134C31.6813 15.7104 31.6533 15.8364 31.6533 15.9694C31.6533 16.3544 31.9853 16.7034 32.3873 16.7034C32.4083 16.7034 35.0883 16.7034 35.1143 16.7034C35.3293 16.7034 35.5593 16.5784 35.6803 16.4334L38.2683 12.8204L43.2433 19.7604C43.3603 19.8984 43.5673 19.9994 43.7823 19.9994C43.8023 19.9994 46.4813 19.9994 46.5093 19.9994C46.9393 19.9994 47.2433 19.6454 47.2433 19.2644C47.2413 19.1234 47.1983 18.9934 47.1283 18.8814Z" fill="#36424A"/>
<path d="M58.8989 2.6895L47.5149 2.6875C47.0929 2.6875 46.7529 3.0275 46.7529 3.4465V5.3325C46.7529 5.7485 47.0929 6.0925 47.5149 6.0925H51.1669L51.1629 15.8015C51.1629 16.3015 51.5689 16.7105 52.0669 16.7105H54.3439C54.8439 16.7105 55.2479 16.3015 55.2479 15.8015L55.2439 6.0925H58.8979C59.3139 6.0925 59.6559 5.7485 59.6559 5.3325V3.4465C59.6569 3.0275 59.3149 2.6895 58.8989 2.6895Z" fill="#36424A"/>
<path d="M78.9679 11.1808L80.6319 7.1958L82.2729 11.1808H78.9679ZM88.4949 15.7438L82.8369 3.0008C82.7219 2.7668 82.4909 2.5918 82.2099 2.5918H79.1939C78.9829 2.5918 78.6549 2.7298 78.5689 2.9418L72.9619 15.5748C72.8779 15.7478 72.8389 15.8928 72.8389 15.9788C72.8389 16.3638 73.1789 16.7098 73.5769 16.7098H76.2679C76.6489 16.7098 76.8379 16.4518 76.9769 16.1578L77.7969 14.2068H83.4749L84.3849 16.3318C84.4829 16.5488 84.7439 16.7088 85.0259 16.7088H87.7989C88.1859 16.7088 88.5329 16.3608 88.5329 15.9778C88.5339 15.8968 88.5239 15.8248 88.4949 15.7438Z" fill="#36424A"/>
<path d="M113.454 7.97717C111.413 7.53417 110.909 7.25517 110.909 6.61517V6.57517C110.909 6.07517 111.391 5.67417 112.382 5.67417C113.491 5.67417 114.714 6.03217 115.89 6.68017C116.353 6.93417 116.656 6.81817 116.89 6.53617L118.132 4.86217C118.359 4.50017 118.249 4.09217 117.788 3.79717C116.335 2.91117 114.608 2.45117 112.487 2.45117C108.955 2.45117 106.79 4.33217 106.79 6.93517V6.97417C106.79 9.85917 109.206 10.6992 112.339 11.3812C114.337 11.8252 114.819 12.1462 114.819 12.7252V12.7642C114.819 13.3662 114.233 13.7252 113.139 13.7252C111.662 13.7252 110.248 13.2872 108.951 12.4532C108.904 12.4262 108.861 12.3942 108.818 12.3632C108.716 12.3132 108.603 12.2792 108.482 12.2792C108.287 12.2792 108.111 12.3592 107.982 12.4802C107.982 12.4802 106.576 14.0662 106.541 14.1212C106.467 14.2352 106.42 14.3732 106.42 14.5212C106.42 14.7492 106.524 14.9492 106.686 15.0822C106.717 15.1052 106.745 15.1282 106.776 15.1492C108.503 16.3452 110.698 16.9492 112.991 16.9492C116.565 16.9492 118.94 15.2452 118.94 12.3842V12.3452C118.94 9.71817 116.839 8.67717 113.454 7.97717Z" fill="#36424A"/>
<path d="M13.017 2.69238H10.765C10.269 2.69238 9.87 3.09038 9.87 3.58338L9.864 10.0994L4.094 3.04338C3.951 2.85838 3.797 2.69238 3.469 2.69238H0.895C0.401 2.69238 0 3.09338 0 3.58738V15.8164C0 16.3104 0.4 16.7114 0.895 16.7114H3.147C3.641 16.7114 4.042 16.3104 4.042 15.8164L4.038 9.01838L10.161 16.5064C10.276 16.6184 10.47 16.7124 10.675 16.7124H13.007C13.499 16.7124 13.902 16.3114 13.902 15.8154L13.91 3.58438C13.909 3.09038 13.509 2.69238 13.017 2.69238Z" fill="#36424A"/>
<path d="M62.1035 15.8133C62.1035 16.3103 62.5035 16.7113 62.9985 16.7113H70.1935C70.6115 16.7113 70.9515 16.3733 70.9515 15.9533V14.0663C70.9515 13.6463 70.6115 13.3103 70.1935 13.3103L66.1855 13.3063V3.59929C66.1855 3.09929 65.7795 2.69629 65.2795 2.69629H63.0065C62.5065 2.69629 62.1045 3.09929 62.1045 3.59929V15.8133H62.1035Z" fill="#36424A"/>
<path d="M121.167 0C121.493 0 121.813 0.083 122.126 0.25C122.437 0.418 122.679 0.658 122.855 0.972C123.031 1.283 123.117 1.61 123.117 1.951C123.117 2.287 123.031 2.61 122.859 2.921C122.687 3.23 122.445 3.472 122.14 3.642C121.827 3.814 121.507 3.899 121.167 3.899C120.829 3.899 120.507 3.814 120.194 3.642C119.885 3.473 119.647 3.23 119.475 2.921C119.303 2.61 119.217 2.287 119.217 1.951C119.217 1.611 119.303 1.284 119.475 0.972C119.651 0.659 119.897 0.418 120.209 0.25C120.519 0.083 120.839 0 121.167 0ZM121.167 0.320999C120.892 0.320999 120.624 0.391 120.366 0.531C120.104 0.672 119.901 0.872 119.757 1.136C119.609 1.396 119.534 1.666 119.534 1.95C119.534 2.231 119.604 2.5 119.751 2.76C119.894 3.018 120.097 3.219 120.355 3.362C120.617 3.508 120.886 3.579 121.168 3.579C121.45 3.579 121.719 3.507 121.977 3.362C122.235 3.219 122.438 3.018 122.581 2.76C122.724 2.5 122.798 2.231 122.798 1.95C122.798 1.666 122.724 1.396 122.579 1.136C122.431 0.872 122.227 0.671 121.97 0.531C121.706 0.391 121.438 0.320999 121.167 0.320999ZM120.308 3.033V0.928999H121.031C121.277 0.928999 121.456 0.949 121.566 0.987C121.679 1.025 121.765 1.093 121.832 1.189C121.895 1.285 121.93 1.387 121.93 1.496C121.93 1.647 121.875 1.782 121.766 1.895C121.659 2.006 121.516 2.072 121.336 2.084C121.408 2.116 121.469 2.155 121.512 2.197C121.596 2.282 121.698 2.42 121.821 2.619L122.075 3.034H121.665L121.477 2.701C121.329 2.439 121.211 2.273 121.125 2.206C121.064 2.157 120.977 2.135 120.859 2.138H120.66V3.034H120.308V3.033ZM120.659 1.847H121.069C121.264 1.847 121.397 1.818 121.469 1.758C121.539 1.7 121.576 1.625 121.576 1.53C121.576 1.466 121.56 1.411 121.525 1.363C121.49 1.314 121.443 1.278 121.38 1.253C121.319 1.23 121.208 1.216 121.044 1.216H120.657V1.847H120.659Z" fill="#36424A"/>
</svg>
