<svg width="27" height="27" viewBox="0 0 27 27" fill="none" xmlns="http://www.w3.org/2000/svg">
<path fill-rule="evenodd" clip-rule="evenodd" d="M13.6094 26.7773C21.0068 26.7773 27.001 20.7803 27.001 13.3887C27.001 5.99023 21.0068 0.000976562 13.6094 0C6.21484 0 0.220703 5.99023 0.220703 13.3887C0.220703 20.7803 6.21484 26.7773 13.6094 26.7773ZM14.7471 11.5117L19.8467 18.6387C19.9043 18.7197 19.9346 18.8223 19.9346 18.9316C19.9346 19.2256 19.6973 19.5039 19.3633 19.5039H17.2578C17.0938 19.5039 16.9297 19.4248 16.8398 19.3174L12.9941 13.9453L10.9902 16.7412C10.8965 16.8564 10.7178 16.9502 10.5537 16.9502H8.44727C8.13281 16.9502 7.87891 16.6807 7.87891 16.3789C7.87891 16.333 7.88281 16.2861 7.89258 16.2422C7.90332 16.1924 7.9209 16.1455 7.94922 16.1055L11.2441 11.5117L8.07422 7.08594C7.98633 6.96484 7.9082 6.85742 7.9082 6.68555C7.90625 6.54492 7.96484 6.4082 8.06055 6.30371C8.16406 6.19043 8.31152 6.11523 8.47168 6.11523H10.5947C10.7979 6.11523 10.958 6.23828 11.0889 6.42188L12.9932 9.07422L14.9004 6.41602C15.042 6.2207 15.21 6.11523 15.4004 6.11523H17.5137C17.8389 6.11523 18.0811 6.3877 18.0811 6.68555C18.0811 6.78613 18.0596 6.87305 18.0049 6.96484L14.7471 11.5117Z" fill="white"/>
</svg>
