<svg width="100" height="100" viewBox="0 0 100 100" fill="none" xmlns="http://www.w3.org/2000/svg">
<path fill-rule="evenodd" clip-rule="evenodd" d="M53.037 100.001C51.01 100.001 48.988 100.001 46.963 100.001C45.756 99.845 44.551 99.674 43.34 99.522C37.686 98.819 32.328 97.1287 27.27 94.5317C20.053 90.8207 14.063 85.6647 9.336 79.0527C4.525 72.3207 1.563 64.8647 0.479004 56.6597C0.317004 55.4527 0.161 54.2476 0 53.0366C0 51.0116 0 48.9889 0 46.9639C0.049 46.7349 0.116994 46.5035 0.149994 46.2695C0.526994 43.7995 0.771004 41.3047 1.298 38.8677C3.109 30.5277 6.97599 23.2077 12.607 16.8267C15.765 13.2427 19.398 10.1806 23.466 7.64062C29.579 3.82763 36.191 1.407 43.339 0.479004C44.55 0.323004 45.755 0.157 46.962 0C48.987 0 51.009 0 53.036 0C54.241 0.156 55.448 0.322004 56.659 0.479004C62.284 1.182 67.616 2.85159 72.655 5.43359C79.905 9.14459 85.917 14.3167 90.663 20.9487C95.487 27.7057 98.456 35.1859 99.53 43.4189C99.681 44.6009 99.843 45.7818 99.999 46.9648C99.999 48.9898 99.999 51.0126 99.999 53.0376C99.833 54.2986 99.671 55.5578 99.505 56.8208C98.773 62.4128 97.109 67.7249 94.53 72.7349C90.813 79.9519 85.657 85.9416 79.046 90.6646C72.317 95.4786 64.862 98.449 56.659 99.522C55.449 99.679 54.242 99.845 53.037 100.001ZM21.875 32.2578C22.309 40.9678 24.561 48.5267 28.803 55.4897C33.266 62.8227 39.301 68.5078 46.836 72.5508C53.76 76.2608 61.191 78.1255 69.063 78.1025C70.512 78.0965 71.807 77.5829 72.852 76.5049C73.848 75.4699 74.873 74.4648 75.908 73.4678C76.928 72.4818 77.641 71.3399 77.959 69.9429C78.832 66.0949 76.078 62.3357 72.764 61.3257C70.522 60.6417 68.246 60.0958 65.996 59.4448C63.178 58.6378 60.752 59.2588 58.682 61.3198C58.077 61.9248 57.504 62.5599 56.856 63.1069C56.602 63.3219 56.133 63.4819 55.835 63.3999C52.378 62.4669 49.253 60.8368 46.431 58.6538C42.003 55.2198 38.917 50.8119 36.988 45.5679C36.539 44.3569 36.252 43.2406 37.623 42.4136C37.818 42.2906 37.961 42.0815 38.137 41.9155C40.598 39.6595 41.52 36.984 40.481 33.709C39.953 32.037 39.583 30.314 39.114 28.625C38.757 27.316 38.337 26.0569 37.477 24.9429C35.524 22.4139 32.297 21.228 29.401 22.271C28.415 22.628 27.506 23.3219 26.686 24.0049C25.709 24.8209 24.909 25.8417 23.951 26.6807C22.041 28.3507 21.64 30.4738 21.875 32.2578Z" fill="#39974A"/>
</svg>
