<svg width="140" height="59" viewBox="0 0 140 59" fill="none" xmlns="http://www.w3.org/2000/svg">
<path fill-rule="evenodd" clip-rule="evenodd" d="M122.454 0.000430565C122.664 0.0436386 122.876 0.0780274 123.083 0.131376C124.024 0.372548 124.849 0.852699 125.59 1.45585C126.448 2.15379 127.299 2.86804 128.088 3.64226C130.35 5.86262 132.576 8.1187 134.823 10.3545C135.943 11.47 137.067 12.5837 138.076 13.8036C138.716 14.5779 139.299 15.39 139.676 16.3326C139.879 16.8392 139.995 17.3652 139.995 17.9128C139.996 28.4009 140.011 38.889 139.984 49.3767C139.977 52.0031 138.904 54.2023 136.944 55.9535C135.591 57.1625 134 57.8705 132.207 58.117C131.83 58.1699 131.445 58.1938 131.066 58.1938C122.098 58.1986 113.13 58.2101 104.162 58.1898C101.459 58.1836 99.2019 57.1131 97.415 55.0801C96.266 53.772 95.5826 52.2416 95.3234 50.5239C95.2678 50.1544 95.2405 49.777 95.24 49.4026C95.2356 35.8869 95.2286 22.3707 95.2431 8.855C95.2453 6.3141 96.2395 4.17091 98.075 2.42672C99.4378 1.1318 101.07 0.366386 102.928 0.087297C103.157 0.0524661 103.39 0.0282175 103.62 0C109.898 0.000440899 116.177 0.000430565 122.454 0.000430565ZM99.7046 29.0826C99.7046 35.8155 99.7041 42.5485 99.7063 49.2819C99.7063 49.4847 99.7213 49.6892 99.7517 49.889C100.104 52.1358 101.945 53.716 104.231 53.7169C113.148 53.7204 122.066 53.7182 130.985 53.7195C131.711 53.7195 132.41 53.5851 133.049 53.2425C134.657 52.3792 135.513 51.0225 135.515 49.1976C135.528 39.5279 135.521 29.859 135.521 20.1896C135.521 20.1464 135.521 20.1036 135.519 20.0609C135.481 19.0922 135.046 18.5063 134.127 18.1959C133.436 17.9622 132.717 17.9181 131.999 17.9159C129.468 17.9053 126.939 17.9111 124.409 17.9089C123.069 17.908 122.089 16.9287 122.089 15.5932C122.089 13.3954 122.095 11.1984 122.085 9.00096C122.081 8.23865 122.055 7.47631 122.007 6.71488C121.976 6.22945 121.865 5.75239 121.614 5.3256C121.29 4.77448 120.834 4.46234 120.16 4.46367C114.879 4.47381 109.599 4.47157 104.317 4.47422C104.139 4.47422 103.96 4.48394 103.782 4.49849C101.487 4.69248 99.7054 6.63288 99.7046 8.93745C99.7046 15.6523 99.7046 22.3672 99.7046 29.0826Z" fill="white"/>
<path fill-rule="evenodd" clip-rule="evenodd" d="M118.114 16.7539C118.275 16.7693 118.435 16.7827 118.595 16.7991C119.3 16.8745 119.977 17.054 120.622 17.3506C121.391 17.7027 122.055 18.1948 122.604 18.8386C123.089 19.4094 123.456 20.0523 123.727 20.7496C124.009 21.4743 124.173 22.2267 124.256 22.9989C124.332 23.7047 124.312 24.4125 124.313 25.1198C124.313 25.1248 124.312 25.1292 124.308 25.1406C123.381 25.1406 122.452 25.1406 121.515 25.1406C121.515 25.1074 121.516 25.0771 121.515 25.0468C121.51 24.5603 121.522 24.0718 121.495 23.5857C121.45 22.7405 121.279 21.9202 120.859 21.1727C120.364 20.2938 119.621 19.7646 118.617 19.6138C117.975 19.5176 117.335 19.521 116.701 19.6678C115.864 19.8613 115.241 20.3493 114.79 21.0705C114.482 21.562 114.303 22.1047 114.19 22.6711C114.087 23.1864 114.053 23.7072 114.054 24.2304C114.054 24.5057 114.054 24.78 114.054 25.0543C114.054 25.0821 114.054 25.1098 114.054 25.1421C113.119 25.1421 112.193 25.1421 111.258 25.1421C111.258 25.1084 111.258 25.0786 111.258 25.0484C111.26 24.597 111.252 24.1462 111.268 23.6943C111.312 22.4157 111.56 21.1846 112.156 20.0394C112.51 19.3569 112.968 18.7542 113.553 18.2518C114.191 17.7042 114.916 17.3134 115.718 17.0634C116.251 16.8978 116.796 16.799 117.353 16.7693C117.386 16.7673 117.419 16.7594 117.452 16.7549C117.672 16.7539 117.893 16.7539 118.114 16.7539Z" fill="white"/>
<path fill-rule="evenodd" clip-rule="evenodd" d="M117.787 26.0783C119.951 26.0783 122.117 26.0777 124.281 26.0787C125.099 26.0792 125.797 26.3729 126.358 26.9691C126.863 27.5087 127.112 28.1564 127.112 28.8945C127.115 31.9924 127.123 35.0904 127.109 38.1884C127.104 39.3276 126.563 40.1718 125.557 40.707C125.169 40.9133 124.745 41.0016 124.306 41.0016C119.959 41.0016 115.612 41.0031 111.265 41.0006C109.927 41.0001 108.792 40.0766 108.52 38.7677C108.479 38.5737 108.464 38.3714 108.464 38.173C108.46 35.083 108.461 31.9924 108.462 28.9014C108.463 27.5925 109.315 26.4875 110.571 26.1646C110.81 26.1041 111.054 26.0778 111.302 26.0783C113.463 26.0783 115.626 26.0783 117.787 26.0783ZM116.853 35.3161C116.853 35.5546 116.85 35.7937 116.853 36.0313C116.854 36.185 116.849 36.3403 116.87 36.492C116.938 36.9935 117.454 37.3536 117.952 37.2539C118.411 37.1616 118.717 36.7931 118.718 36.3229C118.719 35.6896 118.724 35.0562 118.713 34.4228C118.712 34.272 118.738 34.1624 118.884 34.1009C118.889 34.0989 118.893 34.0954 118.897 34.092C119.642 33.5488 119.871 32.5256 119.426 31.7177C119.019 30.9766 118.196 30.6047 117.367 30.7867C116.455 30.9886 115.814 31.8932 115.933 32.8163C116.008 33.4005 116.299 33.8494 116.791 34.1693C116.838 34.2001 116.854 34.2308 116.853 34.2854C116.851 34.6291 116.853 34.9728 116.853 35.3161Z" fill="white"/>
<path d="M38.6258 18.3451C38.6258 26.5273 31.9889 33.1509 23.8147 33.1509C15.6276 33.1509 8.99609 26.5273 8.99609 18.3451C8.99609 10.1585 15.6276 3.52734 23.8147 3.52734C31.9894 3.5269 38.6258 10.1585 38.6258 18.3451Z" fill="white"/>
<path d="M23.816 35.7305C15.2507 35.7305 7.1624 37.7626 0 41.37C4.87325 49.4191 13.7146 54.802 23.816 54.802C33.9108 54.802 42.7482 49.4165 47.6184 41.3674C40.4595 37.7613 32.3752 35.7305 23.816 35.7305Z" fill="white"/>
<path d="M64.9701 31.3744C63.7532 31.3744 62.7665 30.389 62.7656 29.1721C62.7643 27.9544 63.7501 26.9672 64.9675 26.9654L65.4128 26.965C65.4136 26.965 65.4145 26.965 65.415 26.965C66.6314 26.965 67.6181 27.9504 67.6195 29.1677C67.6208 30.385 66.6349 31.3727 65.4172 31.374L64.9719 31.3744C64.9719 31.3744 64.9706 31.3744 64.9701 31.3744ZM72.0919 31.3664C70.8751 31.3664 69.8883 30.3811 69.8874 29.1637C69.8861 27.9464 70.872 26.9588 72.0893 26.9575L72.5346 26.957C72.5355 26.957 72.5364 26.957 72.5368 26.957C73.7533 26.957 74.74 27.9424 74.7413 29.1597C74.7426 30.3771 73.7568 31.3647 72.539 31.366L72.0937 31.3664C72.0933 31.3664 72.0924 31.3664 72.0919 31.3664Z" fill="white"/>
<path d="M50.7025 31.5814C49.4857 31.5814 48.4989 30.596 48.498 29.3792C48.4967 28.1614 49.4826 27.1742 50.6999 27.1725L51.1452 27.172C51.1461 27.172 51.147 27.172 51.1474 27.172C52.3638 27.172 53.3506 28.1574 53.3519 29.3747C53.3532 30.5921 52.3674 31.5797 51.1496 31.581L50.7043 31.5814C50.7043 31.5814 50.703 31.5814 50.7025 31.5814ZM57.8244 31.5735C56.6075 31.5735 55.6207 30.5881 55.6199 29.3708C55.6185 28.1534 56.6044 27.1658 57.8217 27.1645L58.267 27.1641C58.2679 27.1641 58.2688 27.1641 58.2692 27.1641C59.4857 27.1641 60.4724 28.1495 60.4737 29.3668C60.4751 30.5841 59.4892 31.5717 58.2714 31.573L57.8261 31.5735C57.8257 31.5735 57.8248 31.5735 57.8244 31.5735Z" fill="white"/>
<path d="M77.0137 24.7711C77.011 22.3461 78.7283 21.3523 80.8296 22.5626L88.4272 26.9385C90.5285 28.1487 90.5307 30.1333 88.432 31.3479L80.8437 35.7406C78.7451 36.9557 77.026 35.9654 77.0234 33.5405L77.0137 24.7711Z" fill="white"/>
</svg>
