<svg width="340" height="270" viewBox="0 0 340 270" fill="none" xmlns="http://www.w3.org/2000/svg">
<path fill-rule="evenodd" clip-rule="evenodd" d="M215.807 55.2363L286.141 53.2363L335.473 100.903L331.807 204.57L323.473 215.57L313.473 218.236H222.807L212.807 212.236L205.807 197.57V74.9033L208.141 64.5703L215.807 55.2363Z" fill="#99C562"/>
<path fill-rule="evenodd" clip-rule="evenodd" d="M285.736 44.9033C286.384 45.0373 287.039 45.1424 287.679 45.3074C290.589 46.0554 293.14 47.5373 295.433 49.4043C298.085 51.5613 300.716 53.7723 303.156 56.1653C310.152 63.0303 317.039 70.0093 323.986 76.9243C327.453 80.3753 330.927 83.8183 334.048 87.5923C336.029 89.9873 337.831 92.4973 338.996 95.4133C339.625 96.9813 339.984 98.6083 339.984 100.3C339.986 132.737 340.033 165.173 339.949 197.608C339.928 205.731 336.609 212.532 330.547 217.95C326.363 221.689 321.442 223.878 315.895 224.641C314.731 224.804 313.543 224.879 312.368 224.879C284.633 224.893 256.899 224.928 229.165 224.865C220.804 224.845 213.825 221.535 208.298 215.246C204.741 211.201 202.63 206.469 201.827 201.157C201.655 200.011 201.571 198.845 201.569 197.689C201.557 155.887 201.538 114.086 201.579 72.2833C201.587 64.4283 204.661 57.7993 210.337 52.4053C214.552 48.4013 219.597 46.0364 225.345 45.1724C226.056 45.0634 226.773 44.9904 227.488 44.9014C246.902 44.9034 266.32 44.9033 285.736 44.9033ZM215.379 134.846C215.379 155.67 215.377 176.494 215.385 197.319C215.385 197.944 215.428 198.577 215.526 199.196C216.614 206.145 222.307 211.032 229.376 211.034C256.958 211.046 284.538 211.038 312.12 211.04C314.364 211.04 316.526 210.627 318.503 209.566C323.474 206.895 326.122 202.699 326.13 197.057C326.169 167.15 326.148 137.248 326.148 107.344C326.148 107.21 326.146 107.077 326.142 106.944C326.023 103.949 324.677 102.135 321.837 101.176C319.7 100.452 317.476 100.318 315.251 100.31C307.427 100.278 299.605 100.295 291.78 100.289C287.637 100.287 284.604 97.2563 284.604 93.1263C284.602 86.3313 284.622 79.5354 284.592 72.7394C284.582 70.3824 284.5 68.0224 284.352 65.6714C284.256 64.1694 283.916 62.6933 283.137 61.3733C282.133 59.6693 280.725 58.7054 278.639 58.7084C262.307 58.7394 245.975 58.7314 229.645 58.7404C229.092 58.7404 228.54 58.7683 227.991 58.8153C220.891 59.4163 215.38 65.4163 215.38 72.5433C215.379 93.3103 215.379 114.078 215.379 134.846Z" fill="#D1D4D3"/>
<path fill-rule="evenodd" clip-rule="evenodd" d="M273.032 101.236C273.473 101.278 273.915 101.315 274.356 101.362C276.294 101.568 278.155 102.062 279.928 102.876C282.041 103.845 283.866 105.198 285.375 106.968C286.711 108.537 287.721 110.302 288.465 112.22C289.238 114.213 289.689 116.282 289.918 118.406C290.127 120.345 290.07 122.291 290.076 124.236C290.076 124.25 290.07 124.263 290.06 124.294C287.511 124.294 284.958 124.294 282.384 124.294C282.384 124.203 282.384 124.122 282.384 124.038C282.368 122.7 282.402 121.356 282.329 120.021C282.202 117.695 281.735 115.443 280.577 113.386C279.216 110.969 277.175 109.514 274.417 109.102C272.651 108.836 270.892 108.848 269.146 109.25C266.847 109.781 265.132 111.124 263.894 113.104C263.048 114.458 262.554 115.948 262.244 117.504C261.963 118.92 261.869 120.352 261.871 121.792C261.873 122.547 261.873 123.301 261.873 124.056C261.873 124.131 261.873 124.208 261.873 124.299C259.303 124.299 256.756 124.299 254.184 124.299C254.184 124.205 254.182 124.122 254.184 124.039C254.192 122.798 254.17 121.556 254.211 120.317C254.332 116.802 255.016 113.417 256.652 110.268C257.627 108.392 258.886 106.736 260.494 105.355C262.248 103.847 264.242 102.774 266.445 102.085C267.912 101.629 269.41 101.358 270.943 101.276C271.033 101.273 271.123 101.251 271.212 101.237C271.819 101.236 272.427 101.236 273.032 101.236Z" fill="white"/>
<path fill-rule="evenodd" clip-rule="evenodd" d="M272.135 126.876C278.086 126.876 284.035 126.872 289.987 126.877C292.237 126.877 294.155 127.684 295.698 129.324C297.089 130.805 297.772 132.588 297.774 134.617C297.78 143.135 297.801 151.65 297.764 160.168C297.748 163.299 296.264 165.619 293.498 167.093C292.43 167.66 291.266 167.901 290.057 167.901C278.106 167.903 266.157 167.907 254.205 167.901C250.527 167.899 247.406 165.359 246.658 161.762C246.547 161.227 246.504 160.67 246.504 160.125C246.494 151.629 246.494 143.133 246.498 134.637C246.5 131.038 248.844 128.001 252.297 127.114C252.953 126.944 253.625 126.875 254.305 126.877C260.248 126.876 266.192 126.876 272.135 126.876ZM269.565 152.272C269.565 152.928 269.561 153.584 269.567 154.239C269.571 154.66 269.555 155.088 269.612 155.503C269.798 156.884 271.219 157.873 272.587 157.6C273.851 157.346 274.689 156.331 274.692 155.039C274.696 153.298 274.708 151.558 274.682 149.815C274.676 149.401 274.748 149.1 275.149 148.932C275.163 148.926 275.172 148.916 275.184 148.909C277.235 147.415 277.862 144.602 276.641 142.382C275.52 140.343 273.258 139.321 270.981 139.824C268.471 140.377 266.71 142.865 267.038 145.402C267.245 147.008 268.046 148.242 269.399 149.121C269.528 149.205 269.571 149.291 269.569 149.442C269.561 150.383 269.565 151.328 269.565 152.272Z" fill="white"/>
<path fill-rule="evenodd" clip-rule="evenodd" d="M14.2529 55.2363L84.5869 53.2363L133.92 100.903L130.253 204.57L121.92 215.57L111.92 218.236H21.2529L11.2529 212.236L4.25293 197.57V74.9033L6.58691 64.5703L14.2529 55.2363Z" fill="#99C562"/>
<path fill-rule="evenodd" clip-rule="evenodd" d="M84.1829 44.9033C84.8319 45.0373 85.4869 45.1424 86.1269 45.3074C89.0359 46.0554 91.5869 47.5373 93.8809 49.4043C96.5339 51.5613 99.1639 53.7723 101.604 56.1653C108.6 63.0303 115.486 70.0093 122.433 76.9243C125.9 80.3753 129.374 83.8183 132.496 87.5923C134.476 89.9873 136.28 92.4973 137.444 95.4133C138.072 96.9813 138.432 98.6083 138.432 100.3C138.433 132.737 138.481 165.173 138.396 197.608C138.375 205.731 135.056 212.532 128.994 217.95C124.81 221.689 119.89 223.878 114.342 224.641C113.177 224.804 111.991 224.879 110.815 224.879C83.0799 224.893 55.3449 224.928 27.6109 224.865C19.2499 224.845 12.2709 221.535 6.74391 215.246C3.18691 211.201 1.07691 206.469 0.273912 201.157C0.100912 200.011 0.016916 198.845 0.015916 197.689C0.00291604 155.887 -0.0160813 114.086 0.0249187 72.2833C0.0329187 64.4283 3.10692 57.7993 8.78392 52.4053C12.9979 48.4013 18.0439 46.0364 23.7909 45.1724C24.5019 45.0634 25.2189 44.9904 25.9339 44.9014C45.3499 44.9034 64.7669 44.9033 84.1829 44.9033ZM13.8249 134.846C13.8249 155.67 13.8229 176.494 13.8309 197.319C13.8309 197.944 13.8749 198.577 13.9719 199.196C15.0599 206.145 20.7529 211.032 27.8219 211.034C55.4039 211.046 82.9849 211.038 110.567 211.04C112.811 211.04 114.972 210.627 116.949 209.566C121.921 206.895 124.568 202.699 124.576 197.057C124.615 167.15 124.595 137.248 124.595 107.344C124.595 107.21 124.592 107.077 124.588 106.944C124.469 103.949 123.123 102.135 120.284 101.176C118.147 100.452 115.922 100.318 113.698 100.31C105.874 100.278 98.0499 100.295 90.2269 100.289C86.0829 100.287 83.0499 97.2563 83.0499 93.1263C83.0489 86.3313 83.0689 79.5354 83.0399 72.7394C83.0289 70.3824 82.9469 68.0224 82.7989 65.6714C82.7049 64.1694 82.3639 62.6933 81.5839 61.3733C80.5809 59.6693 79.1719 58.7054 77.0869 58.7084C60.7549 58.7394 44.4229 58.7314 28.0919 58.7404C27.5399 58.7404 26.9879 58.7683 26.4379 58.8153C19.3379 59.4163 13.8269 65.4163 13.8269 72.5433C13.8249 93.3103 13.8249 114.078 13.8249 134.846Z" fill="#D1D4D3"/>
<path fill-rule="evenodd" clip-rule="evenodd" d="M71.4813 101.236C71.9213 101.278 72.3643 101.315 72.8043 101.362C74.7423 101.568 76.6033 102.062 78.3773 102.876C80.4893 103.845 82.3144 105.198 83.8234 106.968C85.1594 108.537 86.1693 110.302 86.9133 112.22C87.6863 114.213 88.1393 116.282 88.3663 118.406C88.5763 120.345 88.5183 122.291 88.5243 124.236C88.5243 124.25 88.5183 124.263 88.5084 124.294C85.9604 124.294 83.4083 124.294 80.8323 124.294C80.8323 124.203 80.8323 124.122 80.8323 124.038C80.8163 122.7 80.8503 121.356 80.7773 120.021C80.6513 117.695 80.1833 115.443 79.0253 113.386C77.6653 110.969 75.6233 109.514 72.8653 109.102C71.0993 108.836 69.3393 108.848 67.5943 109.25C65.2943 109.781 63.5793 111.124 62.3413 113.104C61.4953 114.458 61.0013 115.948 60.6923 117.504C60.4103 118.92 60.3163 120.352 60.3193 121.792C60.3213 122.547 60.3203 123.301 60.3203 124.056C60.3203 124.131 60.3203 124.208 60.3203 124.299C57.7513 124.299 55.2033 124.299 52.6303 124.299C52.6303 124.205 52.6293 124.122 52.6303 124.039C52.6383 122.798 52.6173 121.556 52.6593 120.317C52.7793 116.802 53.4623 113.417 55.0993 110.268C56.0743 108.392 57.3333 106.736 58.9413 105.355C60.6953 103.847 62.6893 102.774 64.8923 102.085C66.3593 101.629 67.8573 101.358 69.3903 101.276C69.4813 101.273 69.5703 101.251 69.6603 101.237C70.2683 101.236 70.8743 101.236 71.4813 101.236Z" fill="white"/>
<path fill-rule="evenodd" clip-rule="evenodd" d="M70.5809 126.876C76.5319 126.876 82.4819 126.872 88.4329 126.877C90.6829 126.877 92.6019 127.684 94.1439 129.324C95.5359 130.805 96.2179 132.588 96.2199 134.617C96.2259 143.135 96.2469 151.65 96.2099 160.168C96.1949 163.299 94.7099 165.619 91.9439 167.093C90.8759 167.66 89.7119 167.901 88.5039 167.901C76.5529 167.903 64.6029 167.907 52.6509 167.901C48.9729 167.899 45.8529 165.359 45.1039 161.762C44.9929 161.227 44.9499 160.67 44.9499 160.125C44.9399 151.629 44.9399 143.133 44.9439 134.637C44.9459 131.038 47.2899 128.001 50.7429 127.114C51.3999 126.944 52.0709 126.875 52.7509 126.877C58.6939 126.876 64.6379 126.876 70.5809 126.876ZM68.0109 152.272C68.0109 152.928 68.0069 153.584 68.0129 154.239C68.0179 154.66 68.0019 155.088 68.0579 155.503C68.2449 156.884 69.6649 157.873 71.0329 157.6C72.2979 157.346 73.1359 156.331 73.1379 155.039C73.1419 153.298 73.1549 151.558 73.1279 149.815C73.1219 149.401 73.1939 149.1 73.5959 148.932C73.6089 148.926 73.6189 148.916 73.6299 148.909C75.6809 147.415 76.3089 144.602 75.0869 142.382C73.9669 140.343 71.7049 139.321 69.4269 139.824C66.9169 140.377 65.1559 142.865 65.4839 145.402C65.6909 147.008 66.4919 148.242 67.8449 149.121C67.9749 149.205 68.0169 149.291 68.0149 149.442C68.0079 150.383 68.0109 151.328 68.0109 152.272Z" fill="white"/>
<path fill-rule="evenodd" clip-rule="evenodd" d="M84.1829 44.9033C84.8319 45.0373 85.4869 45.1424 86.1269 45.3074C89.0359 46.0554 91.5869 47.5373 93.8809 49.4043C96.5339 51.5613 99.1639 53.7723 101.604 56.1653C108.6 63.0303 115.486 70.0093 122.433 76.9243C125.9 80.3753 129.374 83.8183 132.496 87.5923C134.476 89.9873 136.28 92.4973 137.444 95.4133C138.072 96.9813 138.432 98.6083 138.432 100.3C138.433 132.737 138.481 165.173 138.396 197.608C138.375 205.731 135.056 212.532 128.994 217.95C124.81 221.689 119.89 223.878 114.342 224.641C113.177 224.804 111.991 224.879 110.815 224.879C83.0799 224.893 55.3449 224.928 27.6109 224.865C19.2499 224.845 12.2709 221.535 6.74391 215.246C3.18691 211.201 1.07691 206.469 0.273912 201.157C0.100912 200.011 0.016916 198.845 0.015916 197.689C0.00291604 155.887 -0.0160813 114.086 0.0249187 72.2833C0.0329187 64.4283 3.10692 57.7993 8.78392 52.4053C12.9979 48.4013 18.0439 46.0364 23.7909 45.1724C24.5019 45.0634 25.2189 44.9904 25.9339 44.9014C45.3499 44.9034 64.7669 44.9033 84.1829 44.9033ZM13.8249 134.846C13.8249 155.67 13.8229 176.494 13.8309 197.319C13.8309 197.944 13.8749 198.577 13.9719 199.196C15.0599 206.145 20.7529 211.032 27.8219 211.034C55.4039 211.046 82.9849 211.038 110.567 211.04C112.811 211.04 114.972 210.627 116.949 209.566C121.921 206.895 124.568 202.699 124.576 197.057C124.615 167.15 124.595 137.248 124.595 107.344C124.595 107.21 124.592 107.077 124.588 106.944C124.469 103.949 123.123 102.135 120.284 101.176C118.147 100.452 115.922 100.318 113.698 100.31C105.874 100.278 98.0499 100.295 90.2269 100.289C86.0829 100.287 83.0499 97.2563 83.0499 93.1263C83.0489 86.3313 83.0689 79.5354 83.0399 72.7394C83.0289 70.3824 82.9469 68.0224 82.7989 65.6714C82.7049 64.1694 82.3639 62.6933 81.5839 61.3733C80.5809 59.6693 79.1719 58.7054 77.0869 58.7084C60.7549 58.7394 44.4229 58.7314 28.0919 58.7404C27.5399 58.7404 26.9879 58.7683 26.4379 58.8153C19.3379 59.4163 13.8269 65.4163 13.8269 72.5433C13.8249 93.3103 13.8249 114.078 13.8249 134.846Z" fill="#74AC51"/>
<path fill-rule="evenodd" clip-rule="evenodd" d="M285.736 44.9033C286.384 45.0373 287.039 45.1424 287.679 45.3074C290.589 46.0554 293.14 47.5373 295.433 49.4043C298.085 51.5613 300.716 53.7723 303.156 56.1653C310.152 63.0303 317.039 70.0093 323.986 76.9243C327.453 80.3753 330.927 83.8183 334.048 87.5923C336.029 89.9873 337.831 92.4973 338.996 95.4133C339.625 96.9813 339.984 98.6083 339.984 100.3C339.986 132.737 340.033 165.173 339.949 197.608C339.928 205.731 336.609 212.532 330.547 217.95C326.363 221.689 321.442 223.878 315.895 224.641C314.731 224.804 313.543 224.879 312.368 224.879C284.633 224.893 256.899 224.928 229.165 224.865C220.804 224.845 213.825 221.535 208.298 215.246C204.741 211.201 202.63 206.469 201.827 201.157C201.655 200.011 201.571 198.845 201.569 197.689C201.557 155.887 201.538 114.086 201.579 72.2833C201.587 64.4283 204.661 57.7993 210.337 52.4053C214.552 48.4013 219.597 46.0364 225.345 45.1724C226.056 45.0634 226.773 44.9904 227.488 44.9014C246.902 44.9034 266.32 44.9033 285.736 44.9033ZM215.379 134.846C215.379 155.67 215.377 176.494 215.385 197.319C215.385 197.944 215.428 198.577 215.526 199.196C216.614 206.145 222.307 211.032 229.376 211.034C256.958 211.046 284.538 211.038 312.12 211.04C314.364 211.04 316.526 210.627 318.503 209.566C323.474 206.895 326.122 202.699 326.13 197.057C326.169 167.15 326.148 137.248 326.148 107.344C326.148 107.21 326.146 107.077 326.142 106.944C326.023 103.949 324.677 102.135 321.837 101.176C319.7 100.452 317.476 100.318 315.251 100.31C307.427 100.278 299.605 100.295 291.78 100.289C287.637 100.287 284.604 97.2563 284.604 93.1263C284.602 86.3313 284.622 79.5354 284.592 72.7394C284.582 70.3824 284.5 68.0224 284.352 65.6714C284.256 64.1694 283.916 62.6933 283.137 61.3733C282.133 59.6693 280.725 58.7054 278.639 58.7084C262.307 58.7394 245.975 58.7314 229.645 58.7404C229.092 58.7404 228.54 58.7683 227.991 58.8153C220.891 59.4163 215.38 65.4163 215.38 72.5433C215.379 93.3103 215.379 114.078 215.379 134.846Z" fill="#74AC51"/>
<path fill-rule="evenodd" clip-rule="evenodd" d="M86.1387 15.5L191.639 12.5L265.639 84L260.139 239.5L247.639 256L232.639 260H96.6387L81.6387 251L71.1387 229V45L74.6387 29.5L86.1387 15.5Z" fill="#39974A"/>
<path fill-rule="evenodd" clip-rule="evenodd" d="M191.033 0C192.007 0.2 192.988 0.358957 193.949 0.605957C198.312 1.72696 202.138 3.95195 205.58 6.75195C209.559 9.98695 213.506 13.304 217.164 16.895C227.658 27.193 237.986 37.66 248.408 48.033C253.609 53.209 258.82 58.374 263.502 64.036C266.473 67.627 269.178 71.394 270.924 75.766C271.866 78.12 272.407 80.5579 272.407 83.0979C272.409 131.753 272.481 180.408 272.354 229.061C272.321 241.246 267.344 251.447 258.25 259.573C251.973 265.181 244.592 268.465 236.271 269.611C234.523 269.853 232.744 269.966 230.98 269.966C189.378 269.987 147.775 270.04 106.174 269.945C93.6334 269.917 83.1644 264.951 74.8724 255.518C69.5394 249.451 66.3723 242.35 65.1693 234.381C64.9093 232.667 64.7823 230.916 64.7823 229.181C64.7623 166.479 64.7333 103.776 64.7953 41.073C64.8073 29.29 69.4193 19.344 77.9333 11.255C84.2543 5.249 91.8244 1.69991 100.443 0.404907C101.51 0.242907 102.587 0.134 103.658 0C132.783 0 161.908 0 191.033 0ZM85.4963 134.913C85.4963 166.15 85.4943 197.386 85.5063 228.621C85.5063 229.56 85.5733 230.51 85.7173 231.437C87.3483 241.862 95.8894 249.191 106.492 249.196C147.863 249.212 189.236 249.201 230.609 249.205C233.974 249.205 237.217 248.584 240.181 246.994C247.638 242.987 251.609 236.694 251.62 228.23C251.681 183.372 251.649 138.518 251.649 93.6599C251.649 93.4599 251.643 93.2609 251.637 93.0609C251.459 88.5689 249.442 85.8489 245.182 84.4089C241.977 83.3249 238.639 83.123 235.303 83.11C223.567 83.062 211.832 83.089 200.098 83.079C193.883 83.075 189.332 78.53 189.332 72.335C189.33 62.141 189.359 51.9479 189.316 41.7539C189.298 38.2189 189.175 34.68 188.955 31.151C188.812 28.899 188.301 26.685 187.133 24.705C185.627 22.149 183.514 20.7009 180.387 20.7069C155.889 20.7539 131.391 20.742 106.893 20.756C106.067 20.756 105.238 20.8 104.413 20.869C93.7633 21.769 85.4974 30.769 85.4954 41.459C85.4964 72.611 85.4963 103.763 85.4963 134.913Z" fill="#39974A"/>
<path fill-rule="evenodd" clip-rule="evenodd" d="M171.981 84.5001C172.641 84.5631 173.305 84.6191 173.965 84.6881C176.873 84.9981 179.664 85.7381 182.325 86.9601C185.493 88.4131 188.231 90.442 190.495 93.097C192.499 95.451 194.013 98.0991 195.13 100.977C196.29 103.966 196.968 107.068 197.31 110.253C197.624 113.163 197.539 116.081 197.548 118.999C197.548 119.019 197.538 119.039 197.525 119.085C193.703 119.085 189.873 119.085 186.009 119.085C186.009 118.948 186.011 118.826 186.009 118.7C185.988 116.692 186.037 114.679 185.927 112.676C185.739 109.186 185.036 105.809 183.3 102.725C181.259 99.0971 178.197 96.9151 174.06 96.2961C171.412 95.8981 168.772 95.915 166.155 96.519C162.705 97.315 160.132 99.33 158.275 102.3C157.005 104.329 156.265 106.565 155.8 108.9C155.378 111.024 155.238 113.172 155.242 115.332C155.244 116.464 155.242 117.596 155.242 118.728C155.242 118.841 155.242 118.957 155.242 119.092C151.388 119.092 147.568 119.092 143.709 119.092C143.709 118.95 143.708 118.826 143.709 118.701C143.721 116.84 143.688 114.977 143.752 113.118C143.933 107.845 144.957 102.768 147.412 98.0441C148.874 95.2311 150.764 92.7451 153.174 90.6741C155.805 88.4131 158.796 86.8031 162.102 85.7711C164.3 85.0861 166.549 84.6811 168.849 84.5581C168.984 84.5521 169.119 84.52 169.253 84.499C170.16 84.5 171.07 84.5001 171.981 84.5001Z" fill="white"/>
<path fill-rule="evenodd" clip-rule="evenodd" d="M170.631 122.957C179.557 122.957 188.483 122.953 197.409 122.96C200.784 122.961 203.663 124.171 205.975 126.631C208.063 128.854 209.086 131.527 209.088 134.571C209.098 147.347 209.131 160.122 209.074 172.898C209.053 177.594 206.824 181.075 202.676 183.283C201.072 184.136 199.326 184.496 197.516 184.497C179.588 184.499 161.662 184.503 143.737 184.495C138.219 184.492 133.54 180.685 132.417 175.287C132.249 174.486 132.187 173.651 132.186 172.832C132.171 160.088 132.172 147.345 132.177 134.6C132.179 129.202 135.697 124.647 140.874 123.315C141.86 123.061 142.866 122.957 143.886 122.958C152.801 122.958 161.716 122.957 170.631 122.957ZM166.777 161.054C166.777 162.037 166.77 163.021 166.78 164.003C166.786 164.637 166.763 165.276 166.847 165.901C167.126 167.972 169.258 169.456 171.307 169.045C173.205 168.665 174.461 167.145 174.467 165.206C174.473 162.594 174.49 159.982 174.451 157.372C174.443 156.748 174.551 156.294 175.152 156.044C175.171 156.035 175.187 156.02 175.205 156.009C178.279 153.768 179.223 149.549 177.391 146.217C175.709 143.159 172.317 141.625 168.9 142.378C165.135 143.208 162.493 146.941 162.985 150.745C163.297 153.153 164.497 155.007 166.528 156.324C166.721 156.451 166.784 156.579 166.782 156.805C166.772 158.221 166.777 159.637 166.777 161.054Z" fill="white"/>
<path opacity="0.1" fill-rule="evenodd" clip-rule="evenodd" d="M191.033 0C192.007 0.2 192.988 0.358957 193.949 0.605957C198.312 1.72696 202.138 3.95195 205.58 6.75195C209.559 9.98695 213.506 13.304 217.164 16.895C227.658 27.193 237.986 37.66 248.408 48.033C253.609 53.209 258.82 58.374 263.502 64.036C266.473 67.627 269.178 71.394 270.924 75.766C271.866 78.12 272.407 80.5579 272.407 83.0979C272.409 131.753 272.481 180.408 272.354 229.061C272.321 241.246 267.344 251.447 258.25 259.573C251.973 265.181 244.592 268.465 236.271 269.611C234.523 269.853 232.744 269.966 230.98 269.966C189.378 269.987 147.775 270.04 106.174 269.945C93.6334 269.917 83.1644 264.951 74.8724 255.518C69.5394 249.451 66.3723 242.35 65.1693 234.381C64.9093 232.667 64.7823 230.916 64.7823 229.181C64.7623 166.479 64.7333 103.776 64.7953 41.073C64.8073 29.29 69.4193 19.344 77.9333 11.255C84.2543 5.249 91.8244 1.69991 100.443 0.404907C101.51 0.242907 102.587 0.134 103.658 0C132.783 0 161.908 0 191.033 0ZM85.4963 134.913C85.4963 166.15 85.4943 197.386 85.5063 228.621C85.5063 229.56 85.5733 230.51 85.7173 231.437C87.3483 241.862 95.8894 249.191 106.492 249.196C147.863 249.212 189.236 249.201 230.609 249.205C233.974 249.205 237.217 248.584 240.181 246.994C247.638 242.987 251.609 236.694 251.62 228.23C251.681 183.372 251.649 138.518 251.649 93.6599C251.649 93.4599 251.643 93.2609 251.637 93.0609C251.459 88.5689 249.442 85.8489 245.182 84.4089C241.977 83.3249 238.639 83.123 235.303 83.11C223.567 83.062 211.832 83.089 200.098 83.079C193.883 83.075 189.332 78.53 189.332 72.335C189.33 62.141 189.359 51.9479 189.316 41.7539C189.298 38.2189 189.175 34.68 188.955 31.151C188.812 28.899 188.301 26.685 187.133 24.705C185.627 22.149 183.514 20.7009 180.387 20.7069C155.889 20.7539 131.391 20.742 106.893 20.756C106.067 20.756 105.238 20.8 104.413 20.869C93.7633 21.769 85.4974 30.769 85.4954 41.459C85.4964 72.611 85.4963 103.763 85.4963 134.913Z" fill="black"/>
</svg>
