<svg width="115" height="150" viewBox="0 0 115 150" fill="none" xmlns="http://www.w3.org/2000/svg">
<path fill-rule="evenodd" clip-rule="evenodd" d="M22.9471 150C20.0761 149.117 17.0091 148.616 14.3711 147.276C5.47812 142.759 0.37514 135.367 0.17514 125.358C-0.13786 109.695 0.0651494 94.0177 0.0601494 78.3467C0.0571494 63.2587 0.0361477 48.1716 0.0771477 33.0876C0.113148 20.6606 7.92715 10.5626 19.9561 7.82861C23.6541 6.98761 27.5742 7.11671 31.3922 6.80371C31.4352 6.96071 31.4752 7.12074 31.5172 7.28174C31.2432 7.49874 30.9782 7.73062 30.6942 7.93262C27.7342 10.0386 25.6871 12.7976 24.5741 16.2756C24.4081 16.7886 23.7971 17.4558 23.3121 17.5298C15.7111 18.7048 10.1912 25.3897 10.2802 33.3457C10.4002 43.9877 10.3081 54.6337 10.3101 65.2727C10.3121 84.8527 10.3041 104.429 10.3241 124.009C10.3341 132.101 15.5741 138.265 23.5511 139.601C24.4571 139.749 25.3981 139.746 26.3221 139.749C47.1191 139.755 67.9191 139.758 88.7181 139.749C98.1131 139.746 104.717 133.138 104.722 123.715C104.73 93.6386 104.73 63.5637 104.722 33.4917C104.717 26.0497 101.113 20.4617 94.2291 18.2947C91.6331 17.4797 90.2611 16.3988 89.3881 13.8748C88.4961 11.2738 87.2811 10.3188 83.5721 6.93677C86.8851 7.10877 90.2491 6.96974 93.5021 7.51074C106.288 9.62674 114.944 20.0787 114.956 33.2317C114.983 61.8397 114.976 90.4528 114.952 119.061C114.952 122.08 115.013 125.134 114.629 128.115C113.199 139.17 104.217 148.111 93.1911 149.703C92.8161 149.756 92.4571 149.896 92.0851 150C69.0391 150 45.9911 150 22.9471 150Z" fill="#D1D4D3"/>
<path fill-rule="evenodd" clip-rule="evenodd" d="M63.3751 9.39799e-08C66.9241 0.796 70.0041 2.35498 71.9341 5.58398C72.5961 6.69698 73.1141 7.93799 73.4641 9.18799C73.7071 10.067 74.0331 10.346 74.9301 10.343C78.4791 10.333 81.5551 11.473 83.7591 14.384C86.2011 17.605 86.7111 21.1669 85.0751 24.8679C83.4531 28.5459 80.5211 30.6529 76.4921 31.0269C74.7481 31.1889 72.9801 31.0939 71.2231 31.0969C60.8241 31.1009 50.4231 31.113 40.0241 31.092C34.5661 31.081 30.6171 28.093 29.3331 23.094C27.8471 17.311 32.1011 11.048 38.0501 10.564C40.2261 10.386 41.4191 9.93705 42.1711 7.55005C43.4091 3.62405 46.5331 1.33289 50.5341 0.316895C50.9091 0.217895 51.2801 0.108953 51.6541 0.00195322C55.5621 -4.6781e-05 59.4681 9.39799e-08 63.3751 9.39799e-08Z" fill="#39974A"/>
<path fill-rule="evenodd" clip-rule="evenodd" d="M27.3647 67.6546C19.4337 62.9206 18.0547 55.0496 19.8637 49.3726C21.8477 43.1416 27.8017 38.7308 34.2827 38.6678C40.9287 38.6018 46.8707 42.8307 49.0327 49.1087C50.9487 54.6747 49.7437 62.7717 41.6597 67.6607C46.8817 70.7547 49.8197 75.2897 49.8157 81.3167C49.8117 87.3007 46.8667 91.7778 41.7317 94.8538C52.1727 101.226 51.5397 113.292 45.2997 119.437C38.6907 125.943 28.4767 125.322 22.4567 117.965C16.9027 111.184 18.2397 100.243 27.3387 94.9258C22.1787 91.7968 19.1707 87.3407 19.1837 81.2967C19.1957 75.2937 22.0827 70.8106 27.3647 67.6546ZM32.5307 54.6316C31.9057 53.9686 31.4427 53.4687 30.9667 52.9807C30.4547 52.4597 29.9437 51.9377 29.4077 51.4388C27.9847 50.1098 26.2787 49.9906 25.0977 51.1216C23.8647 52.3016 23.9407 54.0487 25.3627 55.5247C26.9167 57.1387 28.5057 58.7256 30.1107 60.2896C31.8397 61.9776 33.3117 61.9707 35.0557 60.2547C37.4877 57.8597 39.8917 55.4406 42.2957 53.0166C42.9807 52.3276 43.6917 51.6468 44.2607 50.8648C45.0357 49.7978 44.8607 48.2987 43.9857 47.3697C43.0797 46.4037 41.5227 46.1987 40.3787 46.9527C39.8967 47.2727 39.4727 47.6898 39.0587 48.1028C36.9217 50.2258 34.7957 52.3606 32.5307 54.6316ZM32.5447 82.0437C31.9067 81.3247 31.4407 80.7717 30.9457 80.2427C30.4437 79.7127 29.9287 79.1938 29.3917 78.6988C27.9557 77.3778 26.2577 77.2807 25.0807 78.4297C23.8947 79.5957 23.9397 81.3136 25.2917 82.7246C26.9087 84.4156 28.5617 86.0758 30.2447 87.6988C31.7997 89.1968 33.3267 89.2197 34.8737 87.7107C37.8387 84.8207 40.7647 81.8837 43.6667 78.9287C45.0297 77.5357 45.1027 75.7996 43.9657 74.6216C42.7897 73.4006 41.0047 73.4847 39.5587 74.8887C37.9847 76.4147 36.4467 77.9756 34.9067 79.5376C34.1597 80.2956 33.4467 81.0877 32.5447 82.0437ZM32.4767 109.266C31.8827 108.584 31.4497 108.054 30.9827 107.559C30.4827 107.028 29.9697 106.504 29.4297 106.012C27.8967 104.604 26.2247 104.532 25.0287 105.791C23.8797 107.002 23.9767 108.648 25.3557 110.082C26.8747 111.664 28.4377 113.201 29.9997 114.74C31.8687 116.582 33.2777 116.586 35.1537 114.734C37.5807 112.334 39.9907 109.924 42.3907 107.497C43.0727 106.807 43.7787 106.117 44.3227 105.322C45.0627 104.236 44.8167 102.746 43.8957 101.849C42.9517 100.934 41.5397 100.767 40.4087 101.506C39.9267 101.826 39.4967 102.238 39.0847 102.644C36.9477 104.768 34.8237 106.909 32.4767 109.266Z" fill="#39974A"/>
<path fill-rule="evenodd" clip-rule="evenodd" d="M73.4362 76.1712C78.7092 76.1712 83.9812 76.1403 89.2542 76.1893C91.8102 76.2083 93.7392 77.8883 94.2242 80.3253C94.6762 82.6123 93.5412 84.9333 91.3862 85.8643C90.6022 86.1983 89.6902 86.3801 88.8382 86.3831C78.5352 86.4161 68.2332 86.4213 57.9342 86.3953C54.6622 86.3923 52.3912 84.2002 52.4282 81.2122C52.4672 78.2642 54.7052 76.1793 57.9092 76.1683C63.0852 76.1463 68.2612 76.1612 73.4352 76.1612V76.1712H73.4362Z" fill="#39974A"/>
<path fill-rule="evenodd" clip-rule="evenodd" d="M73.3589 113.673C68.2809 113.673 63.2019 113.687 58.1269 113.673C54.7159 113.667 52.4139 111.579 52.4219 108.539C52.4309 105.511 54.7519 103.427 58.1549 103.427C68.3569 103.424 78.5619 103.415 88.7649 103.442C92.5869 103.449 95.0419 106.431 94.1459 109.875C93.5489 112.16 91.5989 113.649 89.0319 113.667C83.8079 113.696 78.5839 113.673 73.3589 113.673Z" fill="#39974A"/>
<path fill-rule="evenodd" clip-rule="evenodd" d="M73.3746 48.9097C78.6966 48.9097 84.0176 48.8729 89.3386 48.9249C91.8786 48.9499 93.7826 50.6598 94.2396 53.1278C94.6716 55.4598 93.4116 57.8187 91.1716 58.6737C90.4116 58.9627 89.5566 59.1087 88.7446 59.1107C78.4936 59.1427 68.2396 59.1459 57.9896 59.1229C54.9796 59.1169 52.8116 57.3237 52.4856 54.7127C52.1616 52.0857 53.6026 49.8117 56.1226 49.1107C56.8136 48.9207 57.5656 48.9027 58.2926 48.8997C63.3186 48.8797 68.3496 48.8907 73.3746 48.8907C73.3746 48.8907 73.3746 48.9027 73.3746 48.9097Z" fill="#39974A"/>
</svg>
