<svg width="127" height="35" viewBox="0 0 127 35" fill="none" xmlns="http://www.w3.org/2000/svg">
<path d="M28.4611 21.0388H23.2771C22.8961 21.0388 22.5881 20.7337 22.5881 20.3527C22.5881 19.9717 22.8971 19.6638 23.2771 19.6638H28.3791C28.8831 19.5368 31.9021 18.653 31.8361 15.863C31.8071 14.597 31.4001 13.623 30.6271 12.967C28.9731 11.564 26.1761 11.9362 26.1481 11.9392C25.9641 11.9652 25.7791 11.9169 25.6301 11.8019C25.4851 11.6919 25.3901 11.524 25.3681 11.34C25.3431 11.146 24.7371 6.53095 20.8571 6.17695C17.0501 5.83395 16.0461 10.181 16.0071 10.364C15.9231 10.737 15.5581 10.9708 15.1871 10.8898C14.8161 10.8088 14.5801 10.4429 14.6601 10.0739C15.0881 8.09292 16.9651 4.44278 20.9801 4.80878C24.5851 5.13678 26.1691 8.39112 26.6261 10.5241C27.7281 10.4811 29.9461 10.5881 31.5171 11.9191C32.6031 12.8411 33.1731 14.1572 33.2121 15.8332C33.2881 19.1282 30.2331 20.6711 28.6081 21.0251C28.5581 21.0331 28.5101 21.0388 28.4611 21.0388Z" fill="white"/>
<path d="M7.50812 15.1836H4.80713C4.42813 15.1836 4.11914 14.8756 4.11914 14.4976C4.11914 14.1166 4.42813 13.8096 4.80713 13.8096H7.51013C7.88913 13.8096 8.19812 14.1176 8.19812 14.4976C8.19712 14.8756 7.88912 15.1836 7.50812 15.1836Z" fill="white"/>
<path d="M8.89581 25.9961H6.19684C5.81584 25.9961 5.50781 25.6871 5.50781 25.3071C5.50781 24.9301 5.81684 24.6211 6.19684 24.6211H8.89581C9.27681 24.6211 9.58484 24.9301 9.58484 25.3071C9.58584 25.6881 9.27681 25.9961 8.89581 25.9961Z" fill="white"/>
<path d="M26.5348 25.9961H22.2828C21.9018 25.9961 21.5938 25.6871 21.5938 25.3071C21.5938 24.9301 21.9028 24.6211 22.2828 24.6211H26.5348C26.9158 24.6211 27.2248 24.9301 27.2248 25.3071C27.2238 25.6881 26.9158 25.9961 26.5348 25.9961Z" fill="white"/>
<path d="M7.50842 21.0469H1.58643C1.20543 21.0469 0.898438 20.7398 0.898438 20.3608C0.898438 19.9798 1.20443 19.6729 1.58643 19.6729H7.51044C7.88944 19.6729 8.19843 19.9798 8.19843 20.3608C8.19743 20.7398 7.88942 21.0469 7.50842 21.0469Z" fill="white"/>
<path d="M15.3732 11.7734L8.87012 12.9004V21.7212C8.87012 26.0742 15.2261 28.5732 15.2261 28.5732C15.2261 28.5732 21.9122 25.6631 21.9122 19.6631H21.8701V12.9004L15.3732 11.7734ZM18.3441 17.6914L14.6271 21.4082C14.5311 21.5042 14.4002 21.5562 14.2642 21.5562C14.1292 21.5562 13.9981 21.5032 13.9031 21.4082L12.0421 19.5493C11.8411 19.3483 11.8411 19.0262 12.0441 18.8242C12.2431 18.6242 12.5672 18.6242 12.7692 18.8242L14.2651 20.3223L17.6191 16.9683C17.8181 16.7673 18.1441 16.7673 18.3461 16.9683C18.5431 17.1673 18.5431 17.4904 18.3441 17.6914Z" fill="white"/>
<path d="M46.7359 13.7759C46.6249 13.9559 46.5059 14.0916 46.3819 14.1816C46.2609 14.2716 46.1029 14.3159 45.9069 14.3159C45.7349 14.3159 45.5499 14.2638 45.3519 14.1528C45.1549 14.0458 44.9299 13.9236 44.6799 13.7876C44.4319 13.6506 44.1469 13.5319 43.8259 13.4209C43.5039 13.3139 43.1389 13.2588 42.7289 13.2588C42.0199 13.2588 41.4919 13.4088 41.1469 13.7158C40.7989 14.0208 40.6259 14.4298 40.6259 14.9458C40.6259 15.2778 40.7299 15.553 40.9389 15.772C41.1479 15.987 41.4209 16.175 41.7629 16.335C42.1009 16.493 42.4899 16.6376 42.9269 16.7686C43.3609 16.8996 43.8079 17.044 44.2629 17.208C44.7179 17.37 45.1629 17.5599 45.6009 17.7759C46.0389 17.9949 46.4249 18.2699 46.7649 18.6099C47.1049 18.9479 47.3779 19.3568 47.5869 19.8418C47.7939 20.3298 47.8999 20.9108 47.8999 21.5938C47.8999 22.3518 47.7689 23.0646 47.5089 23.7236C47.2469 24.3826 46.8679 24.9587 46.3719 25.4497C45.8759 25.9437 45.2649 26.3308 44.5379 26.6118C43.8089 26.8938 42.9829 27.0366 42.0579 27.0366C41.5519 27.0366 41.0339 26.981 40.5089 26.877C39.9839 26.773 39.4739 26.6236 38.9819 26.4326C38.4879 26.2416 38.0269 26.0145 37.5929 25.7485C37.1589 25.4845 36.7839 25.1936 36.4639 24.8716L37.5829 23.0947C37.6729 22.9657 37.7899 22.859 37.9349 22.772C38.0799 22.687 38.2379 22.6406 38.4109 22.6406C38.6339 22.6406 38.8599 22.7139 39.0889 22.8569C39.3159 22.9989 39.5729 23.1576 39.8599 23.3296C40.1469 23.5046 40.4769 23.6617 40.8499 23.8037C41.2229 23.9467 41.6629 24.0156 42.1699 24.0156C42.8559 24.0156 43.3889 23.866 43.7719 23.563C44.1509 23.258 44.3399 22.7758 44.3399 22.1138C44.3399 21.7298 44.2359 21.4187 44.0269 21.1797C43.8159 20.9397 43.5449 20.7385 43.2049 20.5815C42.8649 20.4245 42.4779 20.2845 42.0469 20.1655C41.6129 20.0435 41.1679 19.9096 40.7149 19.7656C40.2599 19.6196 39.8169 19.4396 39.3829 19.2246C38.9509 19.0096 38.5649 18.7289 38.2249 18.3789C37.8849 18.0309 37.6119 17.5948 37.4029 17.0718C37.1939 16.5488 37.0899 15.9057 37.0899 15.1387C37.0899 14.5227 37.2129 13.9249 37.4589 13.3369C37.7029 12.7499 38.0659 12.23 38.5429 11.771C39.0219 11.312 39.6069 10.9469 40.3009 10.6729C40.9939 10.3969 41.7869 10.2607 42.6839 10.2607C43.1839 10.2607 43.6699 10.3019 44.1449 10.3799C44.6169 10.4579 45.0689 10.5725 45.4939 10.7275C45.9179 10.8815 46.3149 11.0678 46.6839 11.2808C47.0549 11.4958 47.3849 11.7368 47.6759 12.0078L46.7359 13.7759Z" fill="white"/>
<path d="M53.2952 9.99121V19.4424H53.8092C54.0262 19.4424 54.1902 19.4113 54.3012 19.3433C54.4122 19.2803 54.5262 19.1744 54.6372 19.0244L56.8282 15.7354C56.9632 15.5464 57.1172 15.4075 57.2892 15.3135C57.4592 15.2175 57.6802 15.1704 57.9472 15.1704H61.1272L58.1272 19.3281C57.8442 19.7031 57.5102 20.0124 57.1212 20.2524C57.2932 20.3814 57.4492 20.5293 57.5902 20.6973C57.7332 20.8653 57.8672 21.0561 57.9942 21.2661L61.2622 26.8535H58.1272C57.8672 26.8535 57.6452 26.8062 57.4572 26.7222C57.2712 26.6352 57.1132 26.4841 56.9862 26.2671L54.7932 22.1343C54.6892 21.9463 54.5822 21.823 54.4692 21.769C54.3582 21.71 54.1922 21.6841 53.9672 21.6841H53.2952V26.8535H49.8242V9.99023H53.2952V9.99121Z" fill="white"/>
<path d="M73.5702 15.1719L67.3692 29.8828C67.2642 30.1148 67.1392 30.2869 66.9882 30.3979C66.8402 30.5059 66.6012 30.5605 66.2732 30.5605H63.6772L65.9132 25.8276L61.2822 15.1729H64.3462C64.6162 15.1729 64.8232 15.2316 64.9692 15.3506C65.1142 15.4726 65.2192 15.6168 65.2872 15.7808L67.1892 20.8159C67.3682 21.2749 67.5132 21.7436 67.6252 22.2256C67.7072 21.9836 67.7892 21.7459 67.8732 21.5049C67.9532 21.2639 68.0392 21.026 68.1292 20.793L69.8542 15.7798C69.9202 15.6058 70.0402 15.4638 70.2112 15.3438C70.3812 15.2308 70.5682 15.1719 70.7702 15.1719H73.5702Z" fill="white"/>
<path d="M90.7227 18.6421C90.7227 19.8301 90.5197 20.9223 90.1117 21.9253C89.7057 22.9283 89.1327 23.7974 88.3947 24.5264C87.6567 25.2584 86.7657 25.8312 85.7267 26.2412C84.6857 26.6472 83.5317 26.8545 82.2637 26.8545H75.9297V10.4434H82.2637C83.5317 10.4434 84.6857 10.649 85.7267 11.061C86.7677 11.474 87.6567 12.0434 88.3947 12.7734C89.1327 13.5034 89.7047 14.3681 90.1117 15.3711C90.5187 16.3731 90.7227 17.4651 90.7227 18.6421ZM86.8507 18.6421C86.8507 17.8311 86.7447 17.0993 86.5357 16.4463C86.3267 15.7923 86.0257 15.2412 85.6357 14.7842C85.2427 14.3312 84.7627 13.9813 84.1967 13.7383C83.6307 13.4943 82.9857 13.3691 82.2627 13.3691H79.7337V23.9253H82.2627C82.9857 23.9253 83.6297 23.8035 84.1967 23.5625C84.7627 23.3165 85.2437 22.9662 85.6357 22.5132C86.0267 22.0602 86.3267 21.5051 86.5357 20.8511C86.7457 20.1971 86.8507 19.4611 86.8507 18.6421Z" fill="white"/>
<path d="M106.521 26.8555H103.099C102.464 26.8555 102.009 26.6113 101.734 26.1323L99.0246 21.3691C98.8976 21.1651 98.7546 21.0174 98.5986 20.9214C98.4426 20.8314 98.2196 20.7822 97.9286 20.7822H96.9636V26.8545H93.1846V10.4414H98.4856C99.6656 10.4414 100.67 10.5632 101.504 10.8032C102.334 11.0512 103.014 11.3872 103.539 11.8242C104.066 12.2612 104.447 12.7742 104.685 13.3672C104.923 13.9642 105.044 14.6082 105.044 15.3052C105.044 15.8402 104.974 16.3424 104.831 16.8154C104.688 17.2904 104.479 17.7284 104.204 18.1294C103.929 18.5294 103.589 18.8871 103.181 19.2031C102.773 19.5191 102.306 19.7794 101.777 19.9824C102.021 20.1094 102.254 20.2695 102.47 20.4595C102.687 20.6505 102.88 20.8811 103.052 21.1421L106.521 26.8555ZM98.4896 18.1553C99.0016 18.1553 99.4406 18.0924 99.8026 17.9614C100.164 17.8274 100.461 17.648 100.692 17.415C100.924 17.183 101.092 16.9091 101.198 16.5991C101.302 16.2851 101.354 15.9513 101.354 15.5913C101.354 14.8663 101.119 14.3064 100.655 13.9004C100.188 13.4964 99.4666 13.2935 98.4906 13.2935H96.9676V18.1562H98.4896V18.1553Z" fill="white"/>
<path d="M126.449 10.4434V26.8564H123.116V17.4175C123.116 17.1965 123.124 16.9601 123.133 16.7041C123.145 16.4481 123.164 16.1902 123.196 15.9292L118.864 24.3652C118.731 24.6292 118.551 24.8264 118.323 24.9614C118.094 25.0984 117.835 25.1641 117.546 25.1641H117.03C116.739 25.1641 116.479 25.0984 116.253 24.9614C116.026 24.8264 115.843 24.6292 115.71 24.3652L111.38 15.9062C111.401 16.1772 111.421 16.4412 111.435 16.6992C111.451 16.9592 111.458 17.1975 111.458 17.4185V26.8564H108.124V10.4453H111.009C111.173 10.4453 111.32 10.4481 111.441 10.4561C111.566 10.4621 111.675 10.4854 111.771 10.5234C111.869 10.5614 111.956 10.6202 112.035 10.6982C112.115 10.7762 112.189 10.8863 112.265 11.0293L116.46 19.353C116.608 19.641 116.753 19.9371 116.89 20.2451C117.029 20.5541 117.161 20.8704 117.288 21.1924C117.417 20.8624 117.548 20.5392 117.685 20.2212C117.824 19.9052 117.972 19.6063 118.126 19.3193L122.313 11.0293C122.388 10.8863 122.465 10.7762 122.542 10.6982C122.62 10.6202 122.709 10.5614 122.806 10.5234C122.903 10.4854 123.013 10.4611 123.137 10.4561C123.259 10.4481 123.403 10.4453 123.568 10.4453H126.449V10.4434Z" fill="white"/>
</svg>
