<svg width="106" height="20" viewBox="0 0 106 20" fill="none" xmlns="http://www.w3.org/2000/svg">
<path d="M16.9063 13.6488C16.9063 17.1568 11.7603 19.9988 11.7603 19.9988C11.7603 19.9988 6.6123 17.1568 6.6123 13.6488V6.54084L11.7603 5.63184L16.9063 6.54084V13.6488Z" fill="#38974A"/>
<path d="M11.7598 5.63184L16.9058 6.54084V13.6488C16.9058 17.1578 11.7598 19.9988 11.7598 19.9988" fill="#7AC36D"/>
<path d="M11.7598 5.63184L16.9058 6.54084V13.6488C16.9058 17.1578 11.7598 19.9988 11.7598 19.9988" fill="url(#paint0_linear)"/>
<path d="M22.2115 13.1006H18.0335C17.7265 13.1006 17.4776 12.8526 17.4776 12.5466C17.4776 12.2396 17.7265 11.9926 18.0335 11.9926H22.1455C22.5505 11.8896 24.9835 11.1776 24.9315 8.92963C24.9065 7.91063 24.5785 7.12363 23.9555 6.59663C22.6225 5.46563 20.3695 5.76563 20.3475 5.76763C20.1995 5.78863 20.0496 5.74863 19.9306 5.65763C19.8136 5.56663 19.7366 5.43163 19.7196 5.28563C19.6986 5.12663 19.2105 1.40963 16.0825 1.12363C13.0155 0.847626 12.2065 4.34963 12.1735 4.49863C12.1095 4.79663 11.8146 4.98763 11.5146 4.92063C11.2156 4.85563 11.0255 4.56163 11.0895 4.26263C11.4355 2.66663 12.9465 -0.274374 16.1835 0.0206259C19.0875 0.285626 20.3666 2.90663 20.7326 4.62663C21.6206 4.59263 23.4085 4.67663 24.6735 5.75163C25.5485 6.49363 26.0085 7.55463 26.0395 8.90463C26.1015 11.5586 23.6395 12.8016 22.3285 13.0896C22.2905 13.0956 22.2505 13.1006 22.2115 13.1006Z" fill="#39974A"/>
<path d="M5.32672 8.38244H3.14972C2.84172 8.38244 2.59473 8.13444 2.59473 7.82744C2.59473 7.52044 2.84172 7.27344 3.14972 7.27344H5.32672C5.63272 7.27344 5.88173 7.52044 5.88173 7.82744C5.88173 8.13444 5.63272 8.38244 5.32672 8.38244Z" fill="#39974A"/>
<path d="M6.44586 17.0944H4.26886C3.96286 17.0944 3.71387 16.8454 3.71387 16.5394C3.71387 16.2334 3.96286 15.9854 4.26886 15.9854H6.44586C6.75386 15.9854 7.00085 16.2334 7.00085 16.5394C7.00085 16.8454 6.75386 17.0944 6.44586 17.0944Z" fill="#39974A"/>
<path d="M20.6587 17.0944H17.2327C16.9257 17.0944 16.6777 16.8454 16.6777 16.5394C16.6777 16.2334 16.9257 15.9854 17.2327 15.9854H20.6587C20.9657 15.9854 21.2147 16.2334 21.2147 16.5394C21.2147 16.8454 20.9657 17.0944 20.6587 17.0944Z" fill="#39974A"/>
<path d="M5.327 13.107H0.554993C0.246993 13.107 0 12.859 0 12.554C0 12.247 0.247993 11.999 0.554993 11.999H5.327C5.633 11.999 5.882 12.247 5.882 12.554C5.882 12.859 5.633 13.107 5.327 13.107Z" fill="#39974A"/>
<path d="M11.011 13.7016C10.902 13.7016 10.796 13.6576 10.72 13.5806L9.22001 12.0816C9.05801 11.9216 9.058 11.6596 9.221 11.4986C9.38 11.3366 9.644 11.3366 9.805 11.4986L11.011 12.7066L13.714 10.0036C13.875 9.84159 14.137 9.84159 14.299 10.0016C14.46 10.1636 14.46 10.4246 14.299 10.5876L11.304 13.5816C11.225 13.6576 11.122 13.7016 11.011 13.7016Z" fill="#020202"/>
<path d="M11.011 13.517C10.902 13.517 10.796 13.474 10.72 13.396L9.22001 11.898C9.05801 11.738 9.058 11.477 9.221 11.315C9.38 11.154 9.644 11.154 9.805 11.315L11.011 12.521L13.714 9.81899C13.875 9.65799 14.137 9.65799 14.299 9.81899C14.46 9.97999 14.46 10.24 14.299 10.402L11.304 13.396C11.225 13.474 11.122 13.517 11.011 13.517Z" fill="white"/>
<path d="M37.3843 4.42418C37.2883 4.57818 37.1873 4.69318 37.0813 4.77118C36.9763 4.84918 36.8403 4.88818 36.6743 4.88818C36.5273 4.88818 36.3673 4.84218 36.1983 4.74818C36.0283 4.65518 35.8363 4.54918 35.6223 4.43318C35.4083 4.31518 35.1633 4.21318 34.8893 4.11918C34.6133 4.02618 34.2993 3.97818 33.9483 3.97818C33.3403 3.97818 32.8873 4.10918 32.5903 4.36918C32.2923 4.63318 32.1443 4.98518 32.1443 5.42818C32.1443 5.71318 32.2333 5.94718 32.4133 6.13518C32.5933 6.32118 32.8273 6.48118 33.1183 6.61718C33.4103 6.75318 33.7423 6.87718 34.1173 6.99118C34.4913 7.10118 34.8743 7.22818 35.2643 7.36618C35.6553 7.50618 36.0363 7.66818 36.4113 7.85618C36.7873 8.04318 37.1173 8.28118 37.4093 8.57118C37.7013 8.86318 37.9353 9.21418 38.1153 9.63018C38.2953 10.0462 38.3843 10.5462 38.3843 11.1332C38.3843 11.7842 38.2713 12.3922 38.0483 12.9592C37.8233 13.5252 37.5003 14.0192 37.0733 14.4412C36.6463 14.8642 36.1223 15.1952 35.4983 15.4382C34.8753 15.6792 34.1663 15.8002 33.3713 15.8002C32.9363 15.8002 32.4933 15.7542 32.0433 15.6642C31.5923 15.5742 31.1533 15.4462 30.7313 15.2822C30.3093 15.1182 29.9123 14.9222 29.5413 14.6972C29.1703 14.4702 28.8473 14.2192 28.5723 13.9432L29.5313 12.4172C29.6093 12.3082 29.7093 12.2162 29.8333 12.1432C29.9593 12.0692 30.0953 12.0312 30.2423 12.0312C30.4343 12.0312 30.6273 12.0932 30.8233 12.2142C31.0183 12.3372 31.2393 12.4732 31.4843 12.6202C31.7313 12.7682 32.0143 12.9032 32.3353 13.0272C32.6553 13.1492 33.0323 13.2102 33.4673 13.2102C34.0563 13.2102 34.5143 13.0802 34.8413 12.8192C35.1663 12.5582 35.3293 12.1432 35.3293 11.5772C35.3293 11.2472 35.2413 10.9792 35.0613 10.7742C34.8813 10.5672 34.6463 10.3972 34.3553 10.2622C34.0643 10.1262 33.7323 10.0062 33.3613 9.90518C32.9903 9.80118 32.6083 9.68618 32.2193 9.56218C31.8283 9.43618 31.4473 9.28318 31.0763 9.09718C30.7053 8.91518 30.3733 8.67418 30.0823 8.37318C29.7913 8.07218 29.5563 7.69918 29.3773 7.25118C29.1973 6.80418 29.1073 6.25118 29.1073 5.59418C29.1073 5.06618 29.2133 4.55018 29.4233 4.04618C29.6343 3.54518 29.9453 3.09718 30.3543 2.70418C30.7643 2.31018 31.2673 1.99718 31.8633 1.76218C32.4583 1.52818 33.1393 1.40918 33.9073 1.40918C34.3373 1.40918 34.7543 1.44418 35.1613 1.51118C35.5663 1.57818 35.9533 1.67818 36.3173 1.81118C36.6823 1.94418 37.0233 2.10118 37.3393 2.28518C37.6573 2.46818 37.9393 2.67618 38.1893 2.90718L37.3843 4.42418Z" fill="#1D60AD"/>
<path d="M43.0101 1.17578V9.28478H43.4501C43.6381 9.28478 43.7771 9.25778 43.8741 9.20178C43.9701 9.14578 44.0652 9.05578 44.1622 8.92678L46.0432 6.10378C46.1572 5.94278 46.2901 5.82278 46.4371 5.74278C46.5841 5.66078 46.7731 5.62078 47.0031 5.62078H49.7312L47.1582 9.18778C46.9152 9.50978 46.6271 9.77278 46.2941 9.97978C46.4411 10.0888 46.5772 10.2158 46.6962 10.3608C46.8182 10.5058 46.9342 10.6708 47.0432 10.8498L49.8472 15.6428H47.1591C46.9351 15.6428 46.7442 15.6038 46.5842 15.5298C46.4242 15.4558 46.2892 15.3258 46.1812 15.1398L44.2991 11.5938C44.2101 11.4318 44.1161 11.3298 44.0211 11.2808C43.9241 11.2318 43.7812 11.2078 43.5892 11.2078H43.0121V15.6428H40.0352V1.17578H43.0101Z" fill="#1D60AD"/>
<path d="M60.4052 5.62014L55.0853 18.2421C54.9973 18.4421 54.8873 18.5871 54.7593 18.6831C54.6313 18.7771 54.4273 18.8221 54.1463 18.8221H51.9193L53.8393 14.7611L49.8643 5.61914H52.4943C52.7253 5.61914 52.9023 5.67114 53.0283 5.77314C53.1523 5.87714 53.2423 5.99814 53.3003 6.14014L54.9323 10.4621C55.0863 10.8531 55.2103 11.2561 55.3063 11.6691C55.3783 11.4621 55.4472 11.2581 55.5182 11.0501C55.5882 10.8441 55.6633 10.6411 55.7393 10.4411L57.2183 6.14014C57.2763 5.99214 57.3782 5.86814 57.5262 5.76714C57.6722 5.66714 57.8323 5.61914 58.0063 5.61914H60.4052V5.62014Z" fill="#1D60AD"/>
<path d="M75.1227 8.59752C75.1227 9.61552 74.9477 10.5555 74.5987 11.4145C74.2507 12.2735 73.7597 13.0185 73.1257 13.6445C72.4927 14.2735 71.7287 14.7635 70.8357 15.1155C69.9437 15.4645 68.9527 15.6415 67.8637 15.6415H62.4297V1.56152H67.8637C68.9527 1.56152 69.9437 1.73852 70.8357 2.09252C71.7297 2.44852 72.4927 2.93652 73.1257 3.56252C73.7597 4.18652 74.2507 4.92952 74.5987 5.79052C74.9477 6.64952 75.1227 7.58752 75.1227 8.59752ZM71.8007 8.59752C71.8007 7.90052 71.7117 7.27352 71.5307 6.71252C71.3517 6.15252 71.0947 5.67752 70.7587 5.28652C70.4237 4.89752 70.0117 4.59752 69.5247 4.38852C69.0397 4.18052 68.4857 4.07352 67.8647 4.07352H65.6947V13.1305H67.8647C68.4857 13.1305 69.0397 13.0255 69.5247 12.8175C70.0117 12.6065 70.4237 12.3085 70.7587 11.9175C71.0957 11.5295 71.3527 11.0535 71.5307 10.4935C71.7117 9.93052 71.8007 9.29952 71.8007 8.59752Z" fill="#38974A"/>
<path d="M88.6764 15.6435H85.7394C85.1964 15.6435 84.8054 15.4355 84.5674 15.0245L82.2444 10.9375C82.1364 10.7645 82.0144 10.6355 81.8784 10.5565C81.7464 10.4755 81.5544 10.4345 81.3044 10.4345H80.4794V15.6435H77.2344V1.56152H81.7824C82.7944 1.56152 83.6554 1.66652 84.3704 1.87452C85.0834 2.08452 85.6674 2.37552 86.1184 2.74952C86.5694 3.12452 86.8964 3.56552 87.1014 4.07452C87.3054 4.58452 87.4084 5.13752 87.4084 5.73852C87.4084 6.19552 87.3474 6.62652 87.2254 7.03252C87.1044 7.43952 86.9244 7.81452 86.6884 8.15852C86.4514 8.50352 86.1594 8.80952 85.8094 9.08152C85.4604 9.35252 85.0594 9.57552 84.6064 9.74852C84.8164 9.85752 85.0144 9.99452 85.2004 10.1585C85.3874 10.3225 85.5524 10.5175 85.7004 10.7425L88.6764 15.6435ZM81.7844 8.18152C82.2254 8.18152 82.6004 8.12552 82.9124 8.01252C83.2214 7.89952 83.4774 7.74352 83.6754 7.54352C83.8734 7.34452 84.0174 7.11052 84.1084 6.84452C84.1984 6.57552 84.2424 6.28752 84.2424 5.97952C84.2424 5.36052 84.0424 4.87852 83.6424 4.52852C83.2424 4.18052 82.6224 4.00752 81.7854 4.00752H80.4804V8.18252H81.7844V8.18152Z" fill="#38974A"/>
<path d="M105.775 1.56152V15.6445H102.914V7.54452C102.914 7.35752 102.92 7.15452 102.928 6.93552C102.938 6.71652 102.956 6.49552 102.981 6.26952L99.2668 13.5085C99.1518 13.7345 98.9958 13.9045 98.8008 14.0185C98.6038 14.1355 98.3827 14.1935 98.1347 14.1935H97.6917C97.4417 14.1935 97.2188 14.1345 97.0247 14.0185C96.8307 13.9045 96.6738 13.7325 96.5598 13.5085L92.8448 6.25052C92.8638 6.48152 92.8797 6.70952 92.8927 6.93252C92.9047 7.15552 92.9117 7.35852 92.9117 7.54552V15.6445H90.0518V1.56152H92.5277C92.6687 1.56152 92.7937 1.56552 92.8977 1.57152C93.0027 1.57952 93.0978 1.59652 93.1808 1.62952C93.2638 1.66252 93.3387 1.71152 93.4067 1.77952C93.4747 1.84752 93.5408 1.94252 93.6038 2.06452L97.2047 9.20652C97.3327 9.45152 97.4567 9.70652 97.5737 9.96952C97.6917 10.2345 97.8057 10.5065 97.9147 10.7825C98.0227 10.4995 98.1377 10.2215 98.2567 9.95052C98.3747 9.67952 98.4997 9.42252 98.6347 9.17752L102.225 2.06552C102.289 1.94352 102.357 1.84852 102.423 1.78052C102.49 1.71152 102.565 1.66252 102.649 1.63052C102.732 1.59852 102.826 1.58052 102.932 1.57252C103.037 1.56652 103.161 1.56252 103.302 1.56252H105.775V1.56152Z" fill="#38974A"/>
<defs>
<linearGradient id="paint0_linear" x1="16.7823" y1="15.7223" x2="9.22856" y2="8.15884" gradientUnits="userSpaceOnUse">
<stop stop-color="#23743A"/>
<stop offset="0.2727" stop-color="#45B649"/>
<stop offset="1" stop-color="#73BF44"/>
</linearGradient>
</defs>
</svg>
