<svg width="28" height="27" viewBox="0 0 28 27" fill="none" xmlns="http://www.w3.org/2000/svg">
<path fill-rule="evenodd" clip-rule="evenodd" d="M13.7422 26.7773C21.1377 26.7773 27.1318 20.7803 27.1318 13.3887C27.1318 5.99023 21.1377 0 13.7422 0C6.34766 0 0.353516 5.99023 0.353516 13.3887C0.353516 20.7803 6.34766 26.7773 13.7422 26.7773ZM10.9619 16.2314C9.64551 17.2256 8.16309 17.6377 6.51953 17.4756C6.52148 17.4902 6.52734 17.498 6.53418 17.5039C6.54102 17.5098 6.54883 17.5127 6.55566 17.5156C7.32422 17.999 8.14941 18.3516 9.03125 18.5723C9.76855 18.7598 10.5195 18.8467 11.2832 18.835C11.6572 18.8271 12.0283 18.8057 12.3984 18.7568C13.1494 18.6543 13.877 18.4658 14.5762 18.1758C15.5518 17.7666 16.4121 17.1885 17.1689 16.4443C17.6377 15.9854 18.0449 15.4717 18.3975 14.9131C18.8857 14.1455 19.248 13.3232 19.4893 12.4463C19.6123 12.002 19.7002 11.5518 19.751 11.0977C19.7949 10.7031 19.8105 10.3047 19.7969 9.90332C19.7939 9.81934 19.8164 9.7666 19.8848 9.71777C20.4199 9.31836 20.8721 8.84668 21.2539 8.29688L21.2617 8.28711C21.2715 8.27344 21.2842 8.25684 21.2783 8.22754C21.0146 8.34082 20.7471 8.43555 20.4746 8.51074C20.1855 8.59082 19.8916 8.64941 19.5908 8.68359C19.9795 8.43457 20.2959 8.12891 20.5381 7.76074C20.6865 7.53516 20.8076 7.28613 20.9014 7.0127L20.79 7.07324L20.6982 7.12305C20.1689 7.41113 19.6113 7.61328 19.0225 7.73535C18.9863 7.74512 18.9619 7.73633 18.9365 7.70996C18.8877 7.66309 18.8398 7.61426 18.7861 7.56641C18.0771 6.94824 17.2549 6.68359 16.3223 6.81641C15.7715 6.89746 15.2988 7.09277 14.9033 7.39648C14.5557 7.66406 14.2686 8.01562 14.041 8.44727C13.707 9.07422 13.6357 9.75293 13.7705 10.4492C13.7773 10.4844 13.7812 10.502 13.7734 10.5098C13.7656 10.5176 13.748 10.5166 13.7129 10.5156C13.627 10.5107 13.543 10.5029 13.457 10.4922C13.0938 10.4678 12.7324 10.4121 12.376 10.333C11.5889 10.1621 10.8408 9.88574 10.1318 9.50293C9.53223 9.18066 8.97949 8.79395 8.46973 8.34082C8.28516 8.17578 8.1084 8.00391 7.93848 7.8252C7.80957 7.68848 7.68555 7.54785 7.56445 7.40137C7.51855 7.34375 7.51367 7.34375 7.48047 7.40137C7.15039 8.00391 7.03418 8.64941 7.13867 9.3291C7.25977 10.1289 7.65039 10.7812 8.28711 11.2803L8.44531 11.4033C8.30469 11.3975 8.18359 11.3867 8.06055 11.3652C7.7334 11.3105 7.42578 11.209 7.13379 11.0527C7.12012 11.0449 7.10742 11.0381 7.09766 11.0371C7.08301 11.0352 7.07422 11.0449 7.07617 11.082C7.08398 11.2617 7.08984 11.4385 7.12793 11.6152C7.38086 12.7832 8.07129 13.5674 9.20117 13.9609C9.26953 13.9863 9.33789 14.0039 9.40723 14.0215L9.48633 14.042C9.47168 14.0615 9.4502 14.0615 9.43066 14.0674C9.18262 14.1279 8.93262 14.1543 8.68164 14.1504C8.52832 14.1475 8.375 14.1338 8.2207 14.1084C8.18359 14.1035 8.16504 14.1016 8.1582 14.1084C8.15137 14.1162 8.1582 14.1348 8.1709 14.1719C8.28906 14.5117 8.45703 14.8145 8.67383 15.082C8.8125 15.2529 8.9707 15.4082 9.14941 15.5498C9.63574 15.9316 10.1865 16.1523 10.8066 16.1992C10.8564 16.2021 10.9092 16.209 10.9609 16.2158L10.9619 16.2314Z" fill="white"/>
</svg>
