<svg width="340" height="270" viewBox="0 0 340 270" fill="none" xmlns="http://www.w3.org/2000/svg">
<path fill-rule="evenodd" clip-rule="evenodd" d="M248.263 7.57922L299.842 6.11328L336.023 41.0692L333.334 117.095L327.222 125.162L319.889 127.118H253.396L246.063 122.717L240.929 111.962V22.0022L242.642 14.4232L248.263 7.57922Z" fill="#39974A"/>
<path fill-rule="evenodd" clip-rule="evenodd" d="M299.546 0.000976562C300.022 0.0989766 300.501 0.176974 300.972 0.297974C303.106 0.844974 304.976 1.934 306.658 3.302C308.603 4.885 310.533 6.50499 312.323 8.26099C317.454 13.297 322.502 18.414 327.598 23.485C330.139 26.015 332.688 28.541 334.978 31.308C336.428 33.064 337.752 34.9059 338.606 37.0439C339.067 38.1929 339.33 39.3859 339.33 40.6279C339.331 64.4159 339.366 88.204 339.305 111.991C339.289 117.948 336.856 122.936 332.409 126.908C329.341 129.65 325.732 131.256 321.665 131.815C320.81 131.935 319.938 131.989 319.078 131.989C298.737 132 278.397 132.026 258.058 131.98C251.926 131.966 246.807 129.538 242.754 124.927C240.148 121.96 238.598 118.489 238.01 114.593C237.884 113.755 237.822 112.899 237.821 112.05C237.811 81.3949 237.795 50.739 237.828 20.084C237.833 14.321 240.088 9.46003 244.251 5.50403C247.342 2.56703 251.043 0.830998 255.257 0.197998C255.778 0.118998 256.305 0.064 256.828 0C271.066 0.001 285.307 0.000976562 299.546 0.000976562ZM247.947 65.962C247.947 81.233 247.946 96.504 247.951 111.776C247.951 112.236 247.985 112.7 248.054 113.153C248.853 118.249 253.029 121.833 258.213 121.835C278.439 121.843 298.666 121.838 318.895 121.841C320.541 121.841 322.125 121.536 323.576 120.759C327.222 118.801 329.163 115.724 329.169 111.585C329.197 89.653 329.183 67.723 329.183 45.792C329.183 45.694 329.181 45.597 329.177 45.5C329.091 43.303 328.104 41.974 326.021 41.27C324.454 40.74 322.823 40.64 321.193 40.635C315.454 40.611 309.717 40.624 303.979 40.619C300.94 40.617 298.716 38.3959 298.716 35.3669C298.716 30.3819 298.73 25.399 298.707 20.415C298.7 18.686 298.641 16.957 298.531 15.23C298.46 14.129 298.21 13.047 297.64 12.079C296.905 10.829 295.87 10.121 294.342 10.124C282.363 10.147 270.388 10.1419 258.409 10.1479C258.004 10.1479 257.599 10.17 257.196 10.203C251.989 10.643 247.949 15.044 247.947 20.271C247.947 35.501 247.947 50.731 247.947 65.962Z" fill="#39974A"/>
<path fill-rule="evenodd" clip-rule="evenodd" d="M290.231 41.3145C290.555 41.3455 290.878 41.3725 291.202 41.4055C292.623 41.5575 293.987 41.9195 295.288 42.5175C296.838 43.2275 298.177 44.2195 299.283 45.5175C300.262 46.6685 301.002 47.9645 301.549 49.3705C302.116 50.8315 302.448 52.3485 302.614 53.9055C302.768 55.3285 302.727 56.7555 302.73 58.1815C302.73 58.1915 302.727 58.2005 302.719 58.2235C300.85 58.2235 298.978 58.2235 297.089 58.2235C297.089 58.1565 297.091 58.0954 297.089 58.0344C297.078 57.0534 297.102 56.0685 297.048 55.0885C296.957 53.3845 296.612 51.7305 295.765 50.2235C294.768 48.4515 293.269 47.3844 291.246 47.0804C289.952 46.8864 288.661 46.8935 287.382 47.1895C285.694 47.5795 284.438 48.5635 283.529 50.0175C282.908 51.0085 282.547 52.1025 282.32 53.2445C282.113 54.2835 282.043 55.3334 282.045 56.3884C282.046 56.9434 282.045 57.4964 282.045 58.0494C282.045 58.1054 282.045 58.1614 282.045 58.2264C280.161 58.2264 278.294 58.2264 276.408 58.2264C276.408 58.1584 276.408 58.0985 276.408 58.0375C276.413 57.1275 276.397 56.2185 276.429 55.3075C276.517 52.7295 277.018 50.2475 278.218 47.9385C278.933 46.5625 279.857 45.3475 281.036 44.3345C282.322 43.2305 283.783 42.4425 285.4 41.9385C286.475 41.6045 287.574 41.4055 288.697 41.3455C288.764 41.3415 288.83 41.3255 288.896 41.3165C289.341 41.3145 289.786 41.3145 290.231 41.3145Z" fill="white"/>
<path fill-rule="evenodd" clip-rule="evenodd" d="M289.571 60.1155C293.934 60.1155 298.3 60.1145 302.663 60.1165C304.312 60.1175 305.72 60.7095 306.851 61.9115C307.87 62.9995 308.372 64.3055 308.372 65.7935C308.377 72.0395 308.393 78.2855 308.366 84.5315C308.355 86.8285 307.265 88.5305 305.237 89.6095C304.453 90.0255 303.599 90.2035 302.713 90.2035C293.949 90.2035 285.185 90.2066 276.42 90.2016C273.724 90.2006 271.435 88.3385 270.886 85.6995C270.804 85.3085 270.773 84.9005 270.773 84.5005C270.766 78.2705 270.767 72.0395 270.769 65.8075C270.771 63.1685 272.489 60.9406 275.021 60.2896C275.504 60.1676 275.996 60.1145 276.495 60.1155C280.853 60.1155 285.213 60.1155 289.571 60.1155ZM287.687 78.7405C287.687 79.2215 287.682 79.7035 287.688 80.1825C287.69 80.4925 287.679 80.8055 287.721 81.1115C287.858 82.1225 288.9 82.8485 289.903 82.6475C290.829 82.4615 291.445 81.7185 291.447 80.7705C291.45 79.4935 291.46 78.2165 291.438 76.9395C291.435 76.6355 291.488 76.4145 291.783 76.2905C291.793 76.2865 291.8 76.2795 291.808 76.2725C293.31 75.1775 293.772 73.1145 292.875 71.4855C292.054 69.9915 290.395 69.2415 288.724 69.6085C286.884 70.0155 285.592 71.8395 285.833 73.7005C285.984 74.8785 286.571 75.7835 287.563 76.4285C287.658 76.4905 287.689 76.5525 287.688 76.6625C287.684 77.3555 287.687 78.0485 287.687 78.7405Z" fill="white"/>
<path opacity="0.1" fill-rule="evenodd" clip-rule="evenodd" d="M299.546 0.000976562C300.022 0.0989766 300.501 0.176974 300.972 0.297974C303.106 0.844974 304.976 1.934 306.658 3.302C308.603 4.885 310.533 6.50499 312.323 8.26099C317.454 13.297 322.502 18.414 327.598 23.485C330.139 26.015 332.688 28.541 334.978 31.308C336.428 33.064 337.752 34.9059 338.606 37.0439C339.067 38.1929 339.33 39.3859 339.33 40.6279C339.331 64.4159 339.366 88.204 339.305 111.991C339.289 117.948 336.856 122.936 332.409 126.908C329.341 129.65 325.732 131.256 321.665 131.815C320.81 131.935 319.938 131.989 319.078 131.989C298.737 132 278.397 132.026 258.058 131.98C251.926 131.966 246.807 129.538 242.754 124.927C240.148 121.96 238.598 118.489 238.01 114.593C237.884 113.755 237.822 112.899 237.821 112.05C237.811 81.3949 237.795 50.739 237.828 20.084C237.833 14.321 240.088 9.46003 244.251 5.50403C247.342 2.56703 251.043 0.830998 255.257 0.197998C255.778 0.118998 256.305 0.064 256.828 0C271.066 0.001 285.307 0.000976562 299.546 0.000976562ZM247.947 65.962C247.947 81.233 247.946 96.504 247.951 111.776C247.951 112.236 247.985 112.7 248.054 113.153C248.853 118.249 253.029 121.833 258.213 121.835C278.439 121.843 298.666 121.838 318.895 121.841C320.541 121.841 322.125 121.536 323.576 120.759C327.222 118.801 329.163 115.724 329.169 111.585C329.197 89.653 329.183 67.723 329.183 45.792C329.183 45.694 329.181 45.597 329.177 45.5C329.091 43.303 328.104 41.974 326.021 41.27C324.454 40.74 322.823 40.64 321.193 40.635C315.454 40.611 309.717 40.624 303.979 40.619C300.94 40.617 298.716 38.3959 298.716 35.3669C298.716 30.3819 298.73 25.399 298.707 20.415C298.7 18.686 298.641 16.957 298.531 15.23C298.46 14.129 298.21 13.047 297.64 12.079C296.905 10.829 295.87 10.121 294.342 10.124C282.363 10.147 270.388 10.1419 258.409 10.1479C258.004 10.1479 257.599 10.17 257.196 10.203C251.989 10.643 247.949 15.044 247.947 20.271C247.947 35.501 247.947 50.731 247.947 65.962Z" fill="black"/>
<path d="M87.6093 186.356C87.6093 204.914 72.5562 219.937 54.0162 219.937C35.4472 219.937 20.4062 204.914 20.4062 186.356C20.4062 167.788 35.4472 152.748 54.0162 152.748C72.5572 152.747 87.6093 167.788 87.6093 186.356Z" fill="#39974A"/>
<path opacity="0.1" d="M54.0172 160.128C68.4682 160.128 80.2292 171.893 80.2292 186.356C80.2292 200.805 68.4682 212.56 54.0172 212.56C39.5532 212.56 27.7882 200.806 27.7882 186.356C27.7882 171.893 39.5532 160.128 54.0172 160.128ZM54.0172 152.747C35.4482 152.747 20.4072 167.788 20.4072 186.355C20.4072 204.913 35.4482 219.936 54.0172 219.936C72.5572 219.936 87.6102 204.913 87.6102 186.355C87.6092 167.788 72.5572 152.747 54.0172 152.747Z" fill="black"/>
<path d="M54.017 225.79C34.59 225.79 16.245 230.399 0 238.581C11.053 256.837 31.106 269.046 54.017 269.046C76.913 269.046 96.957 256.831 108.003 238.575C91.766 230.396 73.43 225.79 54.017 225.79Z" fill="#39974A"/>
<path opacity="0.1" d="M54.017 233.169C68.922 233.169 83.288 235.995 96.85 241.578C86.344 254.287 70.854 261.663 54.017 261.663C37.168 261.663 21.673 254.287 11.161 241.583C24.721 235.995 39.1 233.169 54.017 233.169ZM54.017 225.79C34.59 225.79 16.245 230.399 0 238.581C11.053 256.837 31.106 269.046 54.017 269.046C76.913 269.046 96.957 256.831 108.003 238.575C91.766 230.396 73.43 225.79 54.017 225.79Z" fill="black"/>
<path d="M189.501 75.001C186.744 75.001 184.506 72.769 184.501 70.011C184.496 67.249 186.73 65.007 189.491 65.001L189.991 65C189.994 65 189.998 65 190.001 65C192.758 65 194.996 67.232 195.001 69.991C195.006 72.752 192.772 74.994 190.011 75L189.511 75.001C189.508 75.001 189.504 75.001 189.501 75.001Z" fill="#99C562"/>
<path d="M157.197 75.0356C154.437 75.0356 152.199 72.8006 152.197 70.0406C152.194 67.2786 154.43 65.0396 157.191 65.0356L158.201 65.0347C158.203 65.0347 158.205 65.0347 158.206 65.0347C160.965 65.0347 163.203 67.2696 163.206 70.0306C163.209 72.7916 160.973 75.0317 158.211 75.0347L157.201 75.0356C157.201 75.0356 157.198 75.0356 157.197 75.0356ZM173.35 75.0176C170.59 75.0176 168.352 72.7826 168.35 70.0216C168.347 67.2606 170.583 65.0206 173.344 65.0176L174.354 65.0166C174.356 65.0166 174.358 65.0166 174.359 65.0166C177.118 65.0166 179.356 67.2516 179.359 70.0126C179.362 72.7736 177.126 75.0136 174.364 75.0166L173.354 75.0176C173.353 75.0176 173.351 75.0176 173.35 75.0176Z" fill="#99C562"/>
<path d="M60.2832 75.1417C57.5232 75.1417 55.2852 72.9067 55.2832 70.1467C55.2812 67.3847 57.5172 65.1457 60.2782 65.1417L61.2872 65.1407C61.2892 65.1407 61.2912 65.1407 61.2932 65.1407C64.0522 65.1407 66.2902 67.3757 66.2932 70.1357C66.2952 72.8967 64.0592 75.1377 61.2972 75.1407L60.2882 75.1417C60.2882 75.1417 60.2852 75.1417 60.2832 75.1417ZM76.4362 75.1248C73.6762 75.1248 71.4382 72.8898 71.4362 70.1298C71.4342 67.3678 73.6702 65.1278 76.4312 65.1248L77.4402 65.1238C77.4422 65.1238 77.4442 65.1238 77.4462 65.1238C80.2052 65.1238 82.4432 67.3588 82.4462 70.1188C82.4482 72.8808 80.2112 75.1208 77.4502 75.1238L76.4412 75.1248C76.4402 75.1248 76.4382 75.1248 76.4362 75.1248ZM92.5882 75.1067C89.8282 75.1067 87.5902 72.8718 87.5882 70.1128C87.5852 67.3508 89.8222 65.1107 92.5822 65.1067L93.5922 65.1057C93.5942 65.1057 93.5962 65.1057 93.5982 65.1057C96.3572 65.1057 98.5952 67.3417 98.5982 70.1017C98.6002 72.8637 96.3642 75.1037 93.6022 75.1057L92.5922 75.1067C92.5912 75.1067 92.5892 75.1067 92.5882 75.1067ZM108.74 75.0897C105.98 75.0897 103.742 72.8547 103.74 70.0947C103.737 67.3327 105.973 65.0927 108.734 65.0897L109.744 65.0887C109.746 65.0887 109.748 65.0887 109.75 65.0887C112.509 65.0887 114.747 67.3237 114.75 70.0837C114.752 72.8457 112.516 75.0857 109.754 75.0887L108.744 75.0897C108.743 75.0897 108.741 75.0897 108.74 75.0897ZM124.893 75.0707C122.133 75.0707 119.895 72.8357 119.893 70.0757C119.89 67.3137 122.126 65.0747 124.887 65.0707H125.897C125.899 65.0707 125.901 65.0707 125.902 65.0707C128.661 65.0707 130.899 67.3057 130.902 70.0647C130.905 72.8267 128.669 75.0667 125.907 75.0707H124.897C124.896 75.0707 124.894 75.0707 124.893 75.0707ZM141.045 75.0537C138.285 75.0537 136.047 72.8187 136.045 70.0587C136.042 67.2967 138.279 65.0577 141.039 65.0537L142.049 65.0527C142.051 65.0527 142.053 65.0527 142.054 65.0527C144.813 65.0527 147.051 67.2877 147.054 70.0487C147.057 72.8097 144.821 75.0497 142.059 75.0527L141.049 75.0537C141.048 75.0537 141.046 75.0537 141.045 75.0537Z" fill="#99C562"/>
<path d="M44.6406 75.6603C41.8786 75.6603 39.6406 73.4223 39.6406 70.6603V70.1603C39.6406 67.4023 41.8726 65.1663 44.6306 65.1603L45.1306 65.1592C45.1346 65.1592 45.1376 65.1592 45.1406 65.1592C47.8986 65.1592 50.1346 67.3912 50.1406 70.1492C50.1436 71.6592 49.4766 73.0142 48.4206 73.9342C47.5036 74.9912 46.1496 75.6603 44.6406 75.6603Z" fill="#99C562"/>
<path d="M44.6406 101.773C41.8786 101.773 39.6406 99.5349 39.6406 96.7729V96.082C39.6406 93.321 41.8786 91.082 44.6406 91.082C47.4026 91.082 49.6406 93.321 49.6406 96.082V96.7729C49.6406 99.5349 47.4016 101.773 44.6406 101.773Z" fill="#99C562"/>
<path d="M44.6406 88.7174C41.8786 88.7174 39.6406 86.4794 39.6406 83.7174V83.0264C39.6406 80.2644 41.8786 78.0264 44.6406 78.0264C47.4026 78.0264 49.6406 80.2644 49.6406 83.0264V83.7174C49.6406 86.4784 47.4016 88.7174 44.6406 88.7174Z" fill="#99C562"/>
<path d="M44.6406 128.887C41.8786 128.887 39.6406 126.648 39.6406 123.887V123.196C39.6406 120.434 41.8786 118.196 44.6406 118.196C47.4026 118.196 49.6406 120.434 49.6406 123.196V123.887C49.6406 126.648 47.4016 128.887 44.6406 128.887Z" fill="#99C562"/>
<path d="M44.6406 114.83C41.8786 114.83 39.6406 112.593 39.6406 109.83V109.139C39.6406 106.377 41.8786 104.139 44.6406 104.139C47.4026 104.139 49.6406 106.377 49.6406 109.139V109.83C49.6406 112.593 47.4016 114.83 44.6406 114.83Z" fill="#99C562"/>
<path d="M45.1406 141.809C45.1376 141.809 45.1346 141.809 45.1306 141.809H44.6306C41.8726 141.802 39.6406 139.566 39.6406 136.809V136.309C39.6406 133.546 41.8786 131.309 44.6406 131.309C46.1506 131.309 47.5036 131.977 48.4206 133.036C49.4766 133.955 50.1436 135.309 50.1406 136.819C50.1346 139.577 47.8976 141.809 45.1406 141.809Z" fill="#99C562"/>
<path d="M73.2978 141.878C73.2948 141.878 73.2909 141.878 73.2869 141.878L72.4059 141.876C69.6449 141.87 67.4118 139.626 67.4178 136.865C67.4238 134.107 69.6618 131.876 72.4178 131.876C72.4218 131.876 72.4259 131.876 72.4299 131.876L73.3089 131.878C76.0709 131.885 78.3048 134.128 78.2978 136.889C78.2908 139.646 76.0548 141.878 73.2978 141.878ZM59.2189 141.844C59.2159 141.844 59.2119 141.844 59.2079 141.844L58.3279 141.842C55.5659 141.836 53.3329 139.593 53.3399 136.832C53.3459 134.074 55.5829 131.842 58.3389 131.842C58.3429 131.842 58.3469 131.842 58.3509 131.842L59.2309 131.844C61.9929 131.85 64.2259 134.094 64.2189 136.855C64.2129 139.613 61.9759 141.844 59.2189 141.844Z" fill="#99C562"/>
<path d="M200.008 142.188C200.002 142.188 199.996 142.188 199.99 142.188L199.111 142.185C196.349 142.176 194.118 139.93 194.127 137.168C194.137 134.413 196.373 132.185 199.127 132.185C199.133 132.185 199.139 132.185 199.145 132.185L200.024 132.188C202.786 132.197 205.017 134.443 205.008 137.205C204.998 139.961 202.762 142.188 200.008 142.188ZM185.929 142.153C185.925 142.153 185.921 142.153 185.917 142.153L185.037 142.151C182.275 142.146 180.042 139.901 180.049 137.141C180.055 134.382 182.292 132.151 185.048 132.151C185.052 132.151 185.056 132.151 185.06 132.151L185.94 132.153C188.702 132.159 190.935 134.403 190.928 137.164C190.922 139.922 188.685 142.153 185.929 142.153ZM171.85 142.119C171.846 142.119 171.842 142.119 171.838 142.119L170.959 142.117C168.197 142.111 165.963 139.867 165.97 137.106C165.977 134.349 168.213 132.117 170.969 132.117C170.973 132.117 170.977 132.117 170.981 132.117L171.862 132.119C174.623 132.125 176.856 134.369 176.85 137.13C176.844 139.888 174.606 142.119 171.85 142.119ZM157.772 142.085C157.768 142.085 157.764 142.085 157.76 142.085L156.88 142.084C154.12 142.077 151.885 139.833 151.891 137.072C151.898 134.314 154.135 132.084 156.891 132.084C156.895 132.084 156.899 132.084 156.903 132.084L157.783 132.085C160.544 132.091 162.778 134.335 162.772 137.096C162.765 139.853 160.527 142.085 157.772 142.085ZM143.692 142.051C143.688 142.051 143.684 142.051 143.68 142.051L142.8 142.049C140.038 142.043 137.805 139.799 137.812 137.038C137.818 134.281 140.055 132.049 142.811 132.049C142.815 132.049 142.819 132.049 142.823 132.049L143.703 132.051C146.465 132.057 148.698 134.301 148.691 137.062C148.686 139.819 146.448 142.051 143.692 142.051ZM129.613 142.017C129.607 142.017 129.602 142.017 129.596 142.017L128.716 142.013C125.954 142.004 123.724 139.758 123.733 136.996C123.742 134.24 125.979 132.013 128.732 132.013C128.738 132.013 128.744 132.013 128.75 132.013L129.63 132.017C132.391 132.025 134.623 134.271 134.614 137.033C134.604 139.789 132.367 142.017 129.613 142.017ZM115.535 141.982C115.529 141.982 115.523 141.982 115.517 141.982L114.638 141.98C111.876 141.971 109.645 139.726 109.654 136.963C109.664 134.208 111.9 131.98 114.654 131.98C114.66 131.98 114.666 131.98 114.671 131.98L115.55 131.982C118.312 131.991 120.543 134.237 120.534 137C120.525 139.755 118.289 141.982 115.535 141.982ZM101.456 141.947C101.452 141.947 101.448 141.947 101.444 141.947L100.564 141.945C97.8021 141.939 95.5691 139.695 95.5761 136.934C95.5821 134.176 97.8191 131.945 100.576 131.945C100.579 131.945 100.583 131.945 100.587 131.945L101.467 131.947C104.229 131.953 106.462 134.197 106.455 136.958C106.449 139.717 104.212 141.947 101.456 141.947ZM87.3771 141.913C87.3731 141.913 87.3691 141.913 87.3651 141.913L86.4861 141.911C83.7241 141.905 81.4901 139.661 81.4971 136.9C81.5041 134.142 83.7401 131.911 86.4971 131.911C86.5001 131.911 86.5041 131.911 86.5081 131.911L87.3891 131.913C90.1501 131.918 92.3831 134.163 92.3771 136.924C92.3711 139.682 90.1331 141.913 87.3771 141.913Z" fill="#99C562"/>
<path d="M213.706 142.722C212.196 142.722 210.843 142.053 209.926 140.994C208.869 140.075 208.203 138.721 208.206 137.211C208.211 134.453 210.449 132.221 213.206 132.221C213.209 132.221 213.213 132.221 213.216 132.221H213.716C216.474 132.227 218.706 134.464 218.706 137.221V137.721C218.706 140.483 216.467 142.722 213.706 142.722Z" fill="#99C562"/>
<path d="M213.706 173.188C210.945 173.188 208.706 170.951 208.706 168.188V167.236C208.706 164.474 210.945 162.236 213.706 162.236C216.467 162.236 218.706 164.474 218.706 167.236V168.188C218.706 170.951 216.467 173.188 213.706 173.188ZM213.706 157.955C210.945 157.955 208.706 155.716 208.706 152.955V152.002C208.706 149.24 210.945 147.002 213.706 147.002C216.467 147.002 218.706 149.24 218.706 152.002V152.955C218.706 155.717 216.467 157.955 213.706 157.955Z" fill="#99C562"/>
<path d="M213.706 218.889C210.945 218.889 208.706 216.65 208.706 213.889V212.936C208.706 210.174 210.945 207.936 213.706 207.936C216.467 207.936 218.706 210.174 218.706 212.936V213.889C218.706 216.65 216.467 218.889 213.706 218.889ZM213.706 203.655C210.945 203.655 208.706 201.417 208.706 198.655V197.703C208.706 194.941 210.945 192.703 213.706 192.703C216.467 192.703 218.706 194.941 218.706 197.703V198.655C218.706 201.417 216.467 203.655 213.706 203.655ZM213.706 188.422C210.945 188.422 208.706 186.183 208.706 183.422V182.469C208.706 179.707 210.945 177.469 213.706 177.469C216.467 177.469 218.706 179.707 218.706 182.469V183.422C218.706 186.183 216.467 188.422 213.706 188.422Z" fill="#99C562"/>
<path d="M213.706 233.67H213.206C210.445 233.67 208.206 231.432 208.206 228.67C208.206 227.162 208.873 225.81 209.93 224.894C210.846 223.839 212.199 223.17 213.706 223.17C216.467 223.17 218.706 225.408 218.706 228.17V228.67C218.706 231.432 216.467 233.67 213.706 233.67Z" fill="#99C562"/>
<path d="M199.123 233.67H198.185C195.424 233.67 193.185 231.432 193.185 228.67C193.185 225.908 195.424 223.67 198.185 223.67H199.123C201.885 223.67 204.123 225.908 204.123 228.67C204.123 231.432 201.885 233.67 199.123 233.67ZM184.102 233.67H183.164C180.403 233.67 178.164 231.432 178.164 228.67C178.164 225.908 180.403 223.67 183.164 223.67H184.102C186.864 223.67 189.102 225.908 189.102 228.67C189.102 231.432 186.863 233.67 184.102 233.67Z" fill="#99C562"/>
<path d="M169.08 233.67H168.141C165.38 233.67 163.141 231.432 163.141 228.67C163.141 225.908 165.38 223.67 168.141 223.67H169.08C171.842 223.67 174.08 225.908 174.08 228.67C174.08 231.432 171.842 233.67 169.08 233.67ZM154.059 233.67H153.12C150.359 233.67 148.12 231.432 148.12 228.67C148.12 225.908 150.359 223.67 153.12 223.67H154.059C156.821 223.67 159.059 225.908 159.059 228.67C159.059 231.432 156.82 233.67 154.059 233.67ZM139.037 233.67H138.098C135.337 233.67 133.098 231.432 133.098 228.67C133.098 225.908 135.337 223.67 138.098 223.67H139.037C141.799 223.67 144.037 225.908 144.037 228.67C144.037 231.432 141.799 233.67 139.037 233.67Z" fill="#99C562"/>
<path d="M124.016 233.67H123.516C120.754 233.67 118.516 231.432 118.516 228.67C118.516 225.908 120.754 223.67 123.516 223.67H124.016C126.778 223.67 129.016 225.908 129.016 228.67C129.016 231.432 126.777 233.67 124.016 233.67Z" fill="#99C562"/>
<path d="M184.512 60.0556C184.506 54.5556 188.401 52.3016 193.167 55.0466L210.399 64.9715C215.165 67.7165 215.17 72.2176 210.41 74.9726L193.199 84.9356C188.439 87.6916 184.54 85.4455 184.534 79.9455L184.512 60.0556Z" fill="#99C562"/>
</svg>
