<svg width="28" height="20" viewBox="0 0 28 20" fill="none" xmlns="http://www.w3.org/2000/svg">
<path fill-rule="evenodd" clip-rule="evenodd" d="M13.9622 4.0135C10.0932 4.0135 6.22426 4.0365 2.35426 3.9875C1.77426 3.9805 1.07724 3.7675 0.644238 3.4025C-0.513762 2.4335 -0.025775 0.5315 1.43123 0.1165C1.74923 0.0244995 2.09924 0.0045 2.43324 0.0045C10.1222 -0.0015 17.8142 -0.0015 25.5032 0.0045C25.8392 0.0045 26.1852 0.0255001 26.5072 0.1085C27.3702 0.3305 27.9333 1.0865 27.9453 1.9735C27.9573 2.8945 27.3903 3.6805 26.5023 3.9035C26.1563 3.9915 25.7852 4.0085 25.4262 4.0095C21.6042 4.0155 17.7822 4.0135 13.9622 4.0135Z" fill="#36424A"/>
<path fill-rule="evenodd" clip-rule="evenodd" d="M13.9426 12.001C10.0496 12.001 6.15556 12.007 2.26256 12C1.02456 11.996 0.153559 11.3 0.0335593 10.262C-0.0914407 9.17204 0.574606 8.25204 1.65661 8.04304C1.89261 7.99704 2.13657 7.99004 2.37957 7.99004C10.1176 7.98804 17.8566 7.98504 25.5946 7.99004C26.9446 7.99004 27.8266 8.66804 27.9346 9.76304C28.0576 11.014 27.1846 11.971 25.8406 11.994C24.2446 12.022 22.6496 12 21.0536 12.001C18.6826 12.002 16.3136 12.002 13.9426 12.001Z" fill="#36424A"/>
<path fill-rule="evenodd" clip-rule="evenodd" d="M13.9386 19.9921C10.0676 19.9921 6.19862 19.9961 2.32962 19.9911C1.03462 19.9891 0.153633 19.3081 0.0346334 18.2461C-0.0863666 17.1541 0.579601 16.2381 1.6636 16.0311C1.8996 15.9861 2.14361 15.9801 2.38461 15.9801C10.1246 15.9771 17.8637 15.9771 25.6017 15.9781C26.9477 15.9791 27.8316 16.6621 27.9356 17.7571C28.0546 19.0091 27.1836 19.9621 25.8356 19.9841C24.1446 20.0121 22.4506 19.9921 20.7576 19.9921C18.4836 19.9921 16.2106 19.9921 13.9386 19.9921Z" fill="#36424A"/>
</svg>
