<svg width="21" height="20" viewBox="0 0 21 20" fill="none" xmlns="http://www.w3.org/2000/svg">
<path fill-rule="evenodd" clip-rule="evenodd" d="M0.00299072 2.07091C0.00299072 1.93391 0.00299072 1.79891 0.00299072 1.66091C0.00999072 1.62891 0.0189868 1.59591 0.0239868 1.56291C0.0879868 1.15191 0.264998 0.79491 0.572998 0.51591C1.361 -0.19609 2.55598 -0.15609 3.30798 0.59891C5.51098 2.81191 7.71399 5.02491 9.91599 7.23891C9.94699 7.26991 9.968 7.31091 9.996 7.35191C10.047 7.30391 10.074 7.27891 10.1 7.25291C12.3 5.04091 14.502 2.83191 16.698 0.615911C17.13 0.179911 17.64 -0.0220897 18.25 0.00191031C19.062 0.0349103 19.795 0.631911 19.98 1.42091C19.999 1.49991 20.012 1.57991 20.028 1.65891C20.028 1.79691 20.028 1.93191 20.028 2.06891C20.018 2.11391 20.007 2.15891 19.999 2.20691C19.923 2.65691 19.675 3.00291 19.358 3.31691C17.15 5.50791 14.944 7.70491 12.739 9.89991C12.713 9.92491 12.689 9.95191 12.653 9.98891C12.694 10.0249 12.729 10.0519 12.76 10.0829C15.009 12.3319 17.257 14.5809 19.505 16.8289C19.736 17.0609 19.901 17.3299 19.976 17.6499C19.996 17.7349 20.011 17.8219 20.029 17.9079C20.029 18.0439 20.029 18.1799 20.029 18.3159C20.022 18.3379 20.012 18.3599 20.009 18.3819C19.877 19.3819 18.889 20.1249 17.892 19.9819C17.446 19.9189 17.077 19.7219 16.76 19.4049C14.544 17.1869 12.325 14.9699 10.108 12.7519C10.078 12.7219 10.047 12.6929 10.005 12.6529C9.965 12.6989 9.93601 12.7379 9.90201 12.7719C7.70801 14.9649 5.51401 17.1579 3.32001 19.3519C3.25701 19.4149 3.19499 19.4769 3.12799 19.5359C2.07999 20.4549 0.396983 19.9269 0.0579834 18.5729C0.0369834 18.4889 0.019 18.4029 0 18.3169C0 18.1739 0 18.0309 0 17.8879C0.005 17.8759 0.0149912 17.8649 0.0159912 17.8519C0.0649912 17.4399 0.250999 17.0989 0.542999 16.8069C2.793 14.5609 5.04199 12.3119 7.29099 10.0629C7.31599 10.0379 7.33999 10.0099 7.37799 9.96891C7.32899 9.92891 7.28501 9.89591 7.24701 9.85891C5.02301 7.64691 2.801 5.43491 0.576996 3.22491C0.316996 2.96691 0.132011 2.66691 0.0490112 2.30791C0.0340112 2.22991 0.0189907 2.14991 0.00299072 2.07091Z" fill="#36424A"/>
</svg>
